<?xml version="1.0" encoding="UTF-8"?><svg id="Layer_1" xmlns="http://www.w3.org/2000/svg" xmlns:xlink="http://www.w3.org/1999/xlink" viewBox="0 0 981.34 1681.63"><defs><style>.cls-1{clip-path:url(#clippath);}.cls-2{fill:none;}.cls-2,.cls-3,.cls-4,.cls-5,.cls-6{stroke-width:0px;}.cls-7{opacity:.68;}.cls-3{fill:#21431e;}.cls-4{fill:#c50;}.cls-5{fill:#98be94;}.cls-6{fill:#fff;}</style><clipPath id="clippath"><rect class="cls-2" x="77.32" y="423.79" width="739.37" height="1044.46"/></clipPath></defs><g class="cls-1"><rect class="cls-5" x="78.69" y="426.25" width="738" height="1042"/><g class="cls-7"><path class="cls-3" d="m237.51,834.46c-8.48-17.56-93.55-9.57-156.03,37.5-35.62,26.83-99.21,92.96-76.82,153.99,11.44,31.18,43.69,56.56,77.86,59.25,49.36,3.88,92.91-40.36,107.6-80.29,16.25-44.18-7.9-69.28,15.11-118.4,15.75-33.64,36.81-42.65,32.28-52.04Z"/><path class="cls-3" d="m355.46,867.5c-5.11,1.83-5.41,25.61,5.77,44.29,6.37,10.65,22.8,30.21,40.35,25.81,8.97-2.25,16.94-10.42,18.7-19.8,2.53-13.55-8.43-26.91-19.04-32.15-11.75-5.8-19.41.14-32.32-7.68-8.84-5.35-10.72-11.45-13.45-10.47Z"/><path class="cls-3" d="m273.66,796.48c5.36.87,17.11-19.8,16.35-41.56-.43-12.4-5.36-37.46-22.85-42.1-8.94-2.37-19.87.93-25.94,8.3-8.77,10.64-5.63,27.63,1.13,37.35,7.48,10.76,17.06,9.26,24.59,22.34,5.16,8.96,3.85,15.2,6.71,15.67Z"/><path class="cls-3" d="m382.56,688.6c5.13-1.76,5.75-25.53-5.18-44.36-6.23-10.73-22.4-30.5-40.01-26.34-9,2.13-17.08,10.2-18.96,19.55-2.71,13.51,8.07,27.02,18.62,32.4,11.67,5.96,19.41.12,32.22,8.11,8.77,5.47,10.57,11.59,13.31,10.65Z"/><path class="cls-3" d="m362.55,823.18c5.98,18.56,91.34,22.35,159.7-15.66,38.97-21.67,111.07-78.42,97.28-141.95-7.04-32.46-35.48-62.03-68.96-69.4-48.36-10.64-97.58,27.19-117.63,64.71-22.18,41.52-1.71,69.71-31.26,115.2-20.23,31.15-42.33,37.18-39.14,47.1Z"/><path class="cls-3" d="m156.11,397.87c-17.91-7.71-76.94,54.06-93.31,130.55-9.33,43.6-14.05,135.23,42.85,166.66,29.07,16.06,70.06,14.11,97.64-6.25,39.84-29.41,43.75-91.36,28.68-131.15-16.67-44.03-51.36-47.16-66.16-99.35-10.14-35.73-.13-56.34-9.71-60.46Z"/><path class="cls-3" d="m245.38,510.21c-2.66,4.73,12.69,22.89,33.38,29.68,11.79,3.87,37.01,7.89,47.39-6.94,5.3-7.57,5.97-18.97,1.16-27.21-6.96-11.9-23.99-14.81-35.45-11.82-12.68,3.31-14.57,12.82-29.45,15.38-10.19,1.75-15.6-1.63-17.02.9Z"/><path class="cls-3" d="m148.65,357.3c2.73-4.69-12.39-23.06-32.98-30.12-11.74-4.03-36.91-8.37-47.48,6.31-5.4,7.5-6.22,18.89-1.51,27.19,6.8,11.99,23.8,15.12,35.29,12.28,12.72-3.14,14.74-12.63,29.65-14.99,10.21-1.61,15.57,1.83,17.03-.68Z"/><path class="cls-3" d="m221.71,472.08c16.68,10.1,83.65-42.96,110.39-116.47,15.24-41.9,32.53-132.01-19.5-170.98-26.58-19.91-67.45-23.62-97.57-7.25-43.51,23.64-55.91,84.47-46.47,125.96,10.45,45.9,44.38,53.79,51.86,107.51,5.12,36.79-7.62,55.82,1.29,61.22Z"/><path class="cls-3" d="m576.42,307.88c18.42,6.4,72.85-59.46,83.66-136.93,6.17-44.16,4.28-135.89-54.74-163.14-30.15-13.92-70.89-9.02-96.93,13.26-37.62,32.2-37.05,94.28-19.17,132.88,19.79,42.71,54.62,43.34,73.14,94.33,12.68,34.91,4.19,56.19,14.03,59.61Z"/><path class="cls-3" d="m479.29,202.25c2.32-4.91-14.3-21.92-35.43-27.2-12.04-3.01-37.48-5.2-46.77,10.33-4.74,7.93-4.59,19.35.81,27.22,7.8,11.36,25,13.04,36.21,9.23,12.41-4.22,13.61-13.84,28.27-17.46,10.04-2.48,15.67.5,16.91-2.12Z"/><path class="cls-3" d="m586.78,347.8c-2.38,4.88,14.01,22.11,35.07,27.67,12,3.17,37.41,5.69,46.9-9.71,4.85-7.87,4.85-19.29-.45-27.23-7.65-11.46-24.82-13.37-36.09-9.71-12.46,4.05-13.79,13.66-28.5,17.08-10.07,2.35-15.67-.71-16.94,1.9Z"/><path class="cls-3" d="m505.65,238.58c-17.36-8.88-80.34,48.87-101.72,124.11-12.19,42.89-22.94,134.01,31.77,169.13,27.95,17.94,68.98,18.7,97.83.2,41.69-26.71,49.68-88.28,37.27-128.97-13.73-45.03-48.14-50.45-59.46-103.5-7.76-36.32,3.58-56.23-5.7-60.97Z"/><path class="cls-3" d="m754.58,1042.43c15.56-11.75-8.95-93.61-67.35-145.65-33.29-29.67-110.6-79.07-166.06-45.15-28.33,17.33-46.9,53.92-42.84,87.96,5.86,49.17,57.79,83.2,99.82,89.78,46.51,7.28,66.39-21.32,119.07-8.39,36.07,8.86,49.04,27.74,57.36,21.46Z"/><path class="cls-3" d="m612.8,1064.48c-2.79-4.65-26.17-.29-42.3,14.33-9.2,8.34-25.15,28.27-17.4,44.62,3.96,8.35,13.54,14.57,23.08,14.46,13.78-.17,24.73-13.53,27.8-24.97,3.39-12.66-3.94-19,1.2-33.2,3.52-9.72,9.13-12.75,7.63-15.24Z"/><path class="cls-3" d="m793.54,1056c2.73,4.69,26.17.63,42.49-13.78,9.3-8.21,25.52-27.94,17.99-44.39-3.85-8.4-13.35-14.75-22.89-14.76-13.78-.01-24.91,13.21-28.12,24.61-3.56,12.61,3.69,19.05-1.63,33.18-3.65,9.67-9.29,12.63-7.83,15.14Z"/><path class="cls-3" d="m657.65,1062.76c-17.03,9.5-4.02,93.95,46.66,153.54,28.89,33.97,98.66,93.54,158.26,67.58,30.45-13.26,53.88-46.95,54.54-81.22.96-49.51-45.78-90.36-86.51-102.66-45.06-13.61-68.69,11.98-119.09-8.08-34.51-13.74-44.75-34.23-53.86-29.15Z"/><path class="cls-3" d="m485.12,1494.25c14.14,13.42,90.88-24.15,132.67-90.27,23.82-37.69,59.91-122.05,17.37-171.21-21.73-25.11-60.87-37.44-93.78-27.87-47.55,13.83-72.62,70.62-72.23,113.16.43,47.07,31.9,62,27.76,116.09-2.84,37.03-19.34,52.92-11.78,60.09Z"/><path class="cls-3" d="m440.16,1357.98c4.13-3.52-4-25.87-21.06-39.39-9.73-7.71-32.01-20.19-46.87-9.87-7.59,5.27-12.16,15.74-10.49,25.13,2.42,13.57,17.4,22.19,29.19,23.34,13.04,1.27,18.1-7,32.95-4.25,10.17,1.88,14.07,6.92,16.28,5.04Z"/><path class="cls-3" d="m478.1,1534.9c-4.18,3.46,3.66,25.92,20.54,39.66,9.63,7.83,31.74,20.61,46.74,10.48,7.66-5.17,12.37-15.58,10.82-24.99-2.24-13.6-17.11-22.41-28.88-23.72-13.02-1.44-18.19,6.76-33,3.82-10.14-2.01-13.98-7.1-16.22-5.25Z"/><path class="cls-3" d="m449.21,1401.94c-12.16-15.24-93.34,11.41-143.83,71.15-28.78,34.06-76.14,112.64-40.77,167.18,18.07,27.87,55.14,45.47,89.05,40.51,49-7.15,81.65-59.95,87.12-102.14,6.06-46.69-23.06-65.81-11.51-118.81,7.91-36.29,26.44-49.75,19.94-57.9Z"/><path class="cls-3" d="m296.4,1279.19c15.36,12.01,88.14-32.76,123.39-102.59,20.09-39.81,47.92-127.23.85-172.08-24.04-22.91-64.18-31.43-96.02-18.74-46,18.33-65.51,77.27-61.04,119.58,4.95,46.82,37.7,58.66,38.78,112.89.73,37.13-14.17,54.53-5.96,60.95Z"/><path class="cls-3" d="m238.57,1147.87c3.78-3.9-6.46-25.36-24.75-37.18-10.42-6.74-33.8-17.02-47.6-5.32-7.05,5.98-10.6,16.84-8.02,26.02,3.71,13.27,19.45,20.41,31.29,20.43,13.1.01,17.35-8.7,32.39-7.4,10.3.89,14.67,5.53,16.69,3.45Z"/><path class="cls-3" d="m343.48,1334.97c-2.39,4.87,13.99,22.12,35.03,27.71,12,3.18,37.41,5.73,46.91-9.66,4.86-7.87,4.87-19.29-.42-27.23-7.64-11.47-24.81-13.4-36.07-9.75-12.47,4.04-13.81,13.64-28.51,17.05-10.07,2.33-15.67-.72-16.94,1.88Z"/><path class="cls-3" d="m251.79,1190.76c-13.56-14.01-91.81,20.32-136.34,84.63-25.38,36.66-64.97,119.43-24.53,170.33,20.66,26,59.25,39.96,92.53,31.78,48.08-11.83,75.52-67.51,76.91-110.04,1.55-47.05-29.27-63.29-22.87-117.15,4.39-36.88,21.54-52.06,14.29-59.55Z"/><path class="cls-3" d="m872.77,639.3c18.48-6.21,21.2-91.61-17.68-159.49-22.16-38.69-79.81-110.07-143.16-95.49-32.36,7.45-61.58,36.26-68.52,69.83-10.03,48.49,28.42,97.23,66.19,116.8,41.8,21.66,69.72.83,115.58,29.81,31.4,19.84,37.71,41.86,47.59,38.54Z"/><path class="cls-3" d="m731.31,615.24c-1.17-5.3-24.73-8.57-44.67.18-11.36,4.99-32.82,18.84-30.66,36.8,1.11,9.18,8.22,18.12,17.3,21.03,13.12,4.21,27.75-4.99,34.28-14.87,7.23-10.93,2.29-19.27,11.67-31.11,6.42-8.1,12.7-9.2,12.07-12.03Z"/><path class="cls-3" d="m905.41,664.53c1.1,5.31,24.61,8.9,44.66.41,11.43-4.84,33.07-18.4,31.14-36.39-.98-9.19-7.98-18.22-17.02-21.26-13.07-4.38-27.81,4.63-34.48,14.42-7.37,10.83-2.54,19.24-12.07,30.95-6.53,8.02-12.82,9.03-12.23,11.87Z"/><path class="cls-3" d="m652.51,721.3c-15.17,12.24,11.93,93.27,71.96,143.43,34.22,28.59,113.06,75.51,167.41,39.83,27.76-18.22,45.16-55.39,40.01-89.28-7.43-48.96-60.41-81.31-102.63-86.55-46.72-5.79-65.68,23.43-118.74,12.18-36.33-7.7-49.9-26.16-58.01-19.62Z"/></g><circle class="cls-4" cx="663.61" cy="1310.32" r="289.23"/></g><path class="cls-6" d="m514.47,1237.53v-6.03h45.18c-1.44,17.91-16.65,31.77-35.19,31.77s-35.73-14.58-35.73-34.47,16.11-34.47,35.64-34.47c14.94,0,27.63,9.54,31.5,18.9h-7.74c-4.59-7.83-14.13-12.87-23.67-12.87-15.66,0-29.07,12.6-29.07,28.53s13.5,28.35,29.34,28.35c12.06,0,23.85-8.19,26.91-19.71h-37.17Z"/><path class="cls-6" d="m569.91,1262.1v-66.6h36.45v6.03h-29.79v23.94h28.8v6.03h-28.8v24.57h29.79v6.03h-36.45Z"/><path class="cls-6" d="m627.69,1262.1v-60.57h-15.3v-6.03h37.17v6.03h-15.21v60.57h-6.66Z"/><path class="cls-6" d="m733.44,1262.1l-9.63-22.41h-30.96l-9.72,22.41h-6.93l28.44-66.6h7.47l28.62,66.6h-7.29Zm-25.02-59.04l-13.05,30.6h25.83l-12.78-30.6Z"/><path class="cls-6" d="m518.07,1355.47c-6.57,0-10.26-1.71-14.58-5.76-5.85,3.87-12.87,5.76-19.98,5.76-18.81,0-35.82-14.4-35.82-34.2s16.02-34.74,35.91-34.74,35.82,14.04,35.82,35.01c0,9.45-4.14,17.82-10.98,24.3,2.52,2.25,5.49,3.6,9.45,3.6h.45v6.03h-.27Zm-5.31-34.11c0-15.93-12.96-28.8-29.25-28.8s-29.16,12.6-29.16,29.07c0,2.79.36,5.04,1.17,7.56,4.77-1.53,9.09-2.25,14.13-2.25,12.06,0,20.97,3.42,33.93,14.58,5.67-5.58,9.18-12.24,9.18-20.16Zm-24.48,16.47c-4.41-2.52-11.79-4.86-19.8-4.86-3.51,0-6.57.36-10.26,1.89,3.33,6.57,12.51,14.58,25.47,14.58,5.31,0,10.35-1.17,14.67-4.32-4.59-3.69-7.92-6.03-10.08-7.29Z"/><path class="cls-6" d="m567.93,1287.71h6.66v42.21c0,16.83-9.81,25.56-22.68,25.56s-22.68-8.46-22.68-25.74v-42.03h6.66v42.39c0,13.41,7.2,19.35,16.02,19.35,7.65,0,16.02-4.77,16.02-19.26v-42.48Z"/><path class="cls-6" d="m620.49,1355.47c-18.18,0-35.19-14.76-35.19-34.11s15.66-34.83,35.19-34.83,35.28,15.48,35.28,34.47-15.93,34.47-35.28,34.47Zm-.09-62.91c-15.75,0-28.44,13.32-28.44,28.8s13.05,28.08,28.53,28.08,28.62-13.05,28.62-28.35-12.69-28.53-28.71-28.53Z"/><path class="cls-6" d="m675.48,1354.3v-60.57h-15.3v-6.03h37.17v6.03h-15.21v60.57h-6.66Z"/><path class="cls-6" d="m704.28,1354.3v-66.6h36.45v6.03h-29.79v23.94h28.8v6.03h-28.8v24.57h29.79v6.03h-36.45Z"/></svg>