<?xml version="1.0" encoding="UTF-8"?><svg id="Layer_1" xmlns="http://www.w3.org/2000/svg" xmlns:xlink="http://www.w3.org/1999/xlink" viewBox="0 0 507.95 807.85"><defs><style>.cls-1{clip-path:url(#clippath);}.cls-2{fill:none;}.cls-2,.cls-3,.cls-4,.cls-5,.cls-6{stroke-width:0px;}.cls-7{mask:url(#mask);}.cls-3{fill:#21431e;}.cls-4{fill:#c50;}.cls-5{fill:#98be94;}.cls-6{fill:#fff;}</style><clipPath id="clippath"><rect class="cls-2" x="-9" y="-9" width="524.48" height="745.15"/></clipPath><mask id="mask" x="-72.88" y="-204.14" width="679.49" height="1102.1" maskUnits="userSpaceOnUse"><g id="mask0_148_1231"><path class="cls-6" d="m522.03-17.34H-16.55v760.04h538.59V-17.34Z"/></g></mask></defs><g class="cls-1"><g class="cls-7"><path class="cls-5" d="m522.03-15.55H-15.56v758.25h537.59V-15.55Z"/><path class="cls-3" d="m100.14,281.51c-6.18-12.78-68.15-6.96-113.66,27.29-25.95,19.52-72.27,67.65-55.96,112.06,8.33,22.69,31.83,41.16,56.72,43.12,35.96,2.82,67.68-29.37,78.38-58.43,11.84-32.15-5.75-50.41,11.01-86.16,11.47-24.48,26.81-31.04,23.51-37.87h0Z"/><path class="cls-3" d="m186.05,305.55c-3.72,1.33-3.94,18.64,4.2,32.23,4.64,7.75,16.61,21.98,29.39,18.78,6.53-1.64,12.34-7.58,13.62-14.41,1.84-9.86-6.14-19.58-13.87-23.39-8.56-4.22-14.14.1-23.54-5.59-6.44-3.89-7.81-8.33-9.8-7.62h0Z"/><path class="cls-3" d="m126.47,253.86c3.9.63,12.46-14.41,11.91-30.24-.31-9.02-3.9-27.26-16.64-30.64-6.51-1.73-14.47.68-18.9,6.04-6.39,7.74-4.1,20.11.82,27.18,5.45,7.83,12.43,6.74,17.91,16.26,3.76,6.52,2.8,11.06,4.89,11.4h0Z"/><path class="cls-3" d="m205.8,175.37c3.74-1.28,4.19-18.58-3.77-32.28-4.54-7.81-16.32-22.19-29.14-19.17-6.56,1.55-12.44,7.42-13.81,14.23-1.97,9.83,5.88,19.66,13.56,23.58,8.5,4.34,14.14.09,23.47,5.9,6.39,3.98,7.7,8.43,9.7,7.75h0Z"/><path class="cls-3" d="m191.22,273.3c4.36,13.51,66.54,16.26,116.33-11.39,28.39-15.77,80.91-57.07,70.86-103.3-5.13-23.62-25.85-45.14-50.23-50.5-35.23-7.74-71.08,19.79-85.69,47.09-16.16,30.21-1.25,50.73-22.77,83.83-14.74,22.67-30.84,27.06-28.51,34.27h0Z"/><path class="cls-3" d="m40.84-36.2C27.8-41.81-15.21,3.14-27.12,58.81c-6.8,31.73-10.23,98.4,31.21,121.28,21.18,11.69,51.03,10.27,71.13-4.55,29.02-21.4,31.87-66.48,20.89-95.44C83.96,48.06,58.69,45.78,47.91,7.8c-7.39-26-.09-41-7.07-44h0Z"/><path class="cls-3" d="m105.87,45.55c-1.94,3.44,9.24,16.66,24.32,21.6,8.59,2.82,26.96,5.74,34.52-5.05,3.86-5.51,4.35-13.8.85-19.8-5.07-8.66-17.48-10.78-25.82-8.6-9.24,2.41-10.61,9.33-21.45,11.19-7.42,1.27-11.36-1.19-12.4.65h0Z"/><path class="cls-3" d="m88.63,17.8c12.15,7.35,60.93-31.26,80.41-84.75,11.1-30.49,23.7-96.06-14.2-124.42-19.36-14.49-49.13-17.19-71.07-5.28-31.69,17.2-40.73,61.47-33.85,91.66,7.61,33.4,32.33,39.14,37.78,78.23,3.73,26.77-5.55,40.62.94,44.55h0Z"/><path class="cls-3" d="m295.46-152.11c-12.64-6.46-58.52,35.56-74.1,90.31-8.88,31.21-16.71,97.52,23.14,123.07,20.36,13.05,50.25,13.61,71.26.15,30.37-19.44,36.19-64.24,27.15-93.85-10-32.77-35.07-36.71-43.31-75.32-5.65-26.43,2.61-40.92-4.15-44.37h0Z"/><path class="cls-3" d="m476.79,432.83c11.33-8.55-6.52-68.12-49.06-105.99-24.25-21.59-80.57-57.54-120.97-32.86-20.64,12.61-34.16,39.24-31.21,64.01,4.27,35.78,42.1,60.54,72.71,65.33,33.88,5.3,48.36-15.51,86.74-6.11,26.28,6.45,35.72,20.19,41.78,15.62h0Z"/><path class="cls-3" d="m373.51,448.88c-2.03-3.38-19.06-.21-30.81,10.43-6.7,6.07-18.32,20.57-12.67,32.47,2.88,6.08,9.86,10.6,16.81,10.52,10.04-.12,18.01-9.85,20.25-18.17,2.47-9.21-2.87-13.83.87-24.16,2.56-7.07,6.65-9.28,5.56-11.09h0Z"/><path class="cls-3" d="m505.17,442.72c1.99,3.41,19.06.46,30.95-10.03,6.78-5.97,18.59-20.33,13.1-32.3-2.8-6.11-9.72-10.73-16.67-10.74-10.04,0-18.15,9.61-20.48,17.91-2.59,9.18,2.69,13.86-1.19,24.14-2.66,7.04-6.77,9.19-5.7,11.02h0Z"/><path class="cls-3" d="m406.18,447.63c-12.4,6.91-2.93,68.37,33.99,111.73,21.04,24.72,71.87,68.07,115.28,49.18,22.18-9.65,39.25-34.16,39.73-59.1.7-36.03-33.35-65.75-63.02-74.7-32.82-9.9-50.04,8.72-86.75-5.88-25.14-10-32.6-24.91-39.23-21.21h0Z"/><path class="cls-3" d="m280.5,761.62c10.3,9.77,66.2-17.57,96.64-65.69,17.35-27.43,43.64-88.81,12.65-124.59-15.83-18.27-44.34-27.24-68.31-20.28-34.64,10.06-52.9,51.39-52.62,82.35.31,34.25,23.24,45.12,20.22,84.48-2.07,26.95-14.09,38.51-8.58,43.73h0Z"/><path class="cls-3" d="m247.75,662.46c3.01-2.56-2.91-18.82-15.34-28.66-7.09-5.61-23.32-14.69-34.14-7.18-5.53,3.83-8.86,11.45-7.64,18.29,1.76,9.87,12.68,16.15,21.26,16.98,9.5.92,13.18-5.09,24-3.09,7.41,1.37,10.25,5.04,11.86,3.67Z"/><path class="cls-3" d="m254.35,694.45c-8.86-11.09-67.99,8.3-104.77,51.77-20.96,24.78-55.46,81.97-29.7,121.66,13.16,20.28,40.17,33.09,64.87,29.48,35.69-5.2,59.48-43.62,63.46-74.32,4.41-33.98-16.8-47.89-8.38-86.46,5.76-26.41,19.26-36.2,14.53-42.13h0Z"/><path class="cls-3" d="m143.03,605.13c11.19,8.74,64.2-23.84,89.88-74.65,14.63-28.97,34.91-92.58.62-125.22-17.51-16.67-46.75-22.87-69.95-13.64-33.51,13.34-47.72,56.23-44.46,87.02,3.61,34.07,27.46,42.69,28.25,82.15.53,27.02-10.32,39.68-4.34,44.35h0Z"/><path class="cls-3" d="m100.91,509.57c2.75-2.84-4.71-18.45-18.03-27.06-7.59-4.9-24.62-12.38-34.67-3.87-5.14,4.35-7.72,12.25-5.84,18.93,2.7,9.66,14.17,14.85,22.79,14.87,9.54,0,12.64-6.33,23.59-5.38,7.5.65,10.69,4.02,12.16,2.51Z"/><path class="cls-3" d="m428.8,659.3c-1.74,3.54,10.19,16.1,25.52,20.16,8.74,2.31,27.25,4.17,34.17-7.03,3.54-5.73,3.55-14.04-.31-19.81-5.57-8.35-18.07-9.75-26.28-7.1-9.08,2.94-10.06,9.93-20.77,12.41-7.34,1.7-11.41-.52-12.34,1.37Z"/><path class="cls-3" d="m110.54,540.78c-9.88-10.19-66.88,14.79-99.32,61.58-18.49,26.68-47.33,86.91-17.87,123.95,15.05,18.92,43.16,29.08,67.4,23.13,35.02-8.61,55.01-49.13,56.02-80.07,1.13-34.24-21.32-46.05-16.66-85.25,3.2-26.84,15.69-37.88,10.41-43.33h0Z"/><path class="cls-3" d="m562.88,139.48c13.46-4.52,15.44-66.66-12.88-116.06-16.14-28.15-58.14-80.1-104.28-69.49-23.57,5.42-44.86,26.39-49.91,50.81-7.31,35.29,20.7,70.75,48.21,84.99,30.45,15.76,50.79.6,84.19,21.69,22.87,14.44,27.47,30.46,34.67,28.04Z"/><path class="cls-3" d="m459.84,121.98c-.85-3.86-18.01-6.24-32.54.13-8.27,3.63-23.91,13.71-22.33,26.78.81,6.68,5.99,13.19,12.6,15.3,9.56,3.06,20.21-3.63,24.97-10.82,5.27-7.95,1.67-14.02,8.5-22.64,4.68-5.89,9.25-6.69,8.79-8.75h0Z"/><path class="cls-3" d="m402.44,199.16c-11.05,8.91,8.69,67.87,52.42,104.37,24.93,20.8,82.36,54.95,121.95,28.98,20.22-13.26,32.9-40.31,29.14-64.97-5.41-35.63-44.01-59.17-74.76-62.98-34.03-4.21-47.84,17.05-86.5,8.86-26.46-5.6-36.35-19.04-42.26-14.28h0Z"/><path class="cls-4" d="m2.2,553.76c-3.3-.53-6.79,4.22-8.19,7.5-2.88,6.73-.82,16.23,4.09,17.73,3.14.96,6.94-1.49,8.88-4.09,5.29-7.11.28-20.34-4.78-21.15Z"/><path class="cls-4" d="m22.42,532.8c-3.3-.53-6.79,4.22-8.19,7.5-2.88,6.73-.82,16.23,4.09,17.73,3.14.96,6.94-1.49,8.88-4.09,5.29-7.11.28-20.34-4.78-21.15Z"/><path class="cls-4" d="m48.53,492.71c-3.3-.53-6.79,4.22-8.19,7.5-2.88,6.73-.82,16.23,4.09,17.73,3.14.96,6.94-1.49,8.88-4.09,5.29-7.11.28-20.34-4.78-21.15Z"/><path class="cls-4" d="m43.66,520.06c-3.3-.53-6.79,4.22-8.19,7.5-2.88,6.73-.82,16.23,4.09,17.73,3.14.96,6.94-1.49,8.88-4.09,5.29-7.11.28-20.34-4.78-21.15Z"/><path class="cls-4" d="m31.51,465.39c-3.3-.53-6.79,4.22-8.19,7.5-2.88,6.73-.82,16.23,4.09,17.73,3.14.96,6.94-1.49,8.88-4.09,5.29-7.11.28-20.34-4.78-21.15Z"/><path class="cls-4" d="m2.62,518.2c-3.3-.53-6.79,4.22-8.2,7.5-2.88,6.73-.82,16.23,4.09,17.73,3.14.96,6.94-1.49,8.88-4.09,5.29-7.11.28-20.34-4.78-21.15Z"/><path class="cls-4" d="m4.25,477.52c-3.3-.53-6.79,4.22-8.19,7.5-2.88,6.73-.82,16.23,4.09,17.73,3.14.96,6.94-1.49,8.88-4.09,5.29-7.11.28-20.34-4.78-21.15Z"/><path class="cls-4" d="m22.42,499.1c-3.3-.53-6.79,4.22-8.19,7.5-2.88,6.73-.82,16.23,4.09,17.73,3.14.96,6.94-1.49,8.88-4.09,5.29-7.11.28-20.34-4.78-21.15Z"/><path class="cls-4" d="m-6.91,431.69c-3.3-.53-6.79,4.22-8.19,7.5-2.88,6.73-.82,16.23,4.09,17.73,3.14.96,6.94-1.49,8.88-4.09,5.29-7.11.28-20.34-4.78-21.15Z"/><path class="cls-4" d="m9.63,450.79c-3.3-.53-6.79,4.22-8.19,7.5-2.88,6.73-.82,16.24,4.09,17.73,3.14.96,6.94-1.49,8.88-4.09,5.29-7.11.28-20.34-4.78-21.15Z"/><path class="cls-4" d="m11.27,410.11c-3.3-.53-6.79,4.22-8.19,7.5-2.88,6.73-.82,16.24,4.09,17.73,3.14.96,6.94-1.49,8.88-4.09,5.29-7.11.28-20.34-4.78-21.15Z"/><path class="cls-4" d="m29.44,431.69c-3.3-.53-6.79,4.22-8.19,7.5-2.88,6.73-.82,16.23,4.09,17.73,3.14.96,6.94-1.49,8.88-4.09,5.29-7.11.28-20.34-4.78-21.15Z"/><path class="cls-4" d="m198.53,463.56c-3.3-.53-6.79,4.22-8.2,7.5-2.88,6.73-.81,16.24,4.09,17.73,3.14.96,6.94-1.49,8.88-4.09,5.29-7.11.28-20.34-4.78-21.15Z"/><path class="cls-4" d="m215.08,482.65c-3.3-.53-6.79,4.22-8.2,7.5-2.88,6.73-.82,16.23,4.09,17.73,3.14.96,6.94-1.49,8.88-4.09,5.29-7.11.28-20.34-4.78-21.15Z"/><path class="cls-4" d="m216.71,441.97c-3.3-.53-6.79,4.22-8.19,7.5-2.88,6.73-.82,16.23,4.09,17.73,3.14.96,6.94-1.49,8.88-4.09,5.29-7.11.28-20.34-4.78-21.15Z"/><path class="cls-4" d="m234.87,463.56c-3.3-.53-6.79,4.22-8.19,7.5-2.88,6.73-.82,16.24,4.09,17.73,3.14.96,6.94-1.49,8.88-4.09,5.29-7.11.28-20.34-4.78-21.15Z"/><path class="cls-4" d="m175.05,518.21c-3.3-.53-6.79,4.22-8.19,7.5-2.88,6.73-.82,16.23,4.09,17.73,3.14.96,6.94-1.49,8.88-4.09,5.29-7.11.28-20.34-4.78-21.15Z"/><path class="cls-4" d="m191.59,537.32c-3.3-.53-6.79,4.22-8.19,7.5-2.88,6.73-.82,16.23,4.09,17.73,3.14.96,6.94-1.49,8.88-4.09,5.29-7.11.28-20.34-4.78-21.15Z"/><path class="cls-4" d="m193.22,496.64c-3.3-.53-6.79,4.22-8.19,7.5-2.88,6.73-.82,16.23,4.09,17.73,3.14.96,6.94-1.49,8.88-4.09,5.29-7.11.28-20.34-4.78-21.15Z"/><path class="cls-4" d="m211.4,518.21c-3.3-.53-6.79,4.22-8.2,7.5-2.88,6.73-.82,16.23,4.09,17.73,3.14.96,6.94-1.49,8.88-4.09,5.29-7.11.28-20.34-4.78-21.15Z"/><path class="cls-4" d="m216.71,552.54c-3.3-.53-6.79,4.22-8.19,7.5-2.88,6.73-.82,16.23,4.09,17.73,3.14.96,6.94-1.49,8.88-4.09,5.29-7.11.28-20.34-4.78-21.15Z"/><path class="cls-4" d="m233.25,571.64c-3.3-.53-6.79,4.22-8.19,7.5-2.88,6.73-.82,16.23,4.09,17.73,3.14.96,6.94-1.49,8.88-4.09,5.29-7.11.28-20.34-4.78-21.15Z"/><path class="cls-4" d="m234.87,530.96c-3.3-.53-6.79,4.22-8.19,7.5-2.88,6.73-.82,16.24,4.09,17.73,3.14.96,6.94-1.49,8.88-4.09,5.29-7.11.28-20.34-4.78-21.15Z"/><path class="cls-4" d="m253.05,552.54c-3.3-.53-6.79,4.22-8.19,7.5-2.88,6.73-.82,16.23,4.09,17.73,3.14.96,6.94-1.49,8.88-4.09,5.29-7.11.28-20.34-4.78-21.15Z"/><path class="cls-4" d="m273.27,531.58c-3.3-.53-6.79,4.22-8.19,7.5-2.88,6.73-.82,16.23,4.09,17.73,3.14.96,6.94-1.49,8.88-4.09,5.29-7.11.28-20.34-4.78-21.15Z"/><path class="cls-4" d="m299.39,491.49c-3.3-.53-6.79,4.22-8.19,7.5-2.88,6.73-.82,16.23,4.09,17.73,3.14.96,6.94-1.49,8.88-4.09,5.29-7.11.28-20.34-4.78-21.15Z"/><path class="cls-4" d="m294.51,518.84c-3.3-.53-6.79,4.22-8.2,7.5-2.88,6.73-.81,16.23,4.09,17.73,3.14.96,6.94-1.49,8.88-4.09,5.29-7.11.28-20.34-4.78-21.15Z"/><path class="cls-4" d="m282.36,464.18c-3.3-.53-6.79,4.22-8.2,7.5-2.88,6.73-.82,16.23,4.09,17.73,3.14.96,6.94-1.49,8.88-4.09,5.29-7.11.28-20.34-4.78-21.15Z"/><path class="cls-4" d="m236.93,497.88c-3.3-.53-6.79,4.22-8.19,7.5-2.88,6.73-.82,16.23,4.09,17.73,3.14.96,6.94-1.49,8.88-4.09,5.29-7.11.28-20.34-4.78-21.15Z"/><path class="cls-4" d="m253.47,516.98c-3.3-.53-6.79,4.22-8.19,7.5-2.88,6.73-.82,16.23,4.09,17.73,3.14.96,6.94-1.49,8.88-4.09,5.29-7.11.28-20.34-4.78-21.15Z"/><path class="cls-4" d="m255.1,476.3c-3.3-.53-6.79,4.22-8.19,7.5-2.88,6.73-.82,16.24,4.09,17.73,3.14.96,6.94-1.49,8.88-4.09,5.29-7.11.28-20.34-4.78-21.15Z"/><path class="cls-4" d="m273.27,497.88c-3.3-.53-6.79,4.22-8.19,7.5-2.88,6.73-.82,16.23,4.09,17.73,3.14.96,6.94-1.49,8.88-4.09,5.29-7.11.28-20.34-4.78-21.15Z"/><path class="cls-4" d="m243.94,430.47c-3.3-.53-6.79,4.22-8.19,7.5-2.88,6.73-.82,16.23,4.09,17.73,3.14.96,6.94-1.49,8.88-4.09,5.29-7.11.28-20.34-4.78-21.15Z"/><path class="cls-4" d="m260.49,449.57c-3.3-.53-6.79,4.22-8.2,7.5-2.88,6.73-.82,16.24,4.09,17.73,3.14.96,6.94-1.49,8.88-4.09,5.29-7.11.28-20.34-4.78-21.15Z"/><path class="cls-4" d="m262.12,408.89c-3.3-.53-6.79,4.22-8.2,7.5-2.88,6.73-.82,16.24,4.09,17.73,3.14.96,6.94-1.49,8.88-4.09,5.29-7.11.28-20.34-4.78-21.15Z"/><path class="cls-4" d="m280.29,430.47c-3.3-.53-6.79,4.22-8.19,7.5-2.88,6.73-.82,16.23,4.09,17.73,3.14.96,6.94-1.49,8.88-4.09,5.29-7.11.28-20.34-4.78-21.15Z"/><path class="cls-4" d="m80.29,288.06c-3.3-.53-6.79,4.22-8.19,7.5-2.88,6.73-.82,16.24,4.09,17.73,3.14.96,6.94-1.49,8.88-4.09,5.29-7.11.28-20.34-4.78-21.15Z"/><path class="cls-4" d="m96.83,307.16c-3.3-.53-6.79,4.22-8.19,7.5-2.88,6.73-.82,16.23,4.09,17.73,3.14.96,6.94-1.49,8.88-4.09,5.29-7.11.28-20.34-4.78-21.15Z"/><path class="cls-4" d="m98.46,266.48c-3.3-.53-6.79,4.22-8.19,7.5-2.88,6.73-.82,16.23,4.09,17.73,3.14.96,6.94-1.49,8.88-4.09,5.29-7.11.28-20.34-4.78-21.15Z"/><path class="cls-4" d="m116.63,288.06c-3.3-.53-6.79,4.22-8.2,7.5-2.88,6.73-.81,16.24,4.09,17.73,3.14.96,6.94-1.49,8.88-4.09,5.29-7.11.28-20.34-4.78-21.15Z"/><path class="cls-4" d="m56.81,342.72c-3.3-.53-6.79,4.22-8.19,7.5-2.88,6.73-.82,16.24,4.09,17.73,3.14.96,6.94-1.49,8.88-4.09,5.29-7.11.28-20.34-4.78-21.15Z"/><path class="cls-4" d="m73.35,361.82c-3.3-.53-6.79,4.22-8.19,7.5-2.88,6.73-.82,16.23,4.09,17.73,3.14.96,6.94-1.49,8.88-4.09,5.29-7.11.28-20.34-4.78-21.15Z"/><path class="cls-4" d="m74.98,321.14c-3.3-.53-6.79,4.22-8.19,7.5-2.88,6.73-.82,16.23,4.09,17.73,3.14.96,6.94-1.49,8.88-4.09,5.29-7.11.28-20.34-4.78-21.15Z"/><path class="cls-4" d="m93.16,342.72c-3.3-.53-6.79,4.22-8.19,7.5-2.88,6.73-.82,16.24,4.09,17.73,3.14.96,6.94-1.49,8.88-4.09,5.29-7.11.28-20.34-4.78-21.15Z"/><path class="cls-4" d="m98.46,377.04c-3.3-.53-6.79,4.22-8.19,7.5-2.88,6.73-.82,16.23,4.09,17.73,3.14.96,6.94-1.49,8.88-4.09,5.29-7.11.28-20.34-4.78-21.15Z"/><path class="cls-4" d="m115,396.15c-3.3-.53-6.79,4.22-8.19,7.5-2.88,6.73-.82,16.23,4.09,17.73,3.14.96,6.94-1.49,8.88-4.09,5.29-7.11.28-20.34-4.78-21.15Z"/><path class="cls-4" d="m116.63,355.47c-3.3-.53-6.79,4.22-8.2,7.5-2.88,6.73-.81,16.23,4.09,17.73,3.14.96,6.94-1.49,8.88-4.09,5.29-7.11.28-20.34-4.78-21.15Z"/><path class="cls-4" d="m134.81,377.04c-3.3-.53-6.79,4.22-8.19,7.5-2.88,6.73-.82,16.23,4.09,17.73,3.14.96,6.94-1.49,8.88-4.09,5.29-7.11.28-20.34-4.78-21.15Z"/><path class="cls-4" d="m155.03,356.09c-3.3-.53-6.79,4.22-8.19,7.5-2.88,6.73-.82,16.24,4.09,17.73,3.14.96,6.94-1.49,8.88-4.09,5.29-7.11.28-20.34-4.78-21.15Z"/><path class="cls-4" d="m181.14,315.99c-3.3-.53-6.79,4.22-8.2,7.5-2.88,6.73-.82,16.24,4.09,17.73,3.14.96,6.94-1.49,8.88-4.09,5.29-7.11.28-20.34-4.78-21.15Z"/><path class="cls-4" d="m176.26,343.34c-3.3-.53-6.79,4.22-8.2,7.5-2.88,6.73-.82,16.23,4.09,17.73,3.14.96,6.94-1.49,8.88-4.09,5.29-7.11.28-20.34-4.78-21.15Z"/><path class="cls-4" d="m164.12,288.68c-3.3-.53-6.79,4.22-8.2,7.5-2.88,6.73-.82,16.23,4.09,17.73,3.14.96,6.94-1.49,8.88-4.09,5.29-7.11.28-20.34-4.78-21.15Z"/><path class="cls-4" d="m118.68,322.38c-3.3-.53-6.79,4.22-8.19,7.5-2.88,6.73-.82,16.23,4.09,17.73,3.14.96,6.94-1.49,8.88-4.09,5.29-7.11.28-20.34-4.78-21.15Z"/><path class="cls-4" d="m135.23,341.48c-3.3-.53-6.79,4.22-8.19,7.5-2.88,6.73-.82,16.23,4.09,17.73,3.14.96,6.94-1.49,8.88-4.09,5.29-7.11.28-20.34-4.78-21.15Z"/><path class="cls-4" d="m136.86,300.8c-3.3-.53-6.79,4.22-8.2,7.5-2.88,6.73-.82,16.23,4.09,17.73,3.14.96,6.94-1.49,8.88-4.09,5.29-7.11.28-20.34-4.78-21.15Z"/><path class="cls-4" d="m155.03,322.38c-3.3-.53-6.79,4.22-8.19,7.5-2.88,6.73-.82,16.23,4.09,17.73,3.14.96,6.94-1.49,8.88-4.09,5.29-7.11.28-20.34-4.78-21.15Z"/><path class="cls-4" d="m125.7,254.97c-3.3-.53-6.79,4.22-8.2,7.5-2.88,6.73-.82,16.23,4.09,17.73,3.14.96,6.94-1.49,8.88-4.09,5.29-7.11.28-20.34-4.78-21.15Z"/><path class="cls-4" d="m142.25,274.08c-3.3-.53-6.79,4.22-8.2,7.5-2.88,6.73-.82,16.23,4.09,17.73,3.14.96,6.94-1.49,8.88-4.09,5.29-7.11.28-20.34-4.78-21.15Z"/><path class="cls-4" d="m143.87,233.4c-3.3-.53-6.79,4.22-8.19,7.5-2.88,6.73-.82,16.24,4.09,17.73,3.14.96,6.94-1.49,8.88-4.09,5.29-7.11.28-20.34-4.78-21.15Z"/><path class="cls-4" d="m162.05,254.97c-3.3-.53-6.79,4.22-8.2,7.5-2.88,6.73-.81,16.23,4.09,17.73,3.14.96,6.94-1.49,8.88-4.09,5.29-7.11.28-20.34-4.78-21.15Z"/><path class="cls-4" d="m304.62,645.41c-3.3-.53-6.79,4.22-8.2,7.5-2.88,6.73-.81,16.24,4.09,17.73,3.14.96,6.94-1.49,8.88-4.09,5.29-7.11.28-20.34-4.78-21.15Z"/><path class="cls-4" d="m321.17,664.51c-3.3-.53-6.79,4.22-8.2,7.5-2.88,6.73-.82,16.24,4.09,17.73,3.14.96,6.94-1.49,8.88-4.09,5.29-7.11.28-20.34-4.78-21.15Z"/><path class="cls-4" d="m322.79,623.83c-3.3-.53-6.79,4.22-8.19,7.5-2.88,6.73-.82,16.23,4.09,17.73,3.14.96,6.94-1.49,8.88-4.09,5.29-7.11.28-20.34-4.78-21.15Z"/><path class="cls-4" d="m340.97,645.41c-3.3-.53-6.79,4.22-8.2,7.5-2.88,6.73-.81,16.24,4.09,17.73,3.14.96,6.94-1.49,8.88-4.09,5.29-7.11.28-20.34-4.78-21.15Z"/><path class="cls-4" d="m281.14,700.07c-3.3-.53-6.79,4.22-8.19,7.5-2.88,6.73-.82,16.24,4.09,17.73,3.14.96,6.94-1.49,8.88-4.09,5.29-7.11.28-20.34-4.78-21.15Z"/><path class="cls-4" d="m297.68,719.17c-3.3-.53-6.79,4.22-8.19,7.5-2.88,6.73-.82,16.23,4.09,17.73,3.14.96,6.94-1.49,8.88-4.09,5.29-7.11.28-20.34-4.78-21.15Z"/><path class="cls-4" d="m299.31,678.49c-3.3-.53-6.79,4.22-8.19,7.5-2.88,6.73-.82,16.23,4.09,17.73,3.14.96,6.94-1.49,8.88-4.09,5.29-7.11.28-20.34-4.78-21.15Z"/><path class="cls-4" d="m317.49,700.07c-3.3-.53-6.79,4.22-8.2,7.5-2.88,6.73-.82,16.24,4.09,17.73,3.14.96,6.94-1.49,8.88-4.09,5.29-7.11.28-20.34-4.78-21.15Z"/><path class="cls-4" d="m322.79,734.39c-3.3-.53-6.79,4.22-8.19,7.5-2.88,6.73-.82,16.23,4.09,17.73,3.14.96,6.94-1.49,8.88-4.09,5.29-7.11.28-20.34-4.78-21.15Z"/><path class="cls-4" d="m340.97,712.81c-3.3-.53-6.79,4.22-8.2,7.5-2.88,6.73-.81,16.24,4.09,17.73,3.14.96,6.94-1.49,8.88-4.09,5.29-7.11.28-20.34-4.78-21.15Z"/><path class="cls-4" d="m359.14,734.39c-3.3-.53-6.79,4.22-8.19,7.5-2.88,6.73-.82,16.23,4.09,17.73,3.14.96,6.94-1.49,8.88-4.09,5.29-7.11.28-20.34-4.78-21.15Z"/><path class="cls-4" d="m379.36,713.44c-3.3-.53-6.79,4.22-8.19,7.5-2.88,6.73-.82,16.24,4.09,17.73,3.14.96,6.94-1.49,8.88-4.09,5.29-7.11.28-20.34-4.78-21.15Z"/><path class="cls-4" d="m405.48,673.33c-3.3-.53-6.79,4.22-8.2,7.5-2.88,6.73-.81,16.24,4.09,17.73,3.14.96,6.94-1.49,8.88-4.09,5.29-7.11.28-20.34-4.78-21.15Z"/><path class="cls-4" d="m400.6,700.69c-3.3-.53-6.79,4.22-8.2,7.5-2.88,6.73-.81,16.23,4.09,17.73,3.14.96,6.94-1.49,8.88-4.09,5.29-7.11.28-20.34-4.78-21.15Z"/><path class="cls-4" d="m388.45,646.02c-3.3-.53-6.79,4.22-8.2,7.5-2.88,6.73-.82,16.23,4.09,17.73,3.14.96,6.94-1.49,8.88-4.09,5.29-7.11.28-20.34-4.78-21.15Z"/><path class="cls-4" d="m343.02,679.73c-3.3-.53-6.79,4.22-8.19,7.5-2.88,6.73-.82,16.24,4.09,17.73,3.14.96,6.94-1.49,8.88-4.09,5.29-7.11.28-20.34-4.78-21.15Z"/><path class="cls-4" d="m359.56,698.83c-3.3-.53-6.79,4.22-8.19,7.5-2.88,6.73-.82,16.23,4.09,17.73,3.14.96,6.94-1.49,8.88-4.09,5.29-7.11.28-20.34-4.78-21.15Z"/><path class="cls-4" d="m361.19,658.15c-3.3-.53-6.79,4.22-8.2,7.5-2.88,6.73-.82,16.23,4.09,17.73,3.14.96,6.94-1.49,8.88-4.09,5.29-7.11.28-20.34-4.78-21.15Z"/><path class="cls-4" d="m379.36,679.73c-3.3-.53-6.79,4.22-8.19,7.5-2.88,6.73-.82,16.24,4.09,17.73,3.14.96,6.94-1.49,8.88-4.09,5.29-7.11.28-20.34-4.78-21.15Z"/><path class="cls-4" d="m350.03,612.32c-3.3-.53-6.79,4.22-8.19,7.5-2.88,6.73-.82,16.23,4.09,17.73,3.14.96,6.94-1.49,8.88-4.09,5.29-7.11.28-20.34-4.78-21.15Z"/><path class="cls-4" d="m366.58,631.42c-3.3-.53-6.79,4.22-8.2,7.5-2.88,6.73-.82,16.23,4.09,17.73,3.14.96,6.94-1.49,8.88-4.09,5.29-7.11.28-20.34-4.78-21.15Z"/><path class="cls-4" d="m368.21,590.74c-3.3-.53-6.79,4.22-8.19,7.5-2.88,6.73-.82,16.24,4.09,17.73,3.14.96,6.94-1.49,8.88-4.09,5.29-7.11.28-20.34-4.78-21.15Z"/><path class="cls-4" d="m386.38,612.32c-3.3-.53-6.79,4.22-8.19,7.5-2.88,6.73-.82,16.23,4.09,17.73,3.14.96,6.94-1.49,8.88-4.09,5.29-7.11.28-20.34-4.78-21.15Z"/><path class="cls-4" d="m64.03,640.27c-3.3-.53-6.79,4.22-8.19,7.5-2.88,6.73-.82,16.23,4.09,17.73,3.14.96,6.94-1.49,8.88-4.09,5.29-7.11.28-20.34-4.78-21.15Z"/><path class="cls-4" d="m80.57,659.37c-3.3-.53-6.79,4.22-8.19,7.5-2.88,6.73-.82,16.23,4.09,17.73,3.14.96,6.94-1.49,8.88-4.09,5.29-7.11.28-20.34-4.78-21.15Z"/><path class="cls-4" d="m82.2,618.69c-3.3-.53-6.79,4.22-8.19,7.5-2.88,6.73-.82,16.24,4.09,17.73,3.14.96,6.94-1.49,8.88-4.09,5.29-7.11.28-20.34-4.78-21.15Z"/><path class="cls-4" d="m100.38,640.27c-3.3-.53-6.79,4.22-8.2,7.5-2.88,6.73-.82,16.23,4.09,17.73,3.14.96,6.94-1.49,8.88-4.09,5.29-7.11.28-20.34-4.78-21.15Z"/><path class="cls-4" d="m40.54,694.93c-3.3-.53-6.79,4.22-8.19,7.5-2.88,6.73-.82,16.23,4.09,17.73,3.14.96,6.94-1.49,8.88-4.09,5.29-7.11.28-20.34-4.78-21.15Z"/><path class="cls-4" d="m57.09,714.03c-3.3-.53-6.79,4.22-8.19,7.5-2.88,6.73-.82,16.23,4.09,17.73,3.14.96,6.94-1.49,8.88-4.09,5.29-7.11.28-20.34-4.78-21.15Z"/><path class="cls-4" d="m58.72,673.36c-3.3-.53-6.79,4.22-8.19,7.5-2.88,6.73-.82,16.24,4.09,17.73,3.14.96,6.94-1.49,8.88-4.09,5.29-7.11.28-20.34-4.78-21.15Z"/><path class="cls-4" d="m76.89,694.93c-3.3-.53-6.79,4.22-8.19,7.5-2.88,6.73-.82,16.23,4.09,17.73,3.14.96,6.94-1.49,8.88-4.09,5.29-7.11.28-20.34-4.78-21.15Z"/><path class="cls-4" d="m82.2,729.26c-3.3-.53-6.79,4.22-8.19,7.5-2.88,6.73-.82,16.23,4.09,17.73,3.14.96,6.94-1.49,8.88-4.09,5.29-7.11.28-20.34-4.78-21.15Z"/><path class="cls-4" d="m100.38,707.68c-3.3-.53-6.79,4.22-8.2,7.5-2.88,6.73-.82,16.24,4.09,17.73,3.14.96,6.94-1.49,8.88-4.09,5.29-7.11.28-20.34-4.78-21.15Z"/><path class="cls-4" d="m118.55,729.26c-3.3-.53-6.79,4.22-8.19,7.5-2.88,6.73-.82,16.23,4.09,17.73,3.14.96,6.94-1.49,8.88-4.09,5.29-7.11.28-20.34-4.78-21.15Z"/><path class="cls-4" d="m138.77,708.3c-3.3-.53-6.79,4.22-8.19,7.5-2.88,6.73-.82,16.23,4.09,17.73,3.14.96,6.94-1.49,8.88-4.09,5.29-7.11.28-20.34-4.78-21.15Z"/><path class="cls-4" d="m164.88,668.2c-3.3-.53-6.79,4.22-8.2,7.5-2.88,6.73-.82,16.23,4.09,17.73,3.14.96,6.94-1.49,8.88-4.09,5.29-7.11.28-20.34-4.78-21.15Z"/><path class="cls-4" d="m160.01,695.55c-3.3-.53-6.79,4.22-8.2,7.5-2.88,6.73-.82,16.24,4.09,17.73,3.14.96,6.94-1.49,8.88-4.09,5.29-7.11.28-20.34-4.78-21.15Z"/><path class="cls-4" d="m147.85,640.89c-3.3-.53-6.79,4.22-8.19,7.5-2.88,6.73-.82,16.23,4.09,17.73,3.14.96,6.94-1.49,8.88-4.09,5.29-7.11.28-20.34-4.78-21.15Z"/><path class="cls-4" d="m102.42,674.59c-3.3-.53-6.79,4.22-8.19,7.5-2.88,6.73-.82,16.23,4.09,17.73,3.14.96,6.94-1.49,8.88-4.09,5.29-7.11.28-20.34-4.78-21.15Z"/><path class="cls-4" d="m118.97,693.7c-3.3-.53-6.79,4.22-8.19,7.5-2.88,6.73-.82,16.24,4.09,17.73,3.14.96,6.94-1.49,8.88-4.09,5.29-7.11.28-20.34-4.78-21.15Z"/><path class="cls-4" d="m120.6,653.02c-3.3-.53-6.79,4.22-8.2,7.5-2.88,6.73-.82,16.24,4.09,17.73,3.14.96,6.94-1.49,8.88-4.09,5.29-7.11.28-20.34-4.78-21.15Z"/><path class="cls-4" d="m138.77,674.59c-3.3-.53-6.79,4.22-8.19,7.5-2.88,6.73-.82,16.23,4.09,17.73,3.14.96,6.94-1.49,8.88-4.09,5.29-7.11.28-20.34-4.78-21.15Z"/><path class="cls-4" d="m109.44,607.19c-3.3-.53-6.79,4.22-8.2,7.5-2.88,6.73-.82,16.24,4.09,17.73,3.14.96,6.94-1.49,8.88-4.09,5.29-7.11.28-20.34-4.78-21.15Z"/><path class="cls-4" d="m125.98,626.28c-3.3-.53-6.79,4.22-8.2,7.5-2.88,6.73-.82,16.24,4.09,17.73,3.14.96,6.94-1.49,8.88-4.09,5.29-7.11.28-20.34-4.78-21.15Z"/><path class="cls-4" d="m127.61,585.6c-3.3-.53-6.79,4.22-8.19,7.5-2.88,6.73-.82,16.23,4.09,17.73,3.14.96,6.94-1.49,8.88-4.09,5.29-7.11.28-20.34-4.78-21.15Z"/><path class="cls-4" d="m145.79,607.19c-3.3-.53-6.79,4.22-8.2,7.5-2.88,6.73-.81,16.24,4.09,17.73,3.14.96,6.94-1.49,8.88-4.09,5.29-7.11.28-20.34-4.78-21.15Z"/><path class="cls-4" d="m341.97,296.3c-3.3-.53-6.79,4.22-8.19,7.5-2.88,6.73-.82,16.23,4.09,17.73,3.14.96,6.94-1.49,8.88-4.09,5.29-7.11.28-20.34-4.78-21.15Z"/><path class="cls-4" d="m358.51,315.4c-3.3-.53-6.79,4.22-8.19,7.5-2.88,6.73-.82,16.23,4.09,17.73,3.14.96,6.94-1.49,8.88-4.09,5.29-7.11.28-20.34-4.78-21.15Z"/><path class="cls-4" d="m360.14,274.72c-3.3-.53-6.79,4.22-8.2,7.5-2.88,6.73-.81,16.23,4.09,17.73,3.14.96,6.94-1.49,8.88-4.09,5.29-7.11.28-20.34-4.78-21.15Z"/><path class="cls-4" d="m378.32,296.3c-3.3-.53-6.79,4.22-8.19,7.5-2.88,6.73-.82,16.23,4.09,17.73,3.14.96,6.94-1.49,8.88-4.09,5.29-7.11.28-20.34-4.78-21.15Z"/><path class="cls-4" d="m318.49,350.96c-3.3-.53-6.79,4.22-8.19,7.5-2.88,6.73-.82,16.23,4.09,17.73,3.14.96,6.94-1.49,8.88-4.09,5.29-7.11.28-20.34-4.78-21.15Z"/><path class="cls-4" d="m335.04,370.06c-3.3-.53-6.79,4.22-8.2,7.5-2.88,6.73-.82,16.23,4.09,17.73,3.14.96,6.94-1.49,8.88-4.09,5.29-7.11.28-20.34-4.78-21.15Z"/><path class="cls-4" d="m336.66,329.38c-3.3-.53-6.79,4.22-8.19,7.5-2.88,6.73-.82,16.24,4.09,17.73,3.14.96,6.94-1.49,8.88-4.09,5.29-7.11.28-20.34-4.78-21.15Z"/><path class="cls-4" d="m354.83,350.96c-3.3-.53-6.79,4.22-8.19,7.5-2.88,6.73-.82,16.23,4.09,17.73,3.14.96,6.94-1.49,8.88-4.09,5.29-7.11.28-20.34-4.78-21.15Z"/><path class="cls-4" d="m360.14,385.28c-3.3-.53-6.79,4.22-8.2,7.5-2.88,6.73-.81,16.23,4.09,17.73,3.14.96,6.94-1.49,8.88-4.09,5.29-7.11.28-20.34-4.78-21.15Z"/><path class="cls-4" d="m376.69,404.38c-3.3-.53-6.79,4.22-8.2,7.5-2.88,6.73-.82,16.24,4.09,17.73,3.14.96,6.94-1.49,8.88-4.09,5.29-7.11.28-20.34-4.78-21.15Z"/><path class="cls-4" d="m378.32,363.71c-3.3-.53-6.79,4.22-8.19,7.5-2.88,6.73-.82,16.24,4.09,17.73,3.14.96,6.94-1.49,8.88-4.09,5.29-7.11.28-20.34-4.78-21.15Z"/><path class="cls-4" d="m396.49,385.28c-3.3-.53-6.79,4.22-8.19,7.5-2.88,6.73-.82,16.23,4.09,17.73,3.14.96,6.94-1.49,8.88-4.09,5.29-7.11.28-20.34-4.78-21.15Z"/><path class="cls-4" d="m416.72,364.32c-3.3-.53-6.79,4.22-8.2,7.5-2.88,6.73-.81,16.23,4.09,17.73,3.14.96,6.94-1.49,8.88-4.09,5.29-7.11.28-20.34-4.78-21.15Z"/><path class="cls-4" d="m442.82,324.23c-3.3-.53-6.79,4.22-8.19,7.5-2.88,6.73-.82,16.23,4.09,17.73,3.14.96,6.94-1.49,8.88-4.09,5.29-7.11.28-20.34-4.78-21.15Z"/><path class="cls-4" d="m437.95,351.58c-3.3-.53-6.79,4.22-8.19,7.5-2.88,6.73-.82,16.23,4.09,17.73,3.14.96,6.94-1.49,8.88-4.09,5.29-7.11.28-20.34-4.78-21.15Z"/><path class="cls-4" d="m425.8,296.92c-3.3-.53-6.79,4.22-8.19,7.5-2.88,6.73-.82,16.23,4.09,17.73,3.14.96,6.94-1.49,8.88-4.09,5.29-7.11.28-20.34-4.78-21.15Z"/><path class="cls-4" d="m380.37,330.62c-3.3-.53-6.79,4.22-8.2,7.5-2.88,6.73-.82,16.23,4.09,17.73,3.14.96,6.94-1.49,8.88-4.09,5.29-7.11.28-20.34-4.78-21.15Z"/><path class="cls-4" d="m396.91,349.73c-3.3-.53-6.79,4.22-8.2,7.5-2.88,6.73-.82,16.23,4.09,17.73,3.14.96,6.94-1.49,8.88-4.09,5.29-7.11.28-20.34-4.78-21.15Z"/><path class="cls-4" d="m398.54,309.04c-3.3-.53-6.79,4.22-8.19,7.5-2.88,6.73-.82,16.24,4.09,17.73,3.14.96,6.94-1.49,8.88-4.09,5.29-7.11.28-20.34-4.78-21.15Z"/><path class="cls-4" d="m416.72,330.62c-3.3-.53-6.79,4.22-8.2,7.5-2.88,6.73-.81,16.23,4.09,17.73,3.14.96,6.94-1.49,8.88-4.09,5.29-7.11.28-20.34-4.78-21.15Z"/><path class="cls-4" d="m387.38,263.21c-3.3-.53-6.79,4.22-8.19,7.5-2.88,6.73-.82,16.24,4.09,17.73,3.14.96,6.94-1.49,8.88-4.09,5.29-7.11.28-20.34-4.78-21.15Z"/><path class="cls-4" d="m403.92,282.31c-3.3-.53-6.79,4.22-8.19,7.5-2.88,6.73-.82,16.24,4.09,17.73,3.14.96,6.94-1.49,8.88-4.09,5.29-7.11.28-20.34-4.78-21.15Z"/><path class="cls-4" d="m405.56,241.64c-3.3-.53-6.79,4.22-8.19,7.5-2.88,6.73-.82,16.24,4.09,17.73,3.14.96,6.94-1.49,8.88-4.09,5.29-7.11.28-20.34-4.78-21.15Z"/><path class="cls-4" d="m423.73,263.21c-3.3-.53-6.79,4.22-8.19,7.5-2.88,6.73-.82,16.24,4.09,17.73,3.14.96,6.94-1.49,8.88-4.09,5.29-7.11.28-20.34-4.78-21.15Z"/><path class="cls-4" d="m474.58,119.58c-3.3-.53-6.79,4.22-8.19,7.5-2.88,6.73-.82,16.24,4.09,17.73,3.14.96,6.94-1.49,8.88-4.09,5.29-7.11.28-20.34-4.78-21.15Z"/><path class="cls-4" d="m491.12,138.68c-3.3-.53-6.79,4.22-8.19,7.5-2.88,6.73-.82,16.23,4.09,17.73,3.14.96,6.94-1.49,8.88-4.09,5.29-7.11.28-20.34-4.78-21.15Z"/><path class="cls-4" d="m492.75,98.01c-3.3-.53-6.79,4.22-8.2,7.5-2.88,6.73-.82,16.23,4.09,17.73,3.14.96,6.94-1.49,8.88-4.09,5.29-7.11.28-20.34-4.78-21.15Z"/><path class="cls-4" d="m510.92,119.58c-3.3-.53-6.79,4.22-8.19,7.5-2.88,6.73-.82,16.24,4.09,17.73,3.14.96,6.94-1.49,8.88-4.09,5.29-7.11.28-20.34-4.78-21.15Z"/><path class="cls-4" d="m451.1,174.24c-3.3-.53-6.79,4.22-8.2,7.5-2.88,6.73-.82,16.24,4.09,17.73,3.14.96,6.94-1.49,8.88-4.09,5.29-7.11.28-20.34-4.78-21.15Z"/><path class="cls-4" d="m467.64,193.35c-3.3-.53-6.79,4.22-8.2,7.5-2.88,6.73-.82,16.23,4.09,17.73,3.14.96,6.94-1.49,8.88-4.09,5.29-7.11.28-20.34-4.78-21.15Z"/><path class="cls-4" d="m469.27,152.67c-3.3-.53-6.79,4.22-8.19,7.5-2.88,6.73-.82,16.23,4.09,17.73,3.14.96,6.94-1.49,8.88-4.09,5.29-7.11.28-20.34-4.78-21.15Z"/><path class="cls-4" d="m487.44,174.24c-3.3-.53-6.79,4.22-8.2,7.5-2.88,6.73-.81,16.24,4.09,17.73,3.14.96,6.94-1.49,8.88-4.09,5.29-7.11.28-20.34-4.78-21.15Z"/><path class="cls-4" d="m492.75,208.57c-3.3-.53-6.79,4.22-8.2,7.5-2.88,6.73-.82,16.23,4.09,17.73,3.14.96,6.94-1.49,8.88-4.09,5.29-7.11.28-20.34-4.78-21.15Z"/><path class="cls-4" d="m509.29,227.67c-3.3-.53-6.79,4.22-8.19,7.5-2.88,6.73-.82,16.23,4.09,17.73,3.14.96,6.94-1.49,8.88-4.09,5.29-7.11.28-20.34-4.78-21.15Z"/><path class="cls-4" d="m510.92,186.99c-3.3-.53-6.79,4.22-8.19,7.5-2.88,6.73-.82,16.24,4.09,17.73,3.14.96,6.94-1.49,8.88-4.09,5.29-7.11.28-20.34-4.78-21.15Z"/><path class="cls-4" d="m512.97,153.91c-3.3-.53-6.79,4.22-8.2,7.5-2.88,6.73-.82,16.23,4.09,17.73,3.14.96,6.94-1.49,8.88-4.09,5.29-7.11.28-20.34-4.78-21.15Z"/><path class="cls-4" d="m323.34,5.73c-3.3-.53-6.79,4.22-8.2,7.5-2.88,6.73-.82,16.23,4.09,17.73,3.14.96,6.94-1.49,8.88-4.09,5.29-7.11.28-20.34-4.78-21.15Z"/><path class="cls-4" d="m339.88,24.83c-3.3-.53-6.79,4.22-8.19,7.5-2.88,6.73-.82,16.23,4.09,17.73,3.14.96,6.94-1.49,8.88-4.09,5.29-7.11.28-20.34-4.78-21.15Z"/><path class="cls-4" d="m341.5-15.85c-3.3-.53-6.79,4.22-8.19,7.5-2.88,6.73-.82,16.23,4.09,17.73,3.14.96,6.94-1.49,8.88-4.09,5.29-7.11.28-20.34-4.78-21.15Z"/><path class="cls-4" d="m359.68,5.73c-3.3-.53-6.79,4.22-8.2,7.5-2.88,6.73-.82,16.23,4.09,17.73,3.14.96,6.94-1.49,8.88-4.09,5.29-7.11.28-20.34-4.78-21.15Z"/><path class="cls-4" d="m364.99,40.05c-3.3-.53-6.79,4.22-8.19,7.5-2.88,6.73-.82,16.23,4.09,17.73,3.14.96,6.94-1.49,8.88-4.09,5.29-7.11.28-20.34-4.78-21.15Z"/><path class="cls-4" d="m381.53,59.15c-3.3-.53-6.79,4.22-8.19,7.5-2.88,6.73-.82,16.23,4.09,17.73,3.14.96,6.94-1.49,8.88-4.09,5.29-7.11.28-20.34-4.78-21.15Z"/><path class="cls-4" d="m383.16,18.48c-3.3-.53-6.79,4.22-8.19,7.5-2.88,6.73-.82,16.23,4.09,17.73,3.14.96,6.94-1.49,8.88-4.09,5.29-7.11.28-20.34-4.78-21.15Z"/><path class="cls-4" d="m401.34,40.05c-3.3-.53-6.79,4.22-8.2,7.5-2.88,6.73-.82,16.23,4.09,17.73,3.14.96,6.94-1.49,8.88-4.09,5.29-7.11.28-20.34-4.78-21.15Z"/><path class="cls-4" d="m421.56,19.1c-3.3-.53-6.79,4.22-8.2,7.5-2.88,6.73-.82,16.23,4.09,17.73,3.14.96,6.94-1.49,8.88-4.09,5.29-7.11.28-20.34-4.78-21.15Z"/><path class="cls-4" d="m447.67-21c-3.3-.53-6.79,4.22-8.19,7.5-2.88,6.73-.82,16.23,4.09,17.73,3.14.96,6.94-1.49,8.88-4.09,5.29-7.11.28-20.34-4.78-21.15Z"/><path class="cls-4" d="m442.79,6.35c-3.3-.53-6.79,4.22-8.19,7.5-2.88,6.73-.82,16.23,4.09,17.73,3.14.96,6.94-1.49,8.88-4.09,5.29-7.11.28-20.34-4.78-21.15Z"/><path class="cls-4" d="m385.21-14.61c-3.3-.53-6.79,4.22-8.19,7.5-2.88,6.73-.82,16.23,4.09,17.73,3.14.96,6.94-1.49,8.88-4.09,5.29-7.11.28-20.34-4.78-21.15Z"/><path class="cls-4" d="m401.75,4.49c-3.3-.53-6.79,4.22-8.19,7.5-2.88,6.73-.82,16.23,4.09,17.73,3.14.96,6.94-1.49,8.88-4.09,5.29-7.11.28-20.34-4.78-21.15Z"/><path class="cls-4" d="m421.56-14.61c-3.3-.53-6.79,4.22-8.2,7.5-2.88,6.73-.82,16.23,4.09,17.73,3.14.96,6.94-1.49,8.88-4.09,5.29-7.11.28-20.34-4.78-21.15Z"/><path class="cls-4" d="m-2.07,146.88c-3.3-.53-6.79,4.22-8.19,7.5-2.88,6.73-.82,16.24,4.09,17.73,3.14.96,6.94-1.49,8.88-4.09,5.29-7.11.28-20.34-4.78-21.15Z"/><path class="cls-4" d="m-3.69,254.97c-3.3-.53-6.79,4.22-8.19,7.5-2.88,6.73-.82,16.23,4.09,17.73,3.14.96,6.94-1.49,8.88-4.09,5.29-7.11.28-20.34-4.78-21.15Z"/><path class="cls-4" d="m-2.07,214.3c-3.3-.53-6.79,4.22-8.19,7.5-2.88,6.73-.82,16.23,4.09,17.73,3.14.96,6.94-1.49,8.88-4.09,5.29-7.11.28-20.34-4.78-21.15Z"/><path class="cls-4" d="m16.11,235.87c-3.3-.53-6.79,4.22-8.19,7.5-2.88,6.73-.82,16.23,4.09,17.73,3.14.96,6.94-1.49,8.88-4.09,5.29-7.11.28-20.34-4.78-21.15Z"/><path class="cls-4" d="m36.33,214.92c-3.3-.53-6.79,4.22-8.19,7.5-2.88,6.73-.82,16.24,4.09,17.73,3.14.96,6.94-1.49,8.88-4.09,5.29-7.11.28-20.34-4.78-21.15Z"/><path class="cls-4" d="m62.45,174.82c-3.3-.53-6.79,4.22-8.19,7.5-2.88,6.73-.82,16.24,4.09,17.73,3.14.96,6.94-1.49,8.88-4.09,5.29-7.11.28-20.34-4.78-21.15Z"/><path class="cls-4" d="m57.57,202.17c-3.3-.53-6.79,4.22-8.19,7.5-2.88,6.73-.82,16.23,4.09,17.73,3.14.96,6.94-1.49,8.88-4.09,5.29-7.11.28-20.34-4.78-21.15Z"/><path class="cls-4" d="m45.42,147.5c-3.3-.53-6.79,4.22-8.19,7.5-2.88,6.73-.82,16.23,4.09,17.73,3.14.96,6.94-1.49,8.88-4.09,5.29-7.11.28-20.34-4.78-21.15Z"/><path class="cls-4" d="m-.01,181.21c-3.3-.53-6.79,4.22-8.19,7.5-2.88,6.73-.82,16.24,4.09,17.73,3.14.96,6.94-1.49,8.88-4.09,5.29-7.11.28-20.34-4.78-21.15Z"/><path class="cls-4" d="m16.53,200.31c-3.3-.53-6.79,4.22-8.19,7.5-2.88,6.73-.82,16.23,4.09,17.73,3.14.96,6.94-1.49,8.88-4.09,5.29-7.11.28-20.34-4.78-21.15Z"/><path class="cls-4" d="m18.16,159.63c-3.3-.53-6.79,4.22-8.19,7.5-2.88,6.73-.82,16.23,4.09,17.73,3.14.96,6.94-1.49,8.88-4.09,5.29-7.11.28-20.34-4.78-21.15Z"/><path class="cls-4" d="m36.33,181.21c-3.3-.53-6.79,4.22-8.19,7.5-2.88,6.73-.82,16.24,4.09,17.73,3.14.96,6.94-1.49,8.88-4.09,5.29-7.11.28-20.34-4.78-21.15Z"/><path class="cls-4" d="m7,113.8c-3.3-.53-6.79,4.22-8.19,7.5-2.88,6.73-.82,16.23,4.09,17.73,3.14.96,6.94-1.49,8.88-4.09,5.29-7.11.28-20.34-4.78-21.15Z"/><path class="cls-4" d="m23.55,132.9c-3.3-.53-6.79,4.22-8.19,7.5-2.88,6.73-.82,16.23,4.09,17.73,3.14.96,6.94-1.49,8.88-4.09,5.29-7.11.28-20.34-4.78-21.15Z"/><path class="cls-4" d="m25.18,92.22c-3.3-.53-6.79,4.22-8.19,7.5-2.88,6.73-.82,16.24,4.09,17.73,3.14.96,6.94-1.49,8.88-4.09,5.29-7.11.28-20.34-4.78-21.15Z"/><path class="cls-4" d="m43.35,113.8c-3.3-.53-6.79,4.22-8.19,7.5-2.88,6.73-.82,16.23,4.09,17.73,3.14.96,6.94-1.49,8.88-4.09,5.29-7.11.28-20.34-4.78-21.15Z"/><path class="cls-4" d="m212.44,145.67c-3.3-.53-6.79,4.22-8.19,7.5-2.88,6.73-.82,16.24,4.09,17.73,3.14.96,6.94-1.49,8.88-4.09,5.29-7.11.28-20.34-4.78-21.15Z"/><path class="cls-4" d="m228.98,164.76c-3.3-.53-6.79,4.22-8.19,7.5-2.88,6.73-.82,16.23,4.09,17.73,3.14.96,6.94-1.49,8.88-4.09,5.29-7.11.28-20.34-4.78-21.15Z"/><path class="cls-4" d="m230.61,124.09c-3.3-.53-6.79,4.22-8.19,7.5-2.88,6.73-.82,16.23,4.09,17.73,3.14.96,6.94-1.49,8.88-4.09,5.29-7.11.28-20.34-4.78-21.15Z"/><path class="cls-4" d="m248.79,145.67c-3.3-.53-6.79,4.22-8.2,7.5-2.88,6.73-.82,16.24,4.09,17.73,3.14.96,6.94-1.49,8.88-4.09,5.29-7.11.28-20.34-4.78-21.15Z"/><path class="cls-4" d="m188.95,200.33c-3.3-.53-6.79,4.22-8.19,7.5-2.88,6.73-.82,16.24,4.09,17.73,3.14.96,6.94-1.49,8.88-4.09,5.29-7.11.28-20.34-4.78-21.15Z"/><path class="cls-4" d="m205.5,219.43c-3.3-.53-6.79,4.22-8.19,7.5-2.88,6.73-.82,16.23,4.09,17.73,3.14.96,6.94-1.49,8.88-4.09,5.29-7.11.28-20.34-4.78-21.15Z"/><path class="cls-4" d="m207.13,178.75c-3.3-.53-6.79,4.22-8.2,7.5-2.88,6.73-.82,16.23,4.09,17.73,3.14.96,6.94-1.49,8.88-4.09,5.29-7.11.28-20.34-4.78-21.15Z"/><path class="cls-4" d="m225.3,200.33c-3.3-.53-6.79,4.22-8.19,7.5-2.88,6.73-.82,16.24,4.09,17.73,3.14.96,6.94-1.49,8.88-4.09,5.29-7.11.28-20.34-4.78-21.15Z"/><path class="cls-4" d="m230.61,234.65c-3.3-.53-6.79,4.22-8.19,7.5-2.88,6.73-.82,16.23,4.09,17.73,3.14.96,6.94-1.49,8.88-4.09,5.29-7.11.28-20.34-4.78-21.15Z"/><path class="cls-4" d="m247.16,253.75c-3.3-.53-6.79,4.22-8.2,7.5-2.88,6.73-.81,16.23,4.09,17.73,3.14.96,6.94-1.49,8.88-4.09,5.29-7.11.28-20.34-4.78-21.15Z"/><path class="cls-4" d="m248.79,213.07c-3.3-.53-6.79,4.22-8.2,7.5-2.88,6.73-.82,16.24,4.09,17.73,3.14.96,6.94-1.49,8.88-4.09,5.29-7.11.28-20.34-4.78-21.15Z"/><path class="cls-4" d="m266.96,234.65c-3.3-.53-6.79,4.22-8.19,7.5-2.88,6.73-.82,16.23,4.09,17.73,3.14.96,6.94-1.49,8.88-4.09,5.29-7.11.28-20.34-4.78-21.15Z"/><path class="cls-4" d="m287.18,213.69c-3.3-.53-6.79,4.22-8.19,7.5-2.88,6.73-.82,16.24,4.09,17.73,3.14.96,6.94-1.49,8.88-4.09,5.29-7.11.28-20.34-4.78-21.15Z"/><path class="cls-4" d="m313.29,173.6c-3.3-.53-6.79,4.22-8.2,7.5-2.88,6.73-.82,16.24,4.09,17.73,3.14.96,6.94-1.49,8.88-4.09,5.29-7.11.28-20.34-4.78-21.15Z"/><path class="cls-4" d="m308.42,200.95c-3.3-.53-6.79,4.22-8.19,7.5-2.88,6.73-.82,16.23,4.09,17.73,3.14.96,6.94-1.49,8.88-4.09,5.29-7.11.28-20.34-4.78-21.15Z"/><path class="cls-4" d="m296.27,146.29c-3.3-.53-6.79,4.22-8.19,7.5-2.88,6.73-.82,16.23,4.09,17.73,3.14.96,6.94-1.49,8.88-4.09,5.29-7.11.28-20.34-4.78-21.15Z"/><path class="cls-4" d="m250.84,179.99c-3.3-.53-6.79,4.22-8.19,7.5-2.88,6.73-.82,16.23,4.09,17.73,3.14.96,6.94-1.49,8.88-4.09,5.29-7.11.28-20.34-4.78-21.15Z"/><path class="cls-4" d="m267.38,199.09c-3.3-.53-6.79,4.22-8.2,7.5-2.88,6.73-.82,16.23,4.09,17.73,3.14.96,6.94-1.49,8.88-4.09,5.29-7.11.28-20.34-4.78-21.15Z"/><path class="cls-4" d="m269.01,158.41c-3.3-.53-6.79,4.22-8.19,7.5-2.88,6.73-.82,16.23,4.09,17.73,3.14.96,6.94-1.49,8.88-4.09,5.29-7.11.28-20.34-4.78-21.15Z"/><path class="cls-4" d="m287.18,179.99c-3.3-.53-6.79,4.22-8.19,7.5-2.88,6.73-.82,16.23,4.09,17.73,3.14.96,6.94-1.49,8.88-4.09,5.29-7.11.28-20.34-4.78-21.15Z"/><path class="cls-4" d="m257.85,112.58c-3.3-.53-6.79,4.22-8.2,7.5-2.88,6.73-.82,16.23,4.09,17.73,3.14.96,6.94-1.49,8.88-4.09,5.29-7.11.28-20.34-4.78-21.15Z"/><path class="cls-4" d="m274.39,131.68c-3.3-.53-6.79,4.22-8.19,7.5-2.88,6.73-.82,16.23,4.09,17.73,3.14.96,6.94-1.49,8.88-4.09,5.29-7.11.28-20.34-4.78-21.15Z"/><path class="cls-4" d="m276.02,91.01c-3.3-.53-6.79,4.22-8.19,7.5-2.88,6.73-.82,16.24,4.09,17.73,3.14.96,6.94-1.49,8.88-4.09,5.29-7.11.28-20.34-4.78-21.15Z"/><path class="cls-4" d="m294.2,112.58c-3.3-.53-6.79,4.22-8.2,7.5-2.88,6.73-.82,16.23,4.09,17.73,3.14.96,6.94-1.49,8.88-4.09,5.29-7.11.28-20.34-4.78-21.15Z"/><path class="cls-4" d="m110.74-10.73c-3.3-.53-6.79,4.22-8.19,7.5-2.88,6.73-.82,16.23,4.09,17.73,3.14.96,6.94-1.49,8.88-4.09,5.29-7.11.28-20.34-4.78-21.15Z"/><path class="cls-4" d="m70.71,24.83c-3.3-.53-6.79,4.22-8.19,7.5-2.88,6.73-.82,16.23,4.09,17.73,3.14.96,6.94-1.49,8.88-4.09,5.29-7.11.28-20.34-4.78-21.15Z"/><path class="cls-4" d="m87.26,43.93c-3.3-.53-6.79,4.22-8.19,7.5-2.88,6.73-.82,16.23,4.09,17.73,3.14.96,6.94-1.49,8.88-4.09,5.29-7.11.28-20.34-4.78-21.15Z"/><path class="cls-4" d="m88.89,3.25c-3.3-.53-6.79,4.22-8.19,7.5-2.88,6.73-.82,16.23,4.09,17.73,3.14.96,6.94-1.49,8.88-4.09,5.29-7.11.28-20.34-4.78-21.15Z"/><path class="cls-4" d="m107.06,24.83c-3.3-.53-6.79,4.22-8.19,7.5-2.88,6.73-.82,16.23,4.09,17.73,3.14.96,6.94-1.49,8.88-4.09,5.29-7.11.28-20.34-4.78-21.15Z"/><path class="cls-4" d="m112.37,59.15c-3.3-.53-6.79,4.22-8.19,7.5-2.88,6.73-.82,16.23,4.09,17.73,3.14.96,6.94-1.49,8.88-4.09,5.29-7.11.28-20.34-4.78-21.15Z"/><path class="cls-4" d="m128.92,78.26c-3.3-.53-6.79,4.22-8.2,7.5-2.88,6.73-.82,16.23,4.09,17.73,3.14.96,6.94-1.49,8.88-4.09,5.29-7.11.28-20.34-4.78-21.15Z"/><path class="cls-4" d="m130.54,37.58c-3.3-.53-6.79,4.22-8.19,7.5-2.88,6.73-.82,16.23,4.09,17.73,3.14.96,6.94-1.49,8.88-4.09,5.29-7.11.28-20.34-4.78-21.15Z"/><path class="cls-4" d="m148.71,59.15c-3.3-.53-6.79,4.22-8.19,7.5-2.88,6.73-.82,16.23,4.09,17.73,3.14.96,6.94-1.49,8.88-4.09,5.29-7.11.28-20.34-4.78-21.15Z"/><path class="cls-4" d="m168.94,38.2c-3.3-.53-6.79,4.22-8.19,7.5-2.88,6.73-.82,16.23,4.09,17.73,3.14.96,6.94-1.49,8.88-4.09,5.29-7.11.28-20.34-4.78-21.15Z"/><path class="cls-4" d="m195.05-1.9c-3.3-.53-6.79,4.22-8.19,7.5-2.88,6.73-.82,16.23,4.09,17.73,3.14.96,6.94-1.49,8.88-4.09,5.29-7.11.28-20.34-4.78-21.15Z"/><path class="cls-4" d="m190.18,25.45c-3.3-.53-6.79,4.22-8.19,7.5-2.88,6.73-.82,16.23,4.09,17.73,3.14.96,6.94-1.49,8.88-4.09,5.29-7.11.28-20.34-4.78-21.15Z"/><path class="cls-4" d="m132.59,4.49c-3.3-.53-6.79,4.22-8.2,7.5-2.88,6.73-.81,16.23,4.09,17.73,3.14.96,6.94-1.49,8.88-4.09,5.29-7.11.28-20.34-4.78-21.15Z"/><path class="cls-4" d="m149.14,23.59c-3.3-.53-6.79,4.22-8.2,7.5-2.88,6.73-.82,16.23,4.09,17.73,3.14.96,6.94-1.49,8.88-4.09,5.29-7.11.28-20.34-4.78-21.15Z"/><path class="cls-4" d="m150.77-17.08c-3.3-.53-6.79,4.22-8.19,7.5-2.88,6.73-.82,16.23,4.09,17.73,3.14.96,6.94-1.49,8.88-4.09,5.29-7.11.28-20.34-4.78-21.15Z"/><path class="cls-4" d="m168.94,4.49c-3.3-.53-6.79,4.22-8.19,7.5-2.88,6.73-.82,16.23,4.09,17.73,3.14.96,6.94-1.49,8.88-4.09,5.29-7.11.28-20.34-4.78-21.15Z"/><path class="cls-4" d="m430.59,471.15c-3.3-.53-6.79,4.22-8.19,7.5-2.88,6.73-.82,16.23,4.09,17.73,3.14.96,6.94-1.49,8.88-4.09,5.29-7.11.28-20.34-4.78-21.15Z"/><path class="cls-4" d="m447.13,490.25c-3.3-.53-6.79,4.22-8.2,7.5-2.88,6.73-.82,16.23,4.09,17.73,3.14.96,6.94-1.49,8.88-4.09,5.29-7.11.28-20.34-4.78-21.15Z"/><path class="cls-4" d="m448.76,449.57c-3.3-.53-6.79,4.22-8.2,7.5-2.88,6.73-.82,16.24,4.09,17.73,3.14.96,6.94-1.49,8.88-4.09,5.29-7.11.28-20.34-4.78-21.15Z"/><path class="cls-4" d="m466.93,471.15c-3.3-.53-6.79,4.22-8.19,7.5-2.88,6.73-.82,16.23,4.09,17.73,3.14.96,6.94-1.49,8.88-4.09,5.29-7.11.28-20.34-4.78-21.15Z"/><path class="cls-4" d="m407.1,525.81c-3.3-.53-6.79,4.22-8.19,7.5-2.88,6.73-.82,16.23,4.09,17.73,3.14.96,6.94-1.49,8.88-4.09,5.29-7.11.28-20.34-4.78-21.15Z"/><path class="cls-4" d="m423.64,544.91c-3.3-.53-6.79,4.22-8.19,7.5-2.88,6.73-.82,16.23,4.09,17.73,3.14.96,6.94-1.49,8.88-4.09,5.29-7.11.28-20.34-4.78-21.15Z"/><path class="cls-4" d="m425.27,504.24c-3.3-.53-6.79,4.22-8.19,7.5-2.88,6.73-.82,16.24,4.09,17.73,3.14.96,6.94-1.49,8.88-4.09,5.29-7.11.28-20.34-4.78-21.15Z"/><path class="cls-4" d="m443.45,525.81c-3.3-.53-6.79,4.22-8.2,7.5-2.88,6.73-.82,16.23,4.09,17.73,3.14.96,6.94-1.49,8.88-4.09,5.29-7.11.28-20.34-4.78-21.15Z"/><path class="cls-4" d="m448.76,560.14c-3.3-.53-6.79,4.22-8.2,7.5-2.88,6.73-.82,16.24,4.09,17.73,3.14.96,6.94-1.49,8.88-4.09,5.29-7.11.28-20.34-4.78-21.15Z"/><path class="cls-4" d="m465.3,579.24c-3.3-.53-6.79,4.22-8.19,7.5-2.88,6.73-.82,16.24,4.09,17.73,3.14.96,6.94-1.49,8.88-4.09,5.29-7.11.28-20.34-4.78-21.15Z"/><path class="cls-4" d="m466.93,538.55c-3.3-.53-6.79,4.22-8.19,7.5-2.88,6.73-.82,16.23,4.09,17.73,3.14.96,6.94-1.49,8.88-4.09,5.29-7.11.28-20.34-4.78-21.15Z"/><path class="cls-4" d="m485.11,560.14c-3.3-.53-6.79,4.22-8.2,7.5-2.88,6.73-.82,16.24,4.09,17.73,3.14.96,6.94-1.49,8.88-4.09,5.29-7.11.28-20.34-4.78-21.15Z"/><path class="cls-4" d="m505.33,539.18c-3.3-.53-6.79,4.22-8.2,7.5-2.88,6.73-.82,16.23,4.09,17.73,3.14.96,6.94-1.49,8.88-4.09,5.29-7.11.28-20.34-4.78-21.15Z"/><path class="cls-4" d="m514.41,471.77c-3.3-.53-6.79,4.22-8.2,7.5-2.88,6.73-.81,16.24,4.09,17.73,3.14.96,6.94-1.49,8.88-4.09,5.29-7.11.28-20.34-4.78-21.15Z"/><path class="cls-4" d="m468.98,505.47c-3.3-.53-6.79,4.22-8.19,7.5-2.88,6.73-.82,16.23,4.09,17.73,3.14.96,6.94-1.49,8.88-4.09,5.29-7.11.28-20.34-4.78-21.15Z"/><path class="cls-4" d="m485.52,524.57c-3.3-.53-6.79,4.22-8.19,7.5-2.88,6.73-.82,16.24,4.09,17.73,3.14.96,6.94-1.49,8.88-4.09,5.29-7.11.28-20.34-4.78-21.15Z"/><path class="cls-4" d="m487.16,483.9c-3.3-.53-6.79,4.22-8.19,7.5-2.88,6.73-.82,16.24,4.09,17.73,3.14.96,6.94-1.49,8.88-4.09,5.29-7.11.28-20.34-4.78-21.15Z"/><path class="cls-4" d="m505.33,505.47c-3.3-.53-6.79,4.22-8.2,7.5-2.88,6.73-.82,16.23,4.09,17.73,3.14.96,6.94-1.49,8.88-4.09,5.29-7.11.28-20.34-4.78-21.15Z"/><path class="cls-4" d="m476,438.06c-3.3-.53-6.79,4.22-8.19,7.5-2.88,6.73-.82,16.24,4.09,17.73,3.14.96,6.94-1.49,8.88-4.09,5.29-7.11.28-20.34-4.78-21.15Z"/><path class="cls-4" d="m492.54,457.16c-3.3-.53-6.79,4.22-8.2,7.5-2.88,6.73-.81,16.24,4.09,17.73,3.14.96,6.94-1.49,8.88-4.09,5.29-7.11.28-20.34-4.78-21.15Z"/><path class="cls-4" d="m494.17,416.48c-3.3-.53-6.79,4.22-8.2,7.5-2.88,6.73-.82,16.23,4.09,17.73,3.14.96,6.94-1.49,8.88-4.09,5.29-7.11.28-20.34-4.78-21.15Z"/><path class="cls-4" d="m512.35,438.06c-3.3-.53-6.79,4.22-8.19,7.5-2.88,6.73-.82,16.24,4.09,17.73,3.14.96,6.94-1.49,8.88-4.09,5.29-7.11.28-20.34-4.78-21.15Z"/></g></g><path class="cls-4" d="m252.68,502.01c-131.57,0-238.3,106.63-238.3,238.2h476.4c.1-131.57-106.63-238.2-238.1-238.2Z"/><path class="cls-6" d="m31.64,683.04h.29c6.04-7.96,14.1-13.81,25.6-13.81,12.95,0,20.9,8.06,20.9,20.62v34.91c0,4.22,1.73,5.85,5.85,5.85h8.25v9.69h-42.96v-9.69h5.56c4.12,0,5.85-1.63,5.85-5.85v-33.66c0-7.48-5.18-10.26-12.95-10.26s-16.49,8.06-16.49,21v22.92c0,4.22,1.73,5.85,5.85,5.85h5.75v9.69H0v-9.69h8.34c4.12,0,5.85-1.63,5.85-5.85v-66.36c0-4.22-1.73-5.85-5.85-5.85H0v-9.78h31.64v40.28Z"/><path class="cls-6" d="m99.15,740.29v-9.69h6.81c4.12,0,5.85-1.63,5.85-5.85v-37.69c0-4.22-1.73-5.85-5.85-5.85h-6.81v-9.69h30.01v53.22c0,4.22,1.73,5.85,5.85,5.85h7.19v9.69h-43.06Zm19.47-99.35c5.75,0,10.55,4.7,10.55,10.55s-4.89,10.55-10.55,10.55-10.55-4.7-10.55-10.55,4.79-10.55,10.55-10.55Z"/><path class="cls-6" d="m147.77,740.29v-9.69h7.19c4.12,0,5.85-1.63,5.85-5.85v-66.36c0-4.22-1.73-5.85-5.85-5.85h-7.19v-9.78h30.49v81.99c0,4.22,1.73,5.85,5.85,5.85h6.9v9.69h-43.25Z"/><path class="cls-6" d="m196.77,740.29v-9.69h7.19c4.12,0,5.85-1.63,5.85-5.85v-66.36c0-4.22-1.73-5.85-5.85-5.85h-7.19v-9.78h30.49v81.99c0,4.22,1.73,5.85,5.85,5.85h6.9v9.69h-43.25Z"/><path class="cls-6" d="m290.37,681.12v-9.3c15.06-1.05,18.8-14.29,20.14-27.81h9.11v27.33h19.47v9.78h-18.99v43.44c0,2.97,1.63,4.89,5.56,4.89,4.6,0,6.33-2.49,6.33-8.34v-13.14h9.69v12.37c0,15.44-8.53,22.25-20.14,22.25s-18.8-4.6-18.8-16.3v-45.07h-12.37v-.1Z"/><path class="cls-6" d="m385.4,669.23c22.06,0,37.78,13.23,37.78,36.63s-15.73,36.63-37.78,36.63-37.78-13.23-37.78-36.63,15.73-36.63,37.78-36.63Zm0,63.58c11.89,0,18.12-9.3,18.12-26.95s-6.14-26.95-18.12-26.95-18.12,9.3-18.12,26.95,6.23,26.95,18.12,26.95Z"/><path class="cls-6" d="m455.4,683.52h.29c5.85-9.97,13.43-14.29,23.11-14.29,20.43,0,29.15,18.51,29.15,36.63s-8.63,36.63-29.15,36.63c-11.6,0-19.75-7.19-22.82-12.66h-.48v25.41c0,4.41,1.34,6.52,5.85,6.52h9.3v9.69h-46.51v-9.69h8.06c4.6,0,5.85-2.01,5.85-6.52v-67.7c0-4.41-1.34-6.52-5.85-6.52h-7.67v-9.69h30.88v12.18Zm.48,22.34c0,16.88,7.38,25.12,17.26,25.12,8.34,0,15.15-8.73,15.15-25.12,0-18.8-7.1-25.12-15.15-25.12-9.88,0-17.26,8.25-17.26,25.12Z"/><path class="cls-6" d="m110.37,791.13v-3.26h2.88c1.25,0,2.11-.48,2.11-1.92v-18.99c0-1.34-.58-1.92-2.4-1.92h-2.59v-3.26h16.3v3.26h-2.49c-1.92,0-2.59.48-2.59,2.01v20.9h7.29c4.6,0,5.66-2.49,6.04-9.4h3.26v12.66h-27.81v-.1Z"/><path class="cls-6" d="m139.91,791.13v-3.26c2.4,0,3.93-.29,4.7-2.4l8.44-23.78h6.23l8.92,23.78c.77,2.11,2.3,2.4,4.7,2.4v3.26h-15.44v-3.26h3.55c1.05,0,1.34-.19,1.34-.67,0-.38-.1-.77-.19-1.05l-1.44-4.41h-10.07l-1.44,4.41c-.1.29-.19.58-.19.96,0,.58.58.77,1.44.77h3.45v3.26h-14Zm19.47-12.75l-3.84-10.74h-.1l-3.55,10.74h7.48Z"/><path class="cls-6" d="m213.27,764.95c-2.3,0-3.16.38-3.74,2.49l-7,23.69h-5.85l-4.7-15.25h-.1l-5.18,15.25h-5.95l-7.29-24.84c-.29-.86-.77-1.34-3.16-1.34v-3.26h12.85v3.26h-1.82c-.96,0-1.34.58-1.34,1.15,0,.48.19.96.38,1.63l4.32,16.01h.1l5.18-15.06-.77-2.11c-.48-1.25-1.25-1.63-2.21-1.63h-1.44v-3.26h13.23v3.26h-1.92c-.96,0-1.63.29-1.63.86,0,.29.1.77.38,1.53l4.79,16.01h.1l4.41-15.73c.1-.38.29-.96.29-1.44,0-.77-.58-1.25-2.11-1.25h-1.92v-3.26h12.18v3.26h-.1Z"/><path class="cls-6" d="m224.49,767.25h0l-.1,18.8c0,1.05.67,1.82,1.82,1.82h3.36v3.26h-14.67v-3.26h3.07c1.34,0,1.82-.67,1.82-1.82v-19.47c0-1.15-.48-1.63-1.82-1.63h-3.07v-3.26h13.14l12.95,21.19h.1v-15.82c0-1.34-.67-2.11-2.3-2.11h-2.69v-3.26h14.48v3.26h-2.59c-1.63,0-2.21.67-2.21,1.53v24.64h-6.62l-14.67-23.88Z"/><path class="cls-6" d="m289.31,761.21h3.16v12.18h-3.26c-.58-4.89-3.07-8.82-8.44-8.82-6.52,0-8.15,5.95-8.15,11.79s1.82,11.79,8.15,11.79c5.08,0,7.48-3.55,7.96-8.25h3.84c-.58,7.77-4.99,12.08-12.75,12.08-9.3,0-14.19-6.62-14.19-16.01,0-8.34,5.47-15.15,14.77-15.15,2.88,0,6.14,1.34,8.06,3.26l.86-2.88Z"/><path class="cls-6" d="m295.06,791.13v-3.26c2.4,0,3.93-.29,4.7-2.4l8.44-23.78h6.23l8.92,23.78c.77,2.11,2.3,2.4,4.7,2.4v3.26h-15.44v-3.26h3.55c1.05,0,1.34-.19,1.34-.67,0-.38-.1-.77-.19-1.05l-1.44-4.41h-10.07l-1.44,4.41c-.1.29-.19.58-.19.96,0,.58.58.77,1.44.77h3.45v3.26h-14Zm19.37-12.75l-3.84-10.74h-.1l-3.55,10.74h7.48Z"/><path class="cls-6" d="m329.87,791.13v-3.26h3.07c1.34,0,1.82-.48,1.82-1.63v-19.66c0-1.15-.48-1.63-1.82-1.63h-3.07v-3.26h19.37c6.42,0,9.49,2.49,9.49,7.38,0,4.6-3.84,6.81-8.34,7.19v.1c4.7.58,5.75,2.59,5.75,6.04,0,4.7,1.05,5.47,1.82,5.47,1.05,0,1.53-.96,1.53-3.55v-1.34h2.97v1.34c0,5.66-2.4,7.77-6.14,7.77-4.41,0-5.75-2.4-5.75-6.04,0-7.1-1.63-8.63-6.81-8.63h-2.59v8.92c0,1.15.48,1.63,1.82,1.63h3.26v3.26h-16.4v-.1Zm11.22-17.16h5.27c4.79,0,6.14-1.53,6.14-4.89,0-2.78-1.82-4.32-5.75-4.32h-5.66v9.21Z"/><path class="cls-6" d="m364.2,791.13v-3.26h2.49c1.53,0,2.4-.48,2.4-3.07v-17.26c0-1.92-.58-2.49-2.88-2.49h-2.01v-3.26h29.25v11.7h-3.26c-.67-6.04-1.25-8.44-7.19-8.44h-7.77v9.21h2.4c2.69,0,3.84-1.34,3.84-4.89v-.58h3.26v14.86h-3.26v-1.05c0-3.64-1.25-4.99-3.84-4.99h-2.4v10.36h8.92c4.12,0,5.66-2.49,6.04-9.11h3.26v12.47h-29.25v-.19Z"/></svg>