<?xml version="1.0" encoding="UTF-8"?><svg id="Layer_1" xmlns="http://www.w3.org/2000/svg" xmlns:xlink="http://www.w3.org/1999/xlink" viewBox="0 0 507.95 725.72"><defs><style>.cls-1{clip-path:url(#clippath);}.cls-2{fill:none;}.cls-2,.cls-3,.cls-4,.cls-5,.cls-6{stroke-width:0px;}.cls-7{mask:url(#mask);}.cls-8{clip-path:url(#clippath-1);}.cls-9{mask:url(#mask-1);}.cls-3{fill:#21431e;}.cls-4{fill:#c50;}.cls-5{fill:#98be94;}.cls-6{fill:#fff;}</style><clipPath id="clippath"><rect class="cls-2" x="-554.95" y="-9" width="524.48" height="745.15"/></clipPath><mask id="mask" x="-618.83" y="-204.14" width="679.49" height="1102.1" maskUnits="userSpaceOnUse"/><clipPath id="clippath-1"><rect class="cls-2" x="-8.51" y="-8.98" width="524.48" height="745.15"/></clipPath><mask id="mask-1" x="-72.39" y="-204.12" width="679.49" height="1102.1" maskUnits="userSpaceOnUse"><g id="mask0_148_1231"><path class="cls-6" d="m522.52-17.32H-16.07v760.04h538.59V-17.32Z"/></g></mask></defs><g class="cls-1"><g class="cls-7"><path class="cls-3" d="m-40.78,442.72c1.99,3.41,19.06.46,30.95-10.03,6.78-5.97,18.59-20.33,13.1-32.3-2.8-6.11-9.72-10.73-16.67-10.74-10.04,0-18.15,9.61-20.48,17.91-2.59,9.18,2.69,13.86-1.19,24.14-2.66,7.04-6.77,9.19-5.7,11.02h0Z"/><path class="cls-3" d="m-139.77,447.63c-12.4,6.91-2.93,68.37,33.99,111.73,21.04,24.72,71.87,68.07,115.28,49.18,22.18-9.65,39.25-34.16,39.73-59.1.7-36.03-33.35-65.75-63.02-74.7-32.82-9.9-50.04,8.72-86.75-5.88-25.14-10-32.6-24.91-39.23-21.21h0Z"/><path class="cls-3" d="m16.94,139.48c13.46-4.52,15.44-66.66-12.88-116.06C-12.08-4.73-54.08-56.67-100.23-46.06c-23.57,5.42-44.86,26.39-49.91,50.81-7.31,35.29,20.7,70.75,48.21,84.99,30.45,15.76,50.79.6,84.19,21.69,22.87,14.44,27.47,30.46,34.67,28.04Z"/><path class="cls-3" d="m-143.51,199.16c-11.05,8.91,8.69,67.87,52.42,104.37,24.93,20.8,82.36,54.95,121.95,28.98,20.22-13.26,32.9-40.31,29.14-64.97-5.41-35.63-44.01-59.17-74.76-62.98-34.03-4.21-47.84,17.05-86.5,8.86-26.46-5.6-36.35-19.04-42.26-14.28h0Z"/></g></g><g class="cls-8"><g class="cls-9"><path class="cls-5" d="m522.52-15.53H-15.07v758.25h537.59V-15.53Z"/><path class="cls-3" d="m100.62,281.52c-6.18-12.78-68.15-6.96-113.66,27.29-25.95,19.52-72.27,67.65-55.96,112.06,8.33,22.69,31.83,41.16,56.72,43.12,35.96,2.82,67.68-29.37,78.38-58.43,11.84-32.15-5.75-50.41,11.01-86.16,11.47-24.48,26.81-31.04,23.51-37.87h0Z"/><path class="cls-3" d="m186.54,305.57c-3.72,1.33-3.94,18.64,4.2,32.23,4.64,7.75,16.61,21.98,29.39,18.78,6.53-1.64,12.34-7.58,13.62-14.41,1.84-9.86-6.14-19.58-13.87-23.39-8.56-4.22-14.14.1-23.54-5.59-6.44-3.89-7.81-8.33-9.8-7.62h0Z"/><path class="cls-3" d="m126.95,253.88c3.9.63,12.46-14.41,11.91-30.24-.31-9.02-3.9-27.26-16.64-30.64-6.51-1.73-14.47.68-18.9,6.04-6.39,7.74-4.1,20.11.82,27.18,5.45,7.83,12.43,6.74,17.91,16.26,3.76,6.52,2.8,11.06,4.89,11.4h0Z"/><path class="cls-3" d="m206.28,175.38c3.74-1.28,4.19-18.58-3.77-32.28-4.54-7.81-16.32-22.19-29.14-19.17-6.56,1.55-12.44,7.42-13.81,14.23-1.97,9.83,5.88,19.66,13.56,23.58,8.5,4.34,14.14.09,23.47,5.9,6.39,3.98,7.7,8.43,9.7,7.75h0Z"/><path class="cls-3" d="m191.7,273.31c4.36,13.51,66.54,16.26,116.33-11.39,28.39-15.77,80.91-57.07,70.86-103.3-5.13-23.62-25.85-45.14-50.23-50.5-35.23-7.74-71.08,19.79-85.69,47.09-16.16,30.21-1.25,50.73-22.77,83.83-14.74,22.67-30.84,27.06-28.51,34.27h0Z"/><path class="cls-3" d="m41.33-36.18C28.29-41.8-14.72,3.15-26.64,58.82c-6.8,31.73-10.23,98.4,31.21,121.28,21.18,11.69,51.03,10.27,71.13-4.55,29.02-21.4,31.87-66.48,20.89-95.44C84.45,48.07,59.18,45.8,48.4,7.82c-7.39-26-.09-41-7.07-44h0Z"/><path class="cls-3" d="m106.35,45.57c-1.94,3.44,9.24,16.66,24.32,21.6,8.59,2.82,26.96,5.74,34.52-5.05,3.86-5.51,4.35-13.8.85-19.8-5.07-8.66-17.48-10.78-25.82-8.6-9.24,2.41-10.61,9.33-21.45,11.19-7.42,1.27-11.36-1.19-12.4.65h0Z"/><path class="cls-3" d="m89.11,17.82c12.15,7.35,60.93-31.26,80.41-84.75,11.1-30.49,23.7-96.06-14.2-124.42-19.36-14.49-49.13-17.19-71.07-5.28-31.69,17.2-40.73,61.47-33.85,91.66,7.61,33.4,32.33,39.14,37.78,78.23,3.73,26.77-5.55,40.62.94,44.55h0Z"/><path class="cls-3" d="m295.94-152.1c-12.64-6.46-58.52,35.56-74.1,90.31-8.88,31.21-16.71,97.52,23.14,123.07,20.36,13.05,50.25,13.61,71.26.15,30.37-19.44,36.19-64.24,27.15-93.85-10-32.77-35.07-36.71-43.31-75.32-5.65-26.43,2.61-40.92-4.15-44.37h0Z"/><path class="cls-3" d="m477.28,432.85c11.33-8.55-6.52-68.12-49.06-105.99-24.25-21.59-80.57-57.54-120.97-32.86-20.64,12.61-34.16,39.24-31.21,64.01,4.27,35.78,42.1,60.54,72.71,65.33,33.88,5.3,48.36-15.51,86.74-6.11,26.28,6.45,35.72,20.19,41.78,15.62h0Z"/><path class="cls-3" d="m374,448.9c-2.03-3.38-19.06-.21-30.81,10.43-6.7,6.07-18.32,20.57-12.67,32.47,2.88,6.08,9.86,10.6,16.81,10.52,10.04-.12,18.01-9.85,20.25-18.17,2.47-9.21-2.87-13.83.87-24.16,2.56-7.07,6.65-9.28,5.56-11.09h0Z"/><path class="cls-3" d="m505.66,442.73c1.99,3.41,19.06.46,30.95-10.03,6.78-5.97,18.59-20.33,13.1-32.3-2.8-6.11-9.72-10.73-16.67-10.74-10.04,0-18.15,9.61-20.48,17.91-2.59,9.18,2.69,13.86-1.19,24.14-2.66,7.04-6.77,9.19-5.7,11.02h0Z"/><path class="cls-3" d="m406.67,447.65c-12.4,6.91-2.93,68.37,33.99,111.73,21.04,24.72,71.87,68.07,115.28,49.18,22.18-9.65,39.25-34.16,39.73-59.1.7-36.03-33.35-65.75-63.02-74.7-32.82-9.9-50.04,8.72-86.75-5.88-25.14-10-32.6-24.91-39.23-21.21h0Z"/><path class="cls-3" d="m280.99,761.63c10.3,9.77,66.2-17.57,96.64-65.69,17.35-27.43,43.64-88.81,12.65-124.59-15.83-18.27-44.34-27.24-68.31-20.28-34.64,10.06-52.9,51.39-52.62,82.35.31,34.25,23.24,45.12,20.22,84.48-2.07,26.95-14.09,38.51-8.58,43.73h0Z"/><path class="cls-3" d="m248.24,662.48c3.01-2.56-2.91-18.82-15.34-28.66-7.09-5.61-23.32-14.69-34.14-7.18-5.53,3.83-8.86,11.45-7.64,18.29,1.76,9.87,12.68,16.15,21.26,16.98,9.5.92,13.18-5.09,24-3.09,7.41,1.37,10.25,5.04,11.86,3.67Z"/><path class="cls-3" d="m254.83,694.47c-8.86-11.09-67.99,8.3-104.77,51.77-20.96,24.78-55.46,81.97-29.7,121.66,13.16,20.28,40.17,33.09,64.87,29.48,35.69-5.2,59.48-43.62,63.46-74.32,4.41-33.98-16.8-47.89-8.38-86.46,5.76-26.41,19.26-36.2,14.53-42.13h0Z"/><path class="cls-3" d="m143.52,605.14c11.19,8.74,64.2-23.84,89.88-74.65,14.63-28.97,34.91-92.58.62-125.22-17.51-16.67-46.75-22.87-69.95-13.64-33.51,13.34-47.72,56.23-44.46,87.02,3.61,34.07,27.46,42.69,28.25,82.15.53,27.02-10.32,39.68-4.34,44.35h0Z"/><path class="cls-3" d="m101.39,509.59c2.75-2.84-4.71-18.45-18.03-27.06-7.59-4.9-24.62-12.38-34.67-3.87-5.14,4.35-7.72,12.25-5.84,18.93,2.7,9.66,14.17,14.85,22.79,14.87,9.54,0,12.64-6.33,23.59-5.38,7.5.65,10.69,4.02,12.16,2.51Z"/><path class="cls-3" d="m429.29,659.31c-1.74,3.54,10.19,16.1,25.52,20.16,8.74,2.31,27.25,4.17,34.17-7.03,3.54-5.73,3.55-14.04-.31-19.81-5.57-8.35-18.07-9.75-26.28-7.1-9.08,2.94-10.06,9.93-20.77,12.41-7.34,1.7-11.41-.52-12.34,1.37Z"/><path class="cls-3" d="m111.02,540.8c-9.88-10.19-66.88,14.79-99.32,61.58-18.49,26.68-47.33,86.91-17.87,123.95,15.05,18.92,43.16,29.08,67.4,23.13,35.02-8.61,55.01-49.13,56.02-80.07,1.13-34.24-21.32-46.05-16.66-85.25,3.2-26.84,15.69-37.88,10.41-43.33h0Z"/><path class="cls-3" d="m563.37,139.5c13.46-4.52,15.44-66.66-12.88-116.06-16.14-28.15-58.14-80.1-104.28-69.49-23.57,5.42-44.86,26.39-49.91,50.81-7.31,35.29,20.7,70.75,48.21,84.99,30.45,15.76,50.79.6,84.19,21.69,22.87,14.44,27.47,30.46,34.67,28.04Z"/><path class="cls-3" d="m460.32,122c-.85-3.86-18.01-6.24-32.54.13-8.27,3.63-23.91,13.71-22.33,26.78.81,6.68,5.99,13.19,12.6,15.3,9.56,3.06,20.21-3.63,24.97-10.82,5.27-7.95,1.67-14.02,8.5-22.64,4.68-5.89,9.25-6.69,8.79-8.75h0Z"/><path class="cls-3" d="m402.92,199.18c-11.05,8.91,8.69,67.87,52.42,104.37,24.93,20.8,82.36,54.95,121.95,28.98,20.22-13.26,32.9-40.31,29.14-64.97-5.41-35.63-44.01-59.17-74.76-62.98-34.03-4.21-47.84,17.05-86.5,8.86-26.46-5.6-36.35-19.04-42.26-14.28h0Z"/><path class="cls-4" d="m2.69,553.78c-3.3-.53-6.79,4.22-8.19,7.5-2.88,6.73-.82,16.23,4.09,17.73,3.14.96,6.94-1.49,8.88-4.09,5.29-7.11.28-20.34-4.78-21.15Z"/><path class="cls-4" d="m22.91,532.82c-3.3-.53-6.79,4.22-8.19,7.5-2.88,6.73-.82,16.23,4.09,17.73,3.14.96,6.94-1.49,8.88-4.09,5.29-7.11.28-20.34-4.78-21.15Z"/><path class="cls-4" d="m49.02,492.72c-3.3-.53-6.79,4.22-8.19,7.5-2.88,6.73-.82,16.23,4.09,17.73,3.14.96,6.94-1.49,8.88-4.09,5.29-7.11.28-20.34-4.78-21.15Z"/><path class="cls-4" d="m44.14,520.07c-3.3-.53-6.79,4.22-8.19,7.5-2.88,6.73-.82,16.23,4.09,17.73,3.14.96,6.94-1.49,8.88-4.09,5.29-7.11.28-20.34-4.78-21.15Z"/><path class="cls-4" d="m31.99,465.41c-3.3-.53-6.79,4.22-8.19,7.5-2.88,6.73-.82,16.23,4.09,17.73,3.14.96,6.94-1.49,8.88-4.09,5.29-7.11.28-20.34-4.78-21.15Z"/><path class="cls-4" d="m3.1,518.22c-3.3-.53-6.79,4.22-8.2,7.5-2.88,6.73-.82,16.23,4.09,17.73,3.14.96,6.94-1.49,8.88-4.09,5.29-7.11.28-20.34-4.78-21.15Z"/><path class="cls-4" d="m4.74,477.54c-3.3-.53-6.79,4.22-8.19,7.5-2.88,6.73-.82,16.23,4.09,17.73,3.14.96,6.94-1.49,8.88-4.09,5.29-7.11.28-20.34-4.78-21.15Z"/><path class="cls-4" d="m22.91,499.11c-3.3-.53-6.79,4.22-8.19,7.5-2.88,6.73-.82,16.23,4.09,17.73,3.14.96,6.94-1.49,8.88-4.09,5.29-7.11.28-20.34-4.78-21.15Z"/><path class="cls-4" d="m-6.42,431.7c-3.3-.53-6.79,4.22-8.19,7.5-2.88,6.73-.82,16.23,4.09,17.73,3.14.96,6.94-1.49,8.88-4.09,5.29-7.11.28-20.34-4.78-21.15Z"/><path class="cls-4" d="m10.12,450.8c-3.3-.53-6.79,4.22-8.19,7.5-2.88,6.73-.82,16.24,4.09,17.73,3.14.96,6.94-1.49,8.88-4.09,5.29-7.11.28-20.34-4.78-21.15Z"/><path class="cls-4" d="m11.75,410.13c-3.3-.53-6.79,4.22-8.19,7.5-2.88,6.73-.82,16.24,4.09,17.73,3.14.96,6.94-1.49,8.88-4.09,5.29-7.11.28-20.34-4.78-21.15Z"/><path class="cls-4" d="m29.93,431.7c-3.3-.53-6.79,4.22-8.19,7.5-2.88,6.73-.82,16.23,4.09,17.73,3.14.96,6.94-1.49,8.88-4.09,5.29-7.11.28-20.34-4.78-21.15Z"/><path class="cls-4" d="m199.02,463.57c-3.3-.53-6.79,4.22-8.2,7.5-2.88,6.73-.81,16.24,4.09,17.73,3.14.96,6.94-1.49,8.88-4.09,5.29-7.11.28-20.34-4.78-21.15Z"/><path class="cls-4" d="m215.56,482.67c-3.3-.53-6.79,4.22-8.2,7.5-2.88,6.73-.82,16.23,4.09,17.73,3.14.96,6.94-1.49,8.88-4.09,5.29-7.11.28-20.34-4.78-21.15Z"/><path class="cls-4" d="m217.19,441.99c-3.3-.53-6.79,4.22-8.19,7.5-2.88,6.73-.82,16.23,4.09,17.73,3.14.96,6.94-1.49,8.88-4.09,5.29-7.11.28-20.34-4.78-21.15Z"/><path class="cls-4" d="m235.36,463.57c-3.3-.53-6.79,4.22-8.19,7.5-2.88,6.73-.82,16.24,4.09,17.73,3.14.96,6.94-1.49,8.88-4.09,5.29-7.11.28-20.34-4.78-21.15Z"/><path class="cls-4" d="m175.53,518.23c-3.3-.53-6.79,4.22-8.19,7.5-2.88,6.73-.82,16.23,4.09,17.73,3.14.96,6.94-1.49,8.88-4.09,5.29-7.11.28-20.34-4.78-21.15Z"/><path class="cls-4" d="m192.08,537.33c-3.3-.53-6.79,4.22-8.19,7.5-2.88,6.73-.82,16.23,4.09,17.73,3.14.96,6.94-1.49,8.88-4.09,5.29-7.11.28-20.34-4.78-21.15Z"/><path class="cls-4" d="m193.71,496.65c-3.3-.53-6.79,4.22-8.19,7.5-2.88,6.73-.82,16.23,4.09,17.73,3.14.96,6.94-1.49,8.88-4.09,5.29-7.11.28-20.34-4.78-21.15Z"/><path class="cls-4" d="m211.88,518.23c-3.3-.53-6.79,4.22-8.2,7.5-2.88,6.73-.82,16.23,4.09,17.73,3.14.96,6.94-1.49,8.88-4.09,5.29-7.11.28-20.34-4.78-21.15Z"/><path class="cls-4" d="m217.19,552.56c-3.3-.53-6.79,4.22-8.19,7.5-2.88,6.73-.82,16.23,4.09,17.73,3.14.96,6.94-1.49,8.88-4.09,5.29-7.11.28-20.34-4.78-21.15Z"/><path class="cls-4" d="m233.74,571.66c-3.3-.53-6.79,4.22-8.19,7.5-2.88,6.73-.82,16.23,4.09,17.73,3.14.96,6.94-1.49,8.88-4.09,5.29-7.11.28-20.34-4.78-21.15Z"/><path class="cls-4" d="m235.36,530.98c-3.3-.53-6.79,4.22-8.19,7.5-2.88,6.73-.82,16.24,4.09,17.73,3.14.96,6.94-1.49,8.88-4.09,5.29-7.11.28-20.34-4.78-21.15Z"/><path class="cls-4" d="m253.53,552.56c-3.3-.53-6.79,4.22-8.19,7.5-2.88,6.73-.82,16.23,4.09,17.73,3.14.96,6.94-1.49,8.88-4.09,5.29-7.11.28-20.34-4.78-21.15Z"/><path class="cls-4" d="m273.76,531.6c-3.3-.53-6.79,4.22-8.19,7.5-2.88,6.73-.82,16.23,4.09,17.73,3.14.96,6.94-1.49,8.88-4.09,5.29-7.11.28-20.34-4.78-21.15Z"/><path class="cls-4" d="m299.87,491.5c-3.3-.53-6.79,4.22-8.19,7.5-2.88,6.73-.82,16.23,4.09,17.73,3.14.96,6.94-1.49,8.88-4.09,5.29-7.11.28-20.34-4.78-21.15Z"/><path class="cls-4" d="m295,518.86c-3.3-.53-6.79,4.22-8.2,7.5-2.88,6.73-.81,16.23,4.09,17.73,3.14.96,6.94-1.49,8.88-4.09,5.29-7.11.28-20.34-4.78-21.15Z"/><path class="cls-4" d="m282.85,464.19c-3.3-.53-6.79,4.22-8.2,7.5-2.88,6.73-.82,16.23,4.09,17.73,3.14.96,6.94-1.49,8.88-4.09,5.29-7.11.28-20.34-4.78-21.15Z"/><path class="cls-4" d="m237.41,497.89c-3.3-.53-6.79,4.22-8.19,7.5-2.88,6.73-.82,16.23,4.09,17.73,3.14.96,6.94-1.49,8.88-4.09,5.29-7.11.28-20.34-4.78-21.15Z"/><path class="cls-4" d="m253.96,516.99c-3.3-.53-6.79,4.22-8.19,7.5-2.88,6.73-.82,16.23,4.09,17.73,3.14.96,6.94-1.49,8.88-4.09,5.29-7.11.28-20.34-4.78-21.15Z"/><path class="cls-4" d="m255.59,476.32c-3.3-.53-6.79,4.22-8.19,7.5-2.88,6.73-.82,16.24,4.09,17.73,3.14.96,6.94-1.49,8.88-4.09,5.29-7.11.28-20.34-4.78-21.15Z"/><path class="cls-4" d="m273.76,497.89c-3.3-.53-6.79,4.22-8.19,7.5-2.88,6.73-.82,16.23,4.09,17.73,3.14.96,6.94-1.49,8.88-4.09,5.29-7.11.28-20.34-4.78-21.15Z"/><path class="cls-4" d="m244.43,430.49c-3.3-.53-6.79,4.22-8.19,7.5-2.88,6.73-.82,16.23,4.09,17.73,3.14.96,6.94-1.49,8.88-4.09,5.29-7.11.28-20.34-4.78-21.15Z"/><path class="cls-4" d="m260.97,449.59c-3.3-.53-6.79,4.22-8.2,7.5-2.88,6.73-.82,16.24,4.09,17.73,3.14.96,6.94-1.49,8.88-4.09,5.29-7.11.28-20.34-4.78-21.15Z"/><path class="cls-4" d="m262.6,408.91c-3.3-.53-6.79,4.22-8.2,7.5-2.88,6.73-.82,16.24,4.09,17.73,3.14.96,6.94-1.49,8.88-4.09,5.29-7.11.28-20.34-4.78-21.15Z"/><path class="cls-4" d="m280.78,430.49c-3.3-.53-6.79,4.22-8.19,7.5-2.88,6.73-.82,16.23,4.09,17.73,3.14.96,6.94-1.49,8.88-4.09,5.29-7.11.28-20.34-4.78-21.15Z"/><path class="cls-4" d="m80.77,288.07c-3.3-.53-6.79,4.22-8.19,7.5-2.88,6.73-.82,16.24,4.09,17.73,3.14.96,6.94-1.49,8.88-4.09,5.29-7.11.28-20.34-4.78-21.15Z"/><path class="cls-4" d="m97.31,307.17c-3.3-.53-6.79,4.22-8.19,7.5-2.88,6.73-.82,16.23,4.09,17.73,3.14.96,6.94-1.49,8.88-4.09,5.29-7.11.28-20.34-4.78-21.15Z"/><path class="cls-4" d="m98.94,266.5c-3.3-.53-6.79,4.22-8.19,7.5-2.88,6.73-.82,16.23,4.09,17.73,3.14.96,6.94-1.49,8.88-4.09,5.29-7.11.28-20.34-4.78-21.15Z"/><path class="cls-4" d="m117.12,288.07c-3.3-.53-6.79,4.22-8.2,7.5-2.88,6.73-.81,16.24,4.09,17.73,3.14.96,6.94-1.49,8.88-4.09,5.29-7.11.28-20.34-4.78-21.15Z"/><path class="cls-4" d="m57.29,342.73c-3.3-.53-6.79,4.22-8.19,7.5-2.88,6.73-.82,16.24,4.09,17.73,3.14.96,6.94-1.49,8.88-4.09,5.29-7.11.28-20.34-4.78-21.15Z"/><path class="cls-4" d="m73.84,361.84c-3.3-.53-6.79,4.22-8.19,7.5-2.88,6.73-.82,16.23,4.09,17.73,3.14.96,6.94-1.49,8.88-4.09,5.29-7.11.28-20.34-4.78-21.15Z"/><path class="cls-4" d="m75.47,321.16c-3.3-.53-6.79,4.22-8.19,7.5-2.88,6.73-.82,16.23,4.09,17.73,3.14.96,6.94-1.49,8.88-4.09,5.29-7.11.28-20.34-4.78-21.15Z"/><path class="cls-4" d="m93.64,342.73c-3.3-.53-6.79,4.22-8.19,7.5-2.88,6.73-.82,16.24,4.09,17.73,3.14.96,6.94-1.49,8.88-4.09,5.29-7.11.28-20.34-4.78-21.15Z"/><path class="cls-4" d="m98.94,377.06c-3.3-.53-6.79,4.22-8.19,7.5-2.88,6.73-.82,16.23,4.09,17.73,3.14.96,6.94-1.49,8.88-4.09,5.29-7.11.28-20.34-4.78-21.15Z"/><path class="cls-4" d="m115.49,396.16c-3.3-.53-6.79,4.22-8.19,7.5-2.88,6.73-.82,16.23,4.09,17.73,3.14.96,6.94-1.49,8.88-4.09,5.29-7.11.28-20.34-4.78-21.15Z"/><path class="cls-4" d="m117.12,355.48c-3.3-.53-6.79,4.22-8.2,7.5-2.88,6.73-.81,16.23,4.09,17.73,3.14.96,6.94-1.49,8.88-4.09,5.29-7.11.28-20.34-4.78-21.15Z"/><path class="cls-4" d="m135.29,377.06c-3.3-.53-6.79,4.22-8.19,7.5-2.88,6.73-.82,16.23,4.09,17.73,3.14.96,6.94-1.49,8.88-4.09,5.29-7.11.28-20.34-4.78-21.15Z"/><path class="cls-4" d="m155.52,356.1c-3.3-.53-6.79,4.22-8.19,7.5-2.88,6.73-.82,16.24,4.09,17.73,3.14.96,6.94-1.49,8.88-4.09,5.29-7.11.28-20.34-4.78-21.15Z"/><path class="cls-4" d="m181.62,316.01c-3.3-.53-6.79,4.22-8.2,7.5-2.88,6.73-.82,16.24,4.09,17.73,3.14.96,6.94-1.49,8.88-4.09,5.29-7.11.28-20.34-4.78-21.15Z"/><path class="cls-4" d="m176.75,343.35c-3.3-.53-6.79,4.22-8.2,7.5-2.88,6.73-.82,16.23,4.09,17.73,3.14.96,6.94-1.49,8.88-4.09,5.29-7.11.28-20.34-4.78-21.15Z"/><path class="cls-4" d="m164.61,288.7c-3.3-.53-6.79,4.22-8.2,7.5-2.88,6.73-.82,16.23,4.09,17.73,3.14.96,6.94-1.49,8.88-4.09,5.29-7.11.28-20.34-4.78-21.15Z"/><path class="cls-4" d="m119.17,322.4c-3.3-.53-6.79,4.22-8.19,7.5-2.88,6.73-.82,16.23,4.09,17.73,3.14.96,6.94-1.49,8.88-4.09,5.29-7.11.28-20.34-4.78-21.15Z"/><path class="cls-4" d="m135.72,341.5c-3.3-.53-6.79,4.22-8.19,7.5-2.88,6.73-.82,16.23,4.09,17.73,3.14.96,6.94-1.49,8.88-4.09,5.29-7.11.28-20.34-4.78-21.15Z"/><path class="cls-4" d="m137.34,300.82c-3.3-.53-6.79,4.22-8.2,7.5-2.88,6.73-.82,16.23,4.09,17.73,3.14.96,6.94-1.49,8.88-4.09,5.29-7.11.28-20.34-4.78-21.15Z"/><path class="cls-4" d="m155.52,322.4c-3.3-.53-6.79,4.22-8.19,7.5-2.88,6.73-.82,16.23,4.09,17.73,3.14.96,6.94-1.49,8.88-4.09,5.29-7.11.28-20.34-4.78-21.15Z"/><path class="cls-4" d="m126.18,254.99c-3.3-.53-6.79,4.22-8.2,7.5-2.88,6.73-.82,16.23,4.09,17.73,3.14.96,6.94-1.49,8.88-4.09,5.29-7.11.28-20.34-4.78-21.15Z"/><path class="cls-4" d="m142.73,274.09c-3.3-.53-6.79,4.22-8.2,7.5-2.88,6.73-.82,16.23,4.09,17.73,3.14.96,6.94-1.49,8.88-4.09,5.29-7.11.28-20.34-4.78-21.15Z"/><path class="cls-4" d="m144.36,233.42c-3.3-.53-6.79,4.22-8.19,7.5-2.88,6.73-.82,16.24,4.09,17.73,3.14.96,6.94-1.49,8.88-4.09,5.29-7.11.28-20.34-4.78-21.15Z"/><path class="cls-4" d="m162.53,254.99c-3.3-.53-6.79,4.22-8.2,7.5-2.88,6.73-.81,16.23,4.09,17.73,3.14.96,6.94-1.49,8.88-4.09,5.29-7.11.28-20.34-4.78-21.15Z"/><path class="cls-4" d="m305.11,645.42c-3.3-.53-6.79,4.22-8.2,7.5-2.88,6.73-.81,16.24,4.09,17.73,3.14.96,6.94-1.49,8.88-4.09,5.29-7.11.28-20.34-4.78-21.15Z"/><path class="cls-4" d="m321.65,664.52c-3.3-.53-6.79,4.22-8.2,7.5-2.88,6.73-.82,16.24,4.09,17.73,3.14.96,6.94-1.49,8.88-4.09,5.29-7.11.28-20.34-4.78-21.15Z"/><path class="cls-4" d="m323.28,623.85c-3.3-.53-6.79,4.22-8.19,7.5-2.88,6.73-.82,16.23,4.09,17.73,3.14.96,6.94-1.49,8.88-4.09,5.29-7.11.28-20.34-4.78-21.15Z"/><path class="cls-4" d="m341.45,645.42c-3.3-.53-6.79,4.22-8.2,7.5-2.88,6.73-.81,16.24,4.09,17.73,3.14.96,6.94-1.49,8.88-4.09,5.29-7.11.28-20.34-4.78-21.15Z"/><path class="cls-4" d="m281.62,700.09c-3.3-.53-6.79,4.22-8.19,7.5-2.88,6.73-.82,16.24,4.09,17.73,3.14.96,6.94-1.49,8.88-4.09,5.29-7.11.28-20.34-4.78-21.15Z"/><path class="cls-4" d="m298.17,719.19c-3.3-.53-6.79,4.22-8.19,7.5-2.88,6.73-.82,16.23,4.09,17.73,3.14.96,6.94-1.49,8.88-4.09,5.29-7.11.28-20.34-4.78-21.15Z"/><path class="cls-4" d="m299.8,678.51c-3.3-.53-6.79,4.22-8.19,7.5-2.88,6.73-.82,16.23,4.09,17.73,3.14.96,6.94-1.49,8.88-4.09,5.29-7.11.28-20.34-4.78-21.15Z"/><path class="cls-4" d="m317.97,700.09c-3.3-.53-6.79,4.22-8.2,7.5-2.88,6.73-.82,16.24,4.09,17.73,3.14.96,6.94-1.49,8.88-4.09,5.29-7.11.28-20.34-4.78-21.15Z"/><path class="cls-4" d="m341.45,712.83c-3.3-.53-6.79,4.22-8.2,7.5-2.88,6.73-.81,16.24,4.09,17.73,3.14.96,6.94-1.49,8.88-4.09,5.29-7.11.28-20.34-4.78-21.15Z"/><path class="cls-4" d="m379.85,713.45c-3.3-.53-6.79,4.22-8.19,7.5-2.88,6.73-.82,16.24,4.09,17.73,3.14.96,6.94-1.49,8.88-4.09,5.29-7.11.28-20.34-4.78-21.15Z"/><path class="cls-4" d="m405.96,673.35c-3.3-.53-6.79,4.22-8.2,7.5-2.88,6.73-.81,16.24,4.09,17.73,3.14.96,6.94-1.49,8.88-4.09,5.29-7.11.28-20.34-4.78-21.15Z"/><path class="cls-4" d="m401.09,700.7c-3.3-.53-6.79,4.22-8.2,7.5-2.88,6.73-.81,16.23,4.09,17.73,3.14.96,6.94-1.49,8.88-4.09,5.29-7.11.28-20.34-4.78-21.15Z"/><path class="cls-4" d="m388.94,646.04c-3.3-.53-6.79,4.22-8.2,7.5-2.88,6.73-.82,16.23,4.09,17.73,3.14.96,6.94-1.49,8.88-4.09,5.29-7.11.28-20.34-4.78-21.15Z"/><path class="cls-4" d="m343.5,679.75c-3.3-.53-6.79,4.22-8.19,7.5-2.88,6.73-.82,16.24,4.09,17.73,3.14.96,6.94-1.49,8.88-4.09,5.29-7.11.28-20.34-4.78-21.15Z"/><path class="cls-4" d="m360.05,698.85c-3.3-.53-6.79,4.22-8.19,7.5-2.88,6.73-.82,16.23,4.09,17.73,3.14.96,6.94-1.49,8.88-4.09,5.29-7.11.28-20.34-4.78-21.15Z"/><path class="cls-4" d="m361.67,658.17c-3.3-.53-6.79,4.22-8.2,7.5-2.88,6.73-.82,16.23,4.09,17.73,3.14.96,6.94-1.49,8.88-4.09,5.29-7.11.28-20.34-4.78-21.15Z"/><path class="cls-4" d="m379.85,679.75c-3.3-.53-6.79,4.22-8.19,7.5-2.88,6.73-.82,16.24,4.09,17.73,3.14.96,6.94-1.49,8.88-4.09,5.29-7.11.28-20.34-4.78-21.15Z"/><path class="cls-4" d="m350.52,612.33c-3.3-.53-6.79,4.22-8.19,7.5-2.88,6.73-.82,16.23,4.09,17.73,3.14.96,6.94-1.49,8.88-4.09,5.29-7.11.28-20.34-4.78-21.15Z"/><path class="cls-4" d="m367.06,631.44c-3.3-.53-6.79,4.22-8.2,7.5-2.88,6.73-.82,16.23,4.09,17.73,3.14.96,6.94-1.49,8.88-4.09,5.29-7.11.28-20.34-4.78-21.15Z"/><path class="cls-4" d="m368.69,590.76c-3.3-.53-6.79,4.22-8.19,7.5-2.88,6.73-.82,16.24,4.09,17.73,3.14.96,6.94-1.49,8.88-4.09,5.29-7.11.28-20.34-4.78-21.15Z"/><path class="cls-4" d="m386.86,612.33c-3.3-.53-6.79,4.22-8.19,7.5-2.88,6.73-.82,16.23,4.09,17.73,3.14.96,6.94-1.49,8.88-4.09,5.29-7.11.28-20.34-4.78-21.15Z"/><path class="cls-4" d="m64.51,640.28c-3.3-.53-6.79,4.22-8.19,7.5-2.88,6.73-.82,16.23,4.09,17.73,3.14.96,6.94-1.49,8.88-4.09,5.29-7.11.28-20.34-4.78-21.15Z"/><path class="cls-4" d="m81.05,659.39c-3.3-.53-6.79,4.22-8.19,7.5-2.88,6.73-.82,16.23,4.09,17.73,3.14.96,6.94-1.49,8.88-4.09,5.29-7.11.28-20.34-4.78-21.15Z"/><path class="cls-4" d="m82.69,618.71c-3.3-.53-6.79,4.22-8.19,7.5-2.88,6.73-.82,16.24,4.09,17.73,3.14.96,6.94-1.49,8.88-4.09,5.29-7.11.28-20.34-4.78-21.15Z"/><path class="cls-4" d="m100.86,640.28c-3.3-.53-6.79,4.22-8.2,7.5-2.88,6.73-.82,16.23,4.09,17.73,3.14.96,6.94-1.49,8.88-4.09,5.29-7.11.28-20.34-4.78-21.15Z"/><path class="cls-4" d="m41.03,694.95c-3.3-.53-6.79,4.22-8.19,7.5-2.88,6.73-.82,16.23,4.09,17.73,3.14.96,6.94-1.49,8.88-4.09,5.29-7.11.28-20.34-4.78-21.15Z"/><path class="cls-4" d="m57.58,714.05c-3.3-.53-6.79,4.22-8.19,7.5-2.88,6.73-.82,16.23,4.09,17.73,3.14.96,6.94-1.49,8.88-4.09,5.29-7.11.28-20.34-4.78-21.15Z"/><path class="cls-4" d="m59.2,673.37c-3.3-.53-6.79,4.22-8.19,7.5-2.88,6.73-.82,16.24,4.09,17.73,3.14.96,6.94-1.49,8.88-4.09,5.29-7.11.28-20.34-4.78-21.15Z"/><path class="cls-4" d="m77.38,694.95c-3.3-.53-6.79,4.22-8.19,7.5-2.88,6.73-.82,16.23,4.09,17.73,3.14.96,6.94-1.49,8.88-4.09,5.29-7.11.28-20.34-4.78-21.15Z"/><path class="cls-4" d="m100.86,707.7c-3.3-.53-6.79,4.22-8.2,7.5-2.88,6.73-.82,16.24,4.09,17.73,3.14.96,6.94-1.49,8.88-4.09,5.29-7.11.28-20.34-4.78-21.15Z"/><path class="cls-4" d="m139.26,708.32c-3.3-.53-6.79,4.22-8.19,7.5-2.88,6.73-.82,16.23,4.09,17.73,3.14.96,6.94-1.49,8.88-4.09,5.29-7.11.28-20.34-4.78-21.15Z"/><path class="cls-4" d="m165.36,668.22c-3.3-.53-6.79,4.22-8.2,7.5-2.88,6.73-.82,16.23,4.09,17.73,3.14.96,6.94-1.49,8.88-4.09,5.29-7.11.28-20.34-4.78-21.15Z"/><path class="cls-4" d="m160.49,695.57c-3.3-.53-6.79,4.22-8.2,7.5-2.88,6.73-.82,16.24,4.09,17.73,3.14.96,6.94-1.49,8.88-4.09,5.29-7.11.28-20.34-4.78-21.15Z"/><path class="cls-4" d="m148.34,640.9c-3.3-.53-6.79,4.22-8.19,7.5-2.88,6.73-.82,16.23,4.09,17.73,3.14.96,6.94-1.49,8.88-4.09,5.29-7.11.28-20.34-4.78-21.15Z"/><path class="cls-4" d="m102.91,674.61c-3.3-.53-6.79,4.22-8.19,7.5-2.88,6.73-.82,16.23,4.09,17.73,3.14.96,6.94-1.49,8.88-4.09,5.29-7.11.28-20.34-4.78-21.15Z"/><path class="cls-4" d="m119.45,693.71c-3.3-.53-6.79,4.22-8.19,7.5-2.88,6.73-.82,16.24,4.09,17.73,3.14.96,6.94-1.49,8.88-4.09,5.29-7.11.28-20.34-4.78-21.15Z"/><path class="cls-4" d="m121.08,653.03c-3.3-.53-6.79,4.22-8.2,7.5-2.88,6.73-.82,16.24,4.09,17.73,3.14.96,6.94-1.49,8.88-4.09,5.29-7.11.28-20.34-4.78-21.15Z"/><path class="cls-4" d="m139.26,674.61c-3.3-.53-6.79,4.22-8.19,7.5-2.88,6.73-.82,16.23,4.09,17.73,3.14.96,6.94-1.49,8.88-4.09,5.29-7.11.28-20.34-4.78-21.15Z"/><path class="cls-4" d="m109.92,607.2c-3.3-.53-6.79,4.22-8.2,7.5-2.88,6.73-.82,16.24,4.09,17.73,3.14.96,6.94-1.49,8.88-4.09,5.29-7.11.28-20.34-4.78-21.15Z"/><path class="cls-4" d="m126.47,626.3c-3.3-.53-6.79,4.22-8.2,7.5-2.88,6.73-.82,16.24,4.09,17.73,3.14.96,6.94-1.49,8.88-4.09,5.29-7.11.28-20.34-4.78-21.15Z"/><path class="cls-4" d="m128.1,585.62c-3.3-.53-6.79,4.22-8.19,7.5-2.88,6.73-.82,16.23,4.09,17.73,3.14.96,6.94-1.49,8.88-4.09,5.29-7.11.28-20.34-4.78-21.15Z"/><path class="cls-4" d="m146.27,607.2c-3.3-.53-6.79,4.22-8.2,7.5-2.88,6.73-.81,16.24,4.09,17.73,3.14.96,6.94-1.49,8.88-4.09,5.29-7.11.28-20.34-4.78-21.15Z"/><path class="cls-4" d="m342.46,296.32c-3.3-.53-6.79,4.22-8.19,7.5-2.88,6.73-.82,16.23,4.09,17.73,3.14.96,6.94-1.49,8.88-4.09,5.29-7.11.28-20.34-4.78-21.15Z"/><path class="cls-4" d="m359,315.42c-3.3-.53-6.79,4.22-8.19,7.5-2.88,6.73-.82,16.23,4.09,17.73,3.14.96,6.94-1.49,8.88-4.09,5.29-7.11.28-20.34-4.78-21.15Z"/><path class="cls-4" d="m360.63,274.74c-3.3-.53-6.79,4.22-8.2,7.5-2.88,6.73-.81,16.23,4.09,17.73,3.14.96,6.94-1.49,8.88-4.09,5.29-7.11.28-20.34-4.78-21.15Z"/><path class="cls-4" d="m378.8,296.32c-3.3-.53-6.79,4.22-8.19,7.5-2.88,6.73-.82,16.23,4.09,17.73,3.14.96,6.94-1.49,8.88-4.09,5.29-7.11.28-20.34-4.78-21.15Z"/><path class="cls-4" d="m318.98,350.98c-3.3-.53-6.79,4.22-8.19,7.5-2.88,6.73-.82,16.23,4.09,17.73,3.14.96,6.94-1.49,8.88-4.09,5.29-7.11.28-20.34-4.78-21.15Z"/><path class="cls-4" d="m335.52,370.08c-3.3-.53-6.79,4.22-8.2,7.5-2.88,6.73-.82,16.23,4.09,17.73,3.14.96,6.94-1.49,8.88-4.09,5.29-7.11.28-20.34-4.78-21.15Z"/><path class="cls-4" d="m337.14,329.4c-3.3-.53-6.79,4.22-8.19,7.5-2.88,6.73-.82,16.24,4.09,17.73,3.14.96,6.94-1.49,8.88-4.09,5.29-7.11.28-20.34-4.78-21.15Z"/><path class="cls-4" d="m355.32,350.98c-3.3-.53-6.79,4.22-8.19,7.5-2.88,6.73-.82,16.23,4.09,17.73,3.14.96,6.94-1.49,8.88-4.09,5.29-7.11.28-20.34-4.78-21.15Z"/><path class="cls-4" d="m360.63,385.3c-3.3-.53-6.79,4.22-8.2,7.5-2.88,6.73-.81,16.23,4.09,17.73,3.14.96,6.94-1.49,8.88-4.09,5.29-7.11.28-20.34-4.78-21.15Z"/><path class="cls-4" d="m377.17,404.4c-3.3-.53-6.79,4.22-8.2,7.5-2.88,6.73-.82,16.24,4.09,17.73,3.14.96,6.94-1.49,8.88-4.09,5.29-7.11.28-20.34-4.78-21.15Z"/><path class="cls-4" d="m378.8,363.72c-3.3-.53-6.79,4.22-8.19,7.5-2.88,6.73-.82,16.24,4.09,17.73,3.14.96,6.94-1.49,8.88-4.09,5.29-7.11.28-20.34-4.78-21.15Z"/><path class="cls-4" d="m396.98,385.3c-3.3-.53-6.79,4.22-8.19,7.5-2.88,6.73-.82,16.23,4.09,17.73,3.14.96,6.94-1.49,8.88-4.09,5.29-7.11.28-20.34-4.78-21.15Z"/><path class="cls-4" d="m417.2,364.34c-3.3-.53-6.79,4.22-8.2,7.5-2.88,6.73-.81,16.23,4.09,17.73,3.14.96,6.94-1.49,8.88-4.09,5.29-7.11.28-20.34-4.78-21.15Z"/><path class="cls-4" d="m443.31,324.24c-3.3-.53-6.79,4.22-8.19,7.5-2.88,6.73-.82,16.23,4.09,17.73,3.14.96,6.94-1.49,8.88-4.09,5.29-7.11.28-20.34-4.78-21.15Z"/><path class="cls-4" d="m438.43,351.6c-3.3-.53-6.79,4.22-8.19,7.5-2.88,6.73-.82,16.23,4.09,17.73,3.14.96,6.94-1.49,8.88-4.09,5.29-7.11.28-20.34-4.78-21.15Z"/><path class="cls-4" d="m426.28,296.93c-3.3-.53-6.79,4.22-8.19,7.5-2.88,6.73-.82,16.23,4.09,17.73,3.14.96,6.94-1.49,8.88-4.09,5.29-7.11.28-20.34-4.78-21.15Z"/><path class="cls-4" d="m380.85,330.64c-3.3-.53-6.79,4.22-8.2,7.5-2.88,6.73-.82,16.23,4.09,17.73,3.14.96,6.94-1.49,8.88-4.09,5.29-7.11.28-20.34-4.78-21.15Z"/><path class="cls-4" d="m397.4,349.74c-3.3-.53-6.79,4.22-8.2,7.5-2.88,6.73-.82,16.23,4.09,17.73,3.14.96,6.94-1.49,8.88-4.09,5.29-7.11.28-20.34-4.78-21.15Z"/><path class="cls-4" d="m399.03,309.06c-3.3-.53-6.79,4.22-8.19,7.5-2.88,6.73-.82,16.24,4.09,17.73,3.14.96,6.94-1.49,8.88-4.09,5.29-7.11.28-20.34-4.78-21.15Z"/><path class="cls-4" d="m417.2,330.64c-3.3-.53-6.79,4.22-8.2,7.5-2.88,6.73-.81,16.23,4.09,17.73,3.14.96,6.94-1.49,8.88-4.09,5.29-7.11.28-20.34-4.78-21.15Z"/><path class="cls-4" d="m387.87,263.23c-3.3-.53-6.79,4.22-8.19,7.5-2.88,6.73-.82,16.24,4.09,17.73,3.14.96,6.94-1.49,8.88-4.09,5.29-7.11.28-20.34-4.78-21.15Z"/><path class="cls-4" d="m404.41,282.33c-3.3-.53-6.79,4.22-8.19,7.5-2.88,6.73-.82,16.24,4.09,17.73,3.14.96,6.94-1.49,8.88-4.09,5.29-7.11.28-20.34-4.78-21.15Z"/><path class="cls-4" d="m406.04,241.65c-3.3-.53-6.79,4.22-8.19,7.5-2.88,6.73-.82,16.24,4.09,17.73,3.14.96,6.94-1.49,8.88-4.09,5.29-7.11.28-20.34-4.78-21.15Z"/><path class="cls-4" d="m424.22,263.23c-3.3-.53-6.79,4.22-8.19,7.5-2.88,6.73-.82,16.24,4.09,17.73,3.14.96,6.94-1.49,8.88-4.09,5.29-7.11.28-20.34-4.78-21.15Z"/><path class="cls-4" d="m475.06,119.6c-3.3-.53-6.79,4.22-8.19,7.5-2.88,6.73-.82,16.24,4.09,17.73,3.14.96,6.94-1.49,8.88-4.09,5.29-7.11.28-20.34-4.78-21.15Z"/><path class="cls-4" d="m491.6,138.7c-3.3-.53-6.79,4.22-8.19,7.5-2.88,6.73-.82,16.23,4.09,17.73,3.14.96,6.94-1.49,8.88-4.09,5.29-7.11.28-20.34-4.78-21.15Z"/><path class="cls-4" d="m493.24,98.02c-3.3-.53-6.79,4.22-8.2,7.5-2.88,6.73-.82,16.23,4.09,17.73,3.14.96,6.94-1.49,8.88-4.09,5.29-7.11.28-20.34-4.78-21.15Z"/><path class="cls-4" d="m511.41,119.6c-3.3-.53-6.79,4.22-8.19,7.5-2.88,6.73-.82,16.24,4.09,17.73,3.14.96,6.94-1.49,8.88-4.09,5.29-7.11.28-20.34-4.78-21.15Z"/><path class="cls-4" d="m451.58,174.26c-3.3-.53-6.79,4.22-8.2,7.5-2.88,6.73-.82,16.24,4.09,17.73,3.14.96,6.94-1.49,8.88-4.09,5.29-7.11.28-20.34-4.78-21.15Z"/><path class="cls-4" d="m468.13,193.36c-3.3-.53-6.79,4.22-8.2,7.5-2.88,6.73-.82,16.23,4.09,17.73,3.14.96,6.94-1.49,8.88-4.09,5.29-7.11.28-20.34-4.78-21.15Z"/><path class="cls-4" d="m469.76,152.69c-3.3-.53-6.79,4.22-8.19,7.5-2.88,6.73-.82,16.23,4.09,17.73,3.14.96,6.94-1.49,8.88-4.09,5.29-7.11.28-20.34-4.78-21.15Z"/><path class="cls-4" d="m487.93,174.26c-3.3-.53-6.79,4.22-8.2,7.5-2.88,6.73-.81,16.24,4.09,17.73,3.14.96,6.94-1.49,8.88-4.09,5.29-7.11.28-20.34-4.78-21.15Z"/><path class="cls-4" d="m493.24,208.59c-3.3-.53-6.79,4.22-8.2,7.5-2.88,6.73-.82,16.23,4.09,17.73,3.14.96,6.94-1.49,8.88-4.09,5.29-7.11.28-20.34-4.78-21.15Z"/><path class="cls-4" d="m509.78,227.69c-3.3-.53-6.79,4.22-8.19,7.5-2.88,6.73-.82,16.23,4.09,17.73,3.14.96,6.94-1.49,8.88-4.09,5.29-7.11.28-20.34-4.78-21.15Z"/><path class="cls-4" d="m511.41,187.01c-3.3-.53-6.79,4.22-8.19,7.5-2.88,6.73-.82,16.24,4.09,17.73,3.14.96,6.94-1.49,8.88-4.09,5.29-7.11.28-20.34-4.78-21.15Z"/><path class="cls-4" d="m513.46,153.92c-3.3-.53-6.79,4.22-8.2,7.5-2.88,6.73-.82,16.23,4.09,17.73,3.14.96,6.94-1.49,8.88-4.09,5.29-7.11.28-20.34-4.78-21.15Z"/><path class="cls-4" d="m323.82,5.74c-3.3-.53-6.79,4.22-8.2,7.5-2.88,6.73-.82,16.23,4.09,17.73,3.14.96,6.94-1.49,8.88-4.09,5.29-7.11.28-20.34-4.78-21.15Z"/><path class="cls-4" d="m340.36,24.85c-3.3-.53-6.79,4.22-8.19,7.5-2.88,6.73-.82,16.23,4.09,17.73,3.14.96,6.94-1.49,8.88-4.09,5.29-7.11.28-20.34-4.78-21.15Z"/><path class="cls-4" d="m341.99-15.83c-3.3-.53-6.79,4.22-8.19,7.5-2.88,6.73-.82,16.23,4.09,17.73,3.14.96,6.94-1.49,8.88-4.09,5.29-7.11.28-20.34-4.78-21.15Z"/><path class="cls-4" d="m360.16,5.74c-3.3-.53-6.79,4.22-8.2,7.5-2.88,6.73-.82,16.23,4.09,17.73,3.14.96,6.94-1.49,8.88-4.09,5.29-7.11.28-20.34-4.78-21.15Z"/><path class="cls-4" d="m365.47,40.07c-3.3-.53-6.79,4.22-8.19,7.5-2.88,6.73-.82,16.23,4.09,17.73,3.14.96,6.94-1.49,8.88-4.09,5.29-7.11.28-20.34-4.78-21.15Z"/><path class="cls-4" d="m382.02,59.17c-3.3-.53-6.79,4.22-8.19,7.5-2.88,6.73-.82,16.23,4.09,17.73,3.14.96,6.94-1.49,8.88-4.09,5.29-7.11.28-20.34-4.78-21.15Z"/><path class="cls-4" d="m383.65,18.49c-3.3-.53-6.79,4.22-8.19,7.5-2.88,6.73-.82,16.23,4.09,17.73,3.14.96,6.94-1.49,8.88-4.09,5.29-7.11.28-20.34-4.78-21.15Z"/><path class="cls-4" d="m401.82,40.07c-3.3-.53-6.79,4.22-8.2,7.5-2.88,6.73-.82,16.23,4.09,17.73,3.14.96,6.94-1.49,8.88-4.09,5.29-7.11.28-20.34-4.78-21.15Z"/><path class="cls-4" d="m422.05,19.11c-3.3-.53-6.79,4.22-8.2,7.5-2.88,6.73-.82,16.23,4.09,17.73,3.14.96,6.94-1.49,8.88-4.09,5.29-7.11.28-20.34-4.78-21.15Z"/><path class="cls-4" d="m448.15-20.98c-3.3-.53-6.79,4.22-8.19,7.5-2.88,6.73-.82,16.23,4.09,17.73,3.14.96,6.94-1.49,8.88-4.09,5.29-7.11.28-20.34-4.78-21.15Z"/><path class="cls-4" d="m443.28,6.37c-3.3-.53-6.79,4.22-8.19,7.5-2.88,6.73-.82,16.23,4.09,17.73,3.14.96,6.94-1.49,8.88-4.09,5.29-7.11.28-20.34-4.78-21.15Z"/><path class="cls-4" d="m385.7-14.59c-3.3-.53-6.79,4.22-8.19,7.5-2.88,6.73-.82,16.23,4.09,17.73,3.14.96,6.94-1.49,8.88-4.09,5.29-7.11.28-20.34-4.78-21.15Z"/><path class="cls-4" d="m402.24,4.51c-3.3-.53-6.79,4.22-8.19,7.5-2.88,6.73-.82,16.23,4.09,17.73,3.14.96,6.94-1.49,8.88-4.09,5.29-7.11.28-20.34-4.78-21.15Z"/><path class="cls-4" d="m422.05-14.59c-3.3-.53-6.79,4.22-8.2,7.5-2.88,6.73-.82,16.23,4.09,17.73,3.14.96,6.94-1.49,8.88-4.09,5.29-7.11.28-20.34-4.78-21.15Z"/><path class="cls-4" d="m-1.58,146.9c-3.3-.53-6.79,4.22-8.19,7.5-2.88,6.73-.82,16.24,4.09,17.73,3.14.96,6.94-1.49,8.88-4.09,5.29-7.11.28-20.34-4.78-21.15Z"/><path class="cls-4" d="m-3.2,254.99c-3.3-.53-6.79,4.22-8.19,7.5-2.88,6.73-.82,16.23,4.09,17.73,3.14.96,6.94-1.49,8.88-4.09,5.29-7.11.28-20.34-4.78-21.15Z"/><path class="cls-4" d="m-1.58,214.31c-3.3-.53-6.79,4.22-8.19,7.5-2.88,6.73-.82,16.23,4.09,17.73,3.14.96,6.94-1.49,8.88-4.09,5.29-7.11.28-20.34-4.78-21.15Z"/><path class="cls-4" d="m16.59,235.89c-3.3-.53-6.79,4.22-8.19,7.5-2.88,6.73-.82,16.23,4.09,17.73,3.14.96,6.94-1.49,8.88-4.09,5.29-7.11.28-20.34-4.78-21.15Z"/><path class="cls-4" d="m36.82,214.93c-3.3-.53-6.79,4.22-8.19,7.5-2.88,6.73-.82,16.24,4.09,17.73,3.14.96,6.94-1.49,8.88-4.09,5.29-7.11.28-20.34-4.78-21.15Z"/><path class="cls-4" d="m62.93,174.84c-3.3-.53-6.79,4.22-8.19,7.5-2.88,6.73-.82,16.24,4.09,17.73,3.14.96,6.94-1.49,8.88-4.09,5.29-7.11.28-20.34-4.78-21.15Z"/><path class="cls-4" d="m58.06,202.18c-3.3-.53-6.79,4.22-8.19,7.5-2.88,6.73-.82,16.23,4.09,17.73,3.14.96,6.94-1.49,8.88-4.09,5.29-7.11.28-20.34-4.78-21.15Z"/><path class="cls-4" d="m45.91,147.52c-3.3-.53-6.79,4.22-8.19,7.5-2.88,6.73-.82,16.23,4.09,17.73,3.14.96,6.94-1.49,8.88-4.09,5.29-7.11.28-20.34-4.78-21.15Z"/><path class="cls-4" d="m.47,181.22c-3.3-.53-6.79,4.22-8.19,7.5-2.88,6.73-.82,16.24,4.09,17.73,3.14.96,6.94-1.49,8.88-4.09,5.29-7.11.28-20.34-4.78-21.15Z"/><path class="cls-4" d="m17.02,200.33c-3.3-.53-6.79,4.22-8.19,7.5-2.88,6.73-.82,16.23,4.09,17.73,3.14.96,6.94-1.49,8.88-4.09,5.29-7.11.28-20.34-4.78-21.15Z"/><path class="cls-4" d="m18.64,159.65c-3.3-.53-6.79,4.22-8.19,7.5-2.88,6.73-.82,16.23,4.09,17.73,3.14.96,6.94-1.49,8.88-4.09,5.29-7.11.28-20.34-4.78-21.15Z"/><path class="cls-4" d="m36.82,181.22c-3.3-.53-6.79,4.22-8.19,7.5-2.88,6.73-.82,16.24,4.09,17.73,3.14.96,6.94-1.49,8.88-4.09,5.29-7.11.28-20.34-4.78-21.15Z"/><path class="cls-4" d="m7.49,113.81c-3.3-.53-6.79,4.22-8.19,7.5-2.88,6.73-.82,16.23,4.09,17.73,3.14.96,6.94-1.49,8.88-4.09,5.29-7.11.28-20.34-4.78-21.15Z"/><path class="cls-4" d="m24.03,132.91c-3.3-.53-6.79,4.22-8.19,7.5-2.88,6.73-.82,16.23,4.09,17.73,3.14.96,6.94-1.49,8.88-4.09,5.29-7.11.28-20.34-4.78-21.15Z"/><path class="cls-4" d="m25.66,92.24c-3.3-.53-6.79,4.22-8.19,7.5-2.88,6.73-.82,16.24,4.09,17.73,3.14.96,6.94-1.49,8.88-4.09,5.29-7.11.28-20.34-4.78-21.15Z"/><path class="cls-4" d="m43.83,113.81c-3.3-.53-6.79,4.22-8.19,7.5-2.88,6.73-.82,16.23,4.09,17.73,3.14.96,6.94-1.49,8.88-4.09,5.29-7.11.28-20.34-4.78-21.15Z"/><path class="cls-4" d="m212.92,145.69c-3.3-.53-6.79,4.22-8.19,7.5-2.88,6.73-.82,16.24,4.09,17.73,3.14.96,6.94-1.49,8.88-4.09,5.29-7.11.28-20.34-4.78-21.15Z"/><path class="cls-4" d="m229.47,164.78c-3.3-.53-6.79,4.22-8.19,7.5-2.88,6.73-.82,16.23,4.09,17.73,3.14.96,6.94-1.49,8.88-4.09,5.29-7.11.28-20.34-4.78-21.15Z"/><path class="cls-4" d="m231.1,124.1c-3.3-.53-6.79,4.22-8.19,7.5-2.88,6.73-.82,16.23,4.09,17.73,3.14.96,6.94-1.49,8.88-4.09,5.29-7.11.28-20.34-4.78-21.15Z"/><path class="cls-4" d="m249.27,145.69c-3.3-.53-6.79,4.22-8.2,7.5-2.88,6.73-.82,16.24,4.09,17.73,3.14.96,6.94-1.49,8.88-4.09,5.29-7.11.28-20.34-4.78-21.15Z"/><path class="cls-4" d="m189.44,200.34c-3.3-.53-6.79,4.22-8.19,7.5-2.88,6.73-.82,16.24,4.09,17.73,3.14.96,6.94-1.49,8.88-4.09,5.29-7.11.28-20.34-4.78-21.15Z"/><path class="cls-4" d="m205.99,219.44c-3.3-.53-6.79,4.22-8.19,7.5-2.88,6.73-.82,16.23,4.09,17.73,3.14.96,6.94-1.49,8.88-4.09,5.29-7.11.28-20.34-4.78-21.15Z"/><path class="cls-4" d="m207.61,178.77c-3.3-.53-6.79,4.22-8.2,7.5-2.88,6.73-.82,16.23,4.09,17.73,3.14.96,6.94-1.49,8.88-4.09,5.29-7.11.28-20.34-4.78-21.15Z"/><path class="cls-4" d="m225.79,200.34c-3.3-.53-6.79,4.22-8.19,7.5-2.88,6.73-.82,16.24,4.09,17.73,3.14.96,6.94-1.49,8.88-4.09,5.29-7.11.28-20.34-4.78-21.15Z"/><path class="cls-4" d="m231.1,234.67c-3.3-.53-6.79,4.22-8.19,7.5-2.88,6.73-.82,16.23,4.09,17.73,3.14.96,6.94-1.49,8.88-4.09,5.29-7.11.28-20.34-4.78-21.15Z"/><path class="cls-4" d="m247.64,253.77c-3.3-.53-6.79,4.22-8.2,7.5-2.88,6.73-.81,16.23,4.09,17.73,3.14.96,6.94-1.49,8.88-4.09,5.29-7.11.28-20.34-4.78-21.15Z"/><path class="cls-4" d="m249.27,213.09c-3.3-.53-6.79,4.22-8.2,7.5-2.88,6.73-.82,16.24,4.09,17.73,3.14.96,6.94-1.49,8.88-4.09,5.29-7.11.28-20.34-4.78-21.15Z"/><path class="cls-4" d="m267.45,234.67c-3.3-.53-6.79,4.22-8.19,7.5-2.88,6.73-.82,16.23,4.09,17.73,3.14.96,6.94-1.49,8.88-4.09,5.29-7.11.28-20.34-4.78-21.15Z"/><path class="cls-4" d="m287.67,213.71c-3.3-.53-6.79,4.22-8.19,7.5-2.88,6.73-.82,16.24,4.09,17.73,3.14.96,6.94-1.49,8.88-4.09,5.29-7.11.28-20.34-4.78-21.15Z"/><path class="cls-4" d="m313.78,173.61c-3.3-.53-6.79,4.22-8.2,7.5-2.88,6.73-.82,16.24,4.09,17.73,3.14.96,6.94-1.49,8.88-4.09,5.29-7.11.28-20.34-4.78-21.15Z"/><path class="cls-4" d="m308.9,200.97c-3.3-.53-6.79,4.22-8.19,7.5-2.88,6.73-.82,16.23,4.09,17.73,3.14.96,6.94-1.49,8.88-4.09,5.29-7.11.28-20.34-4.78-21.15Z"/><path class="cls-4" d="m296.75,146.3c-3.3-.53-6.79,4.22-8.19,7.5-2.88,6.73-.82,16.23,4.09,17.73,3.14.96,6.94-1.49,8.88-4.09,5.29-7.11.28-20.34-4.78-21.15Z"/><path class="cls-4" d="m251.32,180c-3.3-.53-6.79,4.22-8.19,7.5-2.88,6.73-.82,16.23,4.09,17.73,3.14.96,6.94-1.49,8.88-4.09,5.29-7.11.28-20.34-4.78-21.15Z"/><path class="cls-4" d="m267.86,199.1c-3.3-.53-6.79,4.22-8.2,7.5-2.88,6.73-.82,16.23,4.09,17.73,3.14.96,6.94-1.49,8.88-4.09,5.29-7.11.28-20.34-4.78-21.15Z"/><path class="cls-4" d="m269.49,158.43c-3.3-.53-6.79,4.22-8.19,7.5-2.88,6.73-.82,16.23,4.09,17.73,3.14.96,6.94-1.49,8.88-4.09,5.29-7.11.28-20.34-4.78-21.15Z"/><path class="cls-4" d="m287.67,180c-3.3-.53-6.79,4.22-8.19,7.5-2.88,6.73-.82,16.23,4.09,17.73,3.14.96,6.94-1.49,8.88-4.09,5.29-7.11.28-20.34-4.78-21.15Z"/><path class="cls-4" d="m258.34,112.6c-3.3-.53-6.79,4.22-8.2,7.5-2.88,6.73-.82,16.23,4.09,17.73,3.14.96,6.94-1.49,8.88-4.09,5.29-7.11.28-20.34-4.78-21.15Z"/><path class="cls-4" d="m274.88,131.7c-3.3-.53-6.79,4.22-8.19,7.5-2.88,6.73-.82,16.23,4.09,17.73,3.14.96,6.94-1.49,8.88-4.09,5.29-7.11.28-20.34-4.78-21.15Z"/><path class="cls-4" d="m276.51,91.02c-3.3-.53-6.79,4.22-8.19,7.5-2.88,6.73-.82,16.24,4.09,17.73,3.14.96,6.94-1.49,8.88-4.09,5.29-7.11.28-20.34-4.78-21.15Z"/><path class="cls-4" d="m294.68,112.6c-3.3-.53-6.79,4.22-8.2,7.5-2.88,6.73-.82,16.23,4.09,17.73,3.14.96,6.94-1.49,8.88-4.09,5.29-7.11.28-20.34-4.78-21.15Z"/><path class="cls-4" d="m111.23-10.72c-3.3-.53-6.79,4.22-8.19,7.5-2.88,6.73-.82,16.23,4.09,17.73,3.14.96,6.94-1.49,8.88-4.09,5.29-7.11.28-20.34-4.78-21.15Z"/><path class="cls-4" d="m71.2,24.85c-3.3-.53-6.79,4.22-8.19,7.5-2.88,6.73-.82,16.23,4.09,17.73,3.14.96,6.94-1.49,8.88-4.09,5.29-7.11.28-20.34-4.78-21.15Z"/><path class="cls-4" d="m87.74,43.95c-3.3-.53-6.79,4.22-8.19,7.5-2.88,6.73-.82,16.23,4.09,17.73,3.14.96,6.94-1.49,8.88-4.09,5.29-7.11.28-20.34-4.78-21.15Z"/><path class="cls-4" d="m89.37,3.27c-3.3-.53-6.79,4.22-8.19,7.5-2.88,6.73-.82,16.23,4.09,17.73,3.14.96,6.94-1.49,8.88-4.09,5.29-7.11.28-20.34-4.78-21.15Z"/><path class="cls-4" d="m107.55,24.85c-3.3-.53-6.79,4.22-8.19,7.5-2.88,6.73-.82,16.23,4.09,17.73,3.14.96,6.94-1.49,8.88-4.09,5.29-7.11.28-20.34-4.78-21.15Z"/><path class="cls-4" d="m112.86,59.17c-3.3-.53-6.79,4.22-8.19,7.5-2.88,6.73-.82,16.23,4.09,17.73,3.14.96,6.94-1.49,8.88-4.09,5.29-7.11.28-20.34-4.78-21.15Z"/><path class="cls-4" d="m129.4,78.27c-3.3-.53-6.79,4.22-8.2,7.5-2.88,6.73-.82,16.23,4.09,17.73,3.14.96,6.94-1.49,8.88-4.09,5.29-7.11.28-20.34-4.78-21.15Z"/><path class="cls-4" d="m131.03,37.6c-3.3-.53-6.79,4.22-8.19,7.5-2.88,6.73-.82,16.23,4.09,17.73,3.14.96,6.94-1.49,8.88-4.09,5.29-7.11.28-20.34-4.78-21.15Z"/><path class="cls-4" d="m149.2,59.17c-3.3-.53-6.79,4.22-8.19,7.5-2.88,6.73-.82,16.23,4.09,17.73,3.14.96,6.94-1.49,8.88-4.09,5.29-7.11.28-20.34-4.78-21.15Z"/><path class="cls-4" d="m169.43,38.21c-3.3-.53-6.79,4.22-8.19,7.5-2.88,6.73-.82,16.23,4.09,17.73,3.14.96,6.94-1.49,8.88-4.09,5.29-7.11.28-20.34-4.78-21.15Z"/><path class="cls-4" d="m195.54-1.88c-3.3-.53-6.79,4.22-8.19,7.5-2.88,6.73-.82,16.23,4.09,17.73,3.14.96,6.94-1.49,8.88-4.09,5.29-7.11.28-20.34-4.78-21.15Z"/><path class="cls-4" d="m190.66,25.46c-3.3-.53-6.79,4.22-8.19,7.5-2.88,6.73-.82,16.23,4.09,17.73,3.14.96,6.94-1.49,8.88-4.09,5.29-7.11.28-20.34-4.78-21.15Z"/><path class="cls-4" d="m133.08,4.51c-3.3-.53-6.79,4.22-8.2,7.5-2.88,6.73-.81,16.23,4.09,17.73,3.14.96,6.94-1.49,8.88-4.09,5.29-7.11.28-20.34-4.78-21.15Z"/><path class="cls-4" d="m149.62,23.61c-3.3-.53-6.79,4.22-8.2,7.5-2.88,6.73-.82,16.23,4.09,17.73,3.14.96,6.94-1.49,8.88-4.09,5.29-7.11.28-20.34-4.78-21.15Z"/><path class="cls-4" d="m151.25-17.07c-3.3-.53-6.79,4.22-8.19,7.5-2.88,6.73-.82,16.23,4.09,17.73,3.14.96,6.94-1.49,8.88-4.09,5.29-7.11.28-20.34-4.78-21.15Z"/><path class="cls-4" d="m169.43,4.51c-3.3-.53-6.79,4.22-8.19,7.5-2.88,6.73-.82,16.23,4.09,17.73,3.14.96,6.94-1.49,8.88-4.09,5.29-7.11.28-20.34-4.78-21.15Z"/><path class="cls-4" d="m431.07,471.16c-3.3-.53-6.79,4.22-8.19,7.5-2.88,6.73-.82,16.23,4.09,17.73,3.14.96,6.94-1.49,8.88-4.09,5.29-7.11.28-20.34-4.78-21.15Z"/><path class="cls-4" d="m447.61,490.27c-3.3-.53-6.79,4.22-8.2,7.5-2.88,6.73-.82,16.23,4.09,17.73,3.14.96,6.94-1.49,8.88-4.09,5.29-7.11.28-20.34-4.78-21.15Z"/><path class="cls-4" d="m449.25,449.59c-3.3-.53-6.79,4.22-8.2,7.5-2.88,6.73-.82,16.24,4.09,17.73,3.14.96,6.94-1.49,8.88-4.09,5.29-7.11.28-20.34-4.78-21.15Z"/><path class="cls-4" d="m467.42,471.16c-3.3-.53-6.79,4.22-8.19,7.5-2.88,6.73-.82,16.23,4.09,17.73,3.14.96,6.94-1.49,8.88-4.09,5.29-7.11.28-20.34-4.78-21.15Z"/><path class="cls-4" d="m407.58,525.83c-3.3-.53-6.79,4.22-8.19,7.5-2.88,6.73-.82,16.23,4.09,17.73,3.14.96,6.94-1.49,8.88-4.09,5.29-7.11.28-20.34-4.78-21.15Z"/><path class="cls-4" d="m424.13,544.93c-3.3-.53-6.79,4.22-8.19,7.5-2.88,6.73-.82,16.23,4.09,17.73,3.14.96,6.94-1.49,8.88-4.09,5.29-7.11.28-20.34-4.78-21.15Z"/><path class="cls-4" d="m425.76,504.25c-3.3-.53-6.79,4.22-8.19,7.5-2.88,6.73-.82,16.24,4.09,17.73,3.14.96,6.94-1.49,8.88-4.09,5.29-7.11.28-20.34-4.78-21.15Z"/><path class="cls-4" d="m443.94,525.83c-3.3-.53-6.79,4.22-8.2,7.5-2.88,6.73-.82,16.23,4.09,17.73,3.14.96,6.94-1.49,8.88-4.09,5.29-7.11.28-20.34-4.78-21.15Z"/><path class="cls-4" d="m449.25,560.15c-3.3-.53-6.79,4.22-8.2,7.5-2.88,6.73-.82,16.24,4.09,17.73,3.14.96,6.94-1.49,8.88-4.09,5.29-7.11.28-20.34-4.78-21.15Z"/><path class="cls-4" d="m465.79,579.25c-3.3-.53-6.79,4.22-8.19,7.5-2.88,6.73-.82,16.24,4.09,17.73,3.14.96,6.94-1.49,8.88-4.09,5.29-7.11.28-20.34-4.78-21.15Z"/><path class="cls-4" d="m467.42,538.57c-3.3-.53-6.79,4.22-8.19,7.5-2.88,6.73-.82,16.23,4.09,17.73,3.14.96,6.94-1.49,8.88-4.09,5.29-7.11.28-20.34-4.78-21.15Z"/><path class="cls-4" d="m485.59,560.15c-3.3-.53-6.79,4.22-8.2,7.5-2.88,6.73-.82,16.24,4.09,17.73,3.14.96,6.94-1.49,8.88-4.09,5.29-7.11.28-20.34-4.78-21.15Z"/><path class="cls-4" d="m505.82,539.19c-3.3-.53-6.79,4.22-8.2,7.5-2.88,6.73-.82,16.23,4.09,17.73,3.14.96,6.94-1.49,8.88-4.09,5.29-7.11.28-20.34-4.78-21.15Z"/><path class="cls-4" d="m514.9,471.78c-3.3-.53-6.79,4.22-8.2,7.5-2.88,6.73-.81,16.24,4.09,17.73,3.14.96,6.94-1.49,8.88-4.09,5.29-7.11.28-20.34-4.78-21.15Z"/><path class="cls-4" d="m469.47,505.49c-3.3-.53-6.79,4.22-8.19,7.5-2.88,6.73-.82,16.23,4.09,17.73,3.14.96,6.94-1.49,8.88-4.09,5.29-7.11.28-20.34-4.78-21.15Z"/><path class="cls-4" d="m486.01,524.59c-3.3-.53-6.79,4.22-8.19,7.5-2.88,6.73-.82,16.24,4.09,17.73,3.14.96,6.94-1.49,8.88-4.09,5.29-7.11.28-20.34-4.78-21.15Z"/><path class="cls-4" d="m487.64,483.91c-3.3-.53-6.79,4.22-8.19,7.5-2.88,6.73-.82,16.24,4.09,17.73,3.14.96,6.94-1.49,8.88-4.09,5.29-7.11.28-20.34-4.78-21.15Z"/><path class="cls-4" d="m505.82,505.49c-3.3-.53-6.79,4.22-8.2,7.5-2.88,6.73-.82,16.23,4.09,17.73,3.14.96,6.94-1.49,8.88-4.09,5.29-7.11.28-20.34-4.78-21.15Z"/><path class="cls-4" d="m476.48,438.08c-3.3-.53-6.79,4.22-8.19,7.5-2.88,6.73-.82,16.24,4.09,17.73,3.14.96,6.94-1.49,8.88-4.09,5.29-7.11.28-20.34-4.78-21.15Z"/><path class="cls-4" d="m493.02,457.18c-3.3-.53-6.79,4.22-8.2,7.5-2.88,6.73-.81,16.24,4.09,17.73,3.14.96,6.94-1.49,8.88-4.09,5.29-7.11.28-20.34-4.78-21.15Z"/><path class="cls-4" d="m494.66,416.5c-3.3-.53-6.79,4.22-8.2,7.5-2.88,6.73-.82,16.23,4.09,17.73,3.14.96,6.94-1.49,8.88-4.09,5.29-7.11.28-20.34-4.78-21.15Z"/><path class="cls-4" d="m512.83,438.08c-3.3-.53-6.79,4.22-8.19,7.5-2.88,6.73-.82,16.24,4.09,17.73,3.14.96,6.94-1.49,8.88-4.09,5.29-7.11.28-20.34-4.78-21.15Z"/></g></g></svg>