<?xml version="1.0" encoding="utf-8"?>
<!-- Generator: Adobe Illustrator 27.8.1, SVG Export Plug-In . SVG Version: 6.00 Build 0)  -->
<svg version="1.1" id="Layer_1" xmlns="http://www.w3.org/2000/svg" xmlns:xlink="http://www.w3.org/1999/xlink" x="0px" y="0px"
	 viewBox="0 0 582.3 345.4" style="enable-background:new 0 0 582.3 345.4;" xml:space="preserve">
<style type="text/css">
	.st0{clip-path:url(#SVGID_00000080907108702517287180000003701487105190272396_);}
	.st1{fill:#98BE94;}
	.st2{fill:#21431E;}
	.st3{fill:#CC5500;}
	.st4{fill:#FFFFFF;}
	.st5{fill:none;stroke:#FFFFFF;stroke-width:2;stroke-miterlimit:10;}
	.st6{fill:none;stroke:#FFFFFF;stroke-miterlimit:10;}
</style>
<g>
	<defs>
		<rect id="SVGID_1_" x="-1218.5" y="-1453.5" width="739.4" height="1044.5"/>
	</defs>
	<clipPath id="SVGID_00000129196531860338193270000012965692082787895961_">
		<use xlink:href="#SVGID_1_"  style="overflow:visible;"/>
	</clipPath>
	<g style="clip-path:url(#SVGID_00000129196531860338193270000012965692082787895961_);">
		<rect x="-1217.1" y="-1451.1" class="st1" width="738" height="1042"/>
		<g>
			<path class="st2" d="M-1058.3-1042.9c-8.5-17.6-93.6-9.6-156,37.5c-35.6,26.8-99.2,93-76.8,154c11.4,31.2,43.7,56.6,77.9,59.2
				c49.4,3.9,92.9-40.4,107.6-80.3c16.2-44.2-7.9-69.3,15.1-118.4C-1074.8-1024.4-1053.8-1033.5-1058.3-1042.9L-1058.3-1042.9z"/>
			<path class="st2" d="M-940.4-1009.8c-5.1,1.8-5.4,25.6,5.8,44.3c6.4,10.7,22.8,30.2,40.3,25.8c9-2.2,16.9-10.4,18.7-19.8
				c2.5-13.5-8.4-26.9-19-32.1c-11.8-5.8-19.4,0.1-32.3-7.7C-935.7-1004.7-937.6-1010.8-940.4-1009.8L-940.4-1009.8z"/>
			<path class="st2" d="M-1022.2-1080.8c5.4,0.9,17.1-19.8,16.4-41.6c-0.4-12.4-5.4-37.5-22.8-42.1c-8.9-2.4-19.9,0.9-25.9,8.3
				c-8.8,10.6-5.6,27.6,1.1,37.3c7.5,10.8,17.1,9.3,24.6,22.3C-1023.7-1087.6-1025-1081.3-1022.2-1080.8L-1022.2-1080.8z"/>
			<path class="st2" d="M-913.3-1188.7c5.1-1.8,5.8-25.5-5.2-44.4c-6.2-10.7-22.4-30.5-40-26.3c-9,2.1-17.1,10.2-19,19.5
				c-2.7,13.5,8.1,27,18.6,32.4c11.7,6,19.4,0.1,32.2,8.1C-917.8-1193.9-916-1187.8-913.3-1188.7L-913.3-1188.7z"/>
			<path class="st2" d="M-933.3-1054.1c6,18.6,91.3,22.4,159.7-15.7c39-21.7,111.1-78.4,97.3-142c-7-32.5-35.5-62-69-69.4
				c-48.4-10.6-97.6,27.2-117.6,64.7c-22.2,41.5-1.7,69.7-31.3,115.2C-914.4-1070.1-936.5-1064.1-933.3-1054.1L-933.3-1054.1z"/>
			<path class="st2" d="M-1139.7-1479.5c-17.9-7.7-76.9,54.1-93.3,130.6c-9.3,43.6-14,135.2,42.9,166.7
				c29.1,16.1,70.1,14.1,97.6-6.2c39.8-29.4,43.8-91.4,28.7-131.2c-16.7-44-51.4-47.2-66.2-99.3
				C-1140.1-1454.7-1130.1-1475.3-1139.7-1479.5L-1139.7-1479.5z"/>
			<path class="st2" d="M-1050.4-1367.1c-2.7,4.7,12.7,22.9,33.4,29.7c11.8,3.9,37,7.9,47.4-6.9c5.3-7.6,6-19,1.2-27.2
				c-7-11.9-24-14.8-35.5-11.8c-12.7,3.3-14.6,12.8-29.4,15.4C-1043.6-1366.3-1049-1369.6-1050.4-1367.1L-1050.4-1367.1z"/>
			<path class="st2" d="M-1074.1-1405.2c16.7,10.1,83.7-43,110.4-116.5c15.2-41.9,32.5-132-19.5-171c-26.6-19.9-67.4-23.6-97.6-7.2
				c-43.5,23.6-55.9,84.5-46.5,126c10.5,45.9,44.4,53.8,51.9,107.5C-1070.3-1429.7-1083-1410.7-1074.1-1405.2L-1074.1-1405.2z"/>
			<path class="st2" d="M-790.2-1638.7c-17.4-8.9-80.3,48.9-101.7,124.1c-12.2,42.9-22.9,134,31.8,169.1c28,17.9,69,18.7,97.8,0.2
				c41.7-26.7,49.7-88.3,37.3-129c-13.7-45-48.1-50.4-59.5-103.5C-792.2-1614.1-780.9-1634-790.2-1638.7L-790.2-1638.7z"/>
			<path class="st2" d="M-541.2-834.9c15.6-11.8-9-93.6-67.3-145.7c-33.3-29.7-110.6-79.1-166.1-45.1c-28.3,17.3-46.9,53.9-42.8,88
				c5.9,49.2,57.8,83.2,99.8,89.8c46.5,7.3,66.4-21.3,119.1-8.4C-562.5-847.5-549.6-828.6-541.2-834.9L-541.2-834.9z"/>
			<path class="st2" d="M-683-812.8c-2.8-4.7-26.2-0.3-42.3,14.3c-9.2,8.3-25.2,28.3-17.4,44.6c4,8.3,13.5,14.6,23.1,14.5
				c13.8-0.2,24.7-13.5,27.8-25c3.4-12.7-3.9-19,1.2-33.2C-687.1-807.3-681.5-810.4-683-812.8L-683-812.8z"/>
			<path class="st2" d="M-502.3-821.3c2.7,4.7,26.2,0.6,42.5-13.8c9.3-8.2,25.5-27.9,18-44.4c-3.8-8.4-13.3-14.8-22.9-14.8
				c-13.8,0-24.9,13.2-28.1,24.6c-3.6,12.6,3.7,19-1.6,33.2C-498.1-826.8-503.7-823.8-502.3-821.3L-502.3-821.3z"/>
			<path class="st2" d="M-638.2-814.6c-17,9.5-4,94,46.7,153.5c28.9,34,98.7,93.5,158.3,67.6c30.5-13.3,53.9-47,54.5-81.2
				c1-49.5-45.8-90.4-86.5-102.7c-45.1-13.6-68.7,12-119.1-8.1C-618.8-799.1-629.1-819.6-638.2-814.6L-638.2-814.6z"/>
			<path class="st2" d="M-810.7-383.1c14.1,13.4,90.9-24.2,132.7-90.3c23.8-37.7,59.9-122,17.4-171.2
				c-21.7-25.1-60.9-37.4-93.8-27.9c-47.5,13.8-72.6,70.6-72.2,113.2c0.4,47.1,31.9,62,27.8,116.1
				C-801.8-406.1-818.3-390.3-810.7-383.1L-810.7-383.1z"/>
			<path class="st2" d="M-855.7-519.3c4.1-3.5-4-25.9-21.1-39.4c-9.7-7.7-32-20.2-46.9-9.9c-7.6,5.3-12.2,15.7-10.5,25.1
				c2.4,13.6,17.4,22.2,29.2,23.3c13,1.3,18.1-7,33-4.2C-861.8-522.5-857.9-517.5-855.7-519.3L-855.7-519.3z"/>
			<path class="st2" d="M-846.6-475.4c-12.2-15.2-93.3,11.4-143.8,71.1c-28.8,34.1-76.1,112.6-40.8,167.2
				c18.1,27.9,55.1,45.5,89,40.5c49-7.2,81.6-59.9,87.1-102.1c6.1-46.7-23.1-65.8-11.5-118.8C-858.6-453.8-840.1-467.2-846.6-475.4
				L-846.6-475.4z"/>
			<path class="st2" d="M-999.4-598.1c15.4,12,88.1-32.8,123.4-102.6c20.1-39.8,47.9-127.2,0.9-172.1c-24-22.9-64.2-31.4-96-18.7
				c-46,18.3-65.5,77.3-61,119.6c5,46.8,37.7,58.7,38.8,112.9C-992.7-621.9-1007.6-604.5-999.4-598.1L-999.4-598.1z"/>
			<path class="st2" d="M-1057.3-729.4c3.8-3.9-6.5-25.4-24.8-37.2c-10.4-6.7-33.8-17-47.6-5.3c-7,6-10.6,16.8-8,26
				c3.7,13.3,19.5,20.4,31.3,20.4c13.1,0,17.3-8.7,32.4-7.4C-1063.6-732-1059.3-727.4-1057.3-729.4z"/>
			<path class="st2" d="M-607.1-523.7c-2.4,4.9,14,22.1,35,27.7c12,3.2,37.4,5.7,46.9-9.7c4.9-7.9,4.9-19.3-0.4-27.2
				c-7.6-11.5-24.8-13.4-36.1-9.8c-12.5,4-13.8,13.6-28.5,17C-600.3-523.2-605.9-526.3-607.1-523.7L-607.1-523.7z"/>
			<path class="st2" d="M-1044-686.6c-13.6-14-91.8,20.3-136.3,84.6c-25.4,36.7-65,119.4-24.5,170.3c20.7,26,59.2,40,92.5,31.8
				c48.1-11.8,75.5-67.5,76.9-110c1.6-47-29.3-63.3-22.9-117.1C-1053.9-663.9-1036.8-679.1-1044-686.6L-1044-686.6z"/>
			<path class="st2" d="M-423.1-1238c18.5-6.2,21.2-91.6-17.7-159.5c-22.2-38.7-79.8-110.1-143.2-95.5
				c-32.4,7.5-61.6,36.3-68.5,69.8c-10,48.5,28.4,97.2,66.2,116.8c41.8,21.7,69.7,0.8,115.6,29.8
				C-439.2-1256.7-432.9-1234.7-423.1-1238L-423.1-1238z"/>
			<path class="st2" d="M-564.5-1262.1c-1.2-5.3-24.7-8.6-44.7,0.2c-11.4,5-32.8,18.8-30.7,36.8c1.1,9.2,8.2,18.1,17.3,21
				c13.1,4.2,27.8-5,34.3-14.9c7.2-10.9,2.3-19.3,11.7-31.1C-570.2-1258.1-563.9-1259.2-564.5-1262.1L-564.5-1262.1z"/>
			<path class="st2" d="M-643.3-1156c-15.2,12.2,11.9,93.3,72,143.4c34.2,28.6,113.1,75.5,167.4,39.8c27.8-18.2,45.2-55.4,40-89.3
				c-7.4-49-60.4-81.3-102.6-86.6c-46.7-5.8-65.7,23.4-118.7,12.2C-621.6-1144.1-635.2-1162.6-643.3-1156L-643.3-1156z"/>
		</g>
		<g>
			<g>
				<path class="st3" d="M-1217.7-791c-4.5-0.7-9.3,5.8-11.2,10.3c-3.9,9.2-1.1,22.3,5.6,24.4c4.3,1.3,9.5-2,12.2-5.6
					C-1203.9-771.7-1210.8-789.9-1217.7-791z"/>
				<path class="st3" d="M-1217.7-698.4c-4.5-0.7-9.3,5.8-11.2,10.3c-3.9,9.2-1.1,22.3,5.6,24.4c4.3,1.3,9.5-2,12.2-5.6
					C-1203.9-679.1-1210.8-697.3-1217.7-698.4z"/>
				<path class="st3" d="M-1192.8-668.7c-4.5-0.7-9.3,5.8-11.2,10.3c-3.9,9.2-1.1,22.3,5.6,24.4c4.3,1.3,9.5-2,12.2-5.6
					C-1178.9-649.4-1185.8-667.6-1192.8-668.7z"/>
				<path class="st3" d="M-1165-697.5c-4.5-0.7-9.3,5.8-11.2,10.3c-3.9,9.2-1.1,22.3,5.6,24.4c4.3,1.3,9.5-2,12.2-5.6
					C-1151.2-678.2-1158.1-696.4-1165-697.5z"/>
				<path class="st3" d="M-1129.2-752.6c-4.5-0.7-9.3,5.8-11.2,10.3c-4,9.2-1.1,22.3,5.6,24.4c4.3,1.3,9.5-2,12.2-5.6
					C-1115.3-733.3-1122.2-751.5-1129.2-752.6z"/>
				<path class="st3" d="M-1135.8-715c-4.5-0.7-9.3,5.8-11.2,10.3c-3.9,9.2-1.1,22.3,5.6,24.4c4.3,1.3,9.5-2,12.2-5.6
					C-1122-695.7-1128.9-713.9-1135.8-715z"/>
				<path class="st3" d="M-1152.5-790.2c-4.5-0.7-9.3,5.8-11.2,10.3c-4,9.2-1.1,22.3,5.6,24.4c4.3,1.3,9.5-2,12.2-5.6
					C-1138.7-770.9-1145.6-789-1152.5-790.2z"/>
				<path class="st3" d="M-1214.9-743.8c-4.5-0.7-9.3,5.8-11.2,10.3c-3.9,9.2-1.1,22.3,5.6,24.4c4.3,1.3,9.5-2,12.2-5.6
					C-1201.1-724.5-1208-742.7-1214.9-743.8z"/>
				<path class="st3" d="M-1192.2-717.6c-4.5-0.7-9.3,5.8-11.2,10.3c-4,9.2-1.1,22.3,5.6,24.4c4.3,1.3,9.5-2,12.2-5.6
					C-1178.4-698.3-1185.2-716.5-1192.2-717.6z"/>
				<path class="st3" d="M-1189.9-773.5c-4.5-0.7-9.3,5.8-11.2,10.3c-4,9.2-1.1,22.3,5.6,24.4c4.3,1.3,9.5-2,12.2-5.6
					C-1176.1-754.2-1183-772.4-1189.9-773.5z"/>
				<path class="st3" d="M-1165-743.8c-4.5-0.7-9.3,5.8-11.2,10.3c-3.9,9.2-1.1,22.3,5.6,24.4c4.3,1.3,9.5-2,12.2-5.6
					C-1151.2-724.5-1158.1-742.7-1165-743.8z"/>
				<path class="st3" d="M-1205.3-836.5c-4.5-0.7-9.3,5.8-11.2,10.3c-3.9,9.2-1.1,22.3,5.6,24.4c4.3,1.3,9.5-2,12.2-5.6
					C-1191.4-817.2-1198.3-835.4-1205.3-836.5z"/>
				<path class="st3" d="M-1182.6-810.2c-4.5-0.7-9.3,5.8-11.2,10.3c-4,9.2-1.1,22.3,5.6,24.4c4.3,1.3,9.5-2,12.2-5.6
					C-1168.7-790.9-1175.6-809.1-1182.6-810.2z"/>
				<path class="st3" d="M-1180.3-866.1c-4.5-0.7-9.3,5.8-11.2,10.3c-4,9.2-1.1,22.3,5.6,24.4c4.3,1.3,9.5-2,12.2-5.6
					C-1166.5-846.8-1173.4-865-1180.3-866.1z"/>
				<path class="st3" d="M-1155.4-836.5c-4.5-0.7-9.3,5.8-11.2,10.3c-3.9,9.2-1.1,22.3,5.6,24.4c4.3,1.3,9.5-2,12.2-5.6
					C-1141.5-817.2-1148.4-835.4-1155.4-836.5z"/>
			</g>
			<g>
				<path class="st3" d="M-923.2-792.7c-4.5-0.7-9.3,5.8-11.2,10.3c-4,9.2-1.1,22.3,5.6,24.4c4.3,1.3,9.5-2,12.2-5.6
					C-909.4-773.4-916.3-791.6-923.2-792.7z"/>
				<path class="st3" d="M-900.5-766.4c-4.5-0.7-9.3,5.8-11.2,10.3c-4,9.2-1.1,22.3,5.6,24.4c4.3,1.3,9.5-2,12.2-5.6
					C-886.7-747.1-893.6-765.3-900.5-766.4z"/>
				<path class="st3" d="M-898.3-822.3c-4.5-0.7-9.3,5.8-11.2,10.3c-4,9.2-1.1,22.3,5.6,24.4c4.3,1.3,9.5-2,12.2-5.6
					C-884.5-803-891.3-821.2-898.3-822.3z"/>
				<path class="st3" d="M-873.3-792.7c-4.5-0.7-9.3,5.8-11.2,10.3c-4,9.2-1.1,22.3,5.6,24.4c4.3,1.3,9.5-2,12.2-5.6
					C-859.5-773.4-866.4-791.6-873.3-792.7z"/>
				<path class="st3" d="M-955.5-717.6c-4.5-0.7-9.3,5.8-11.2,10.3c-3.9,9.2-1.1,22.3,5.6,24.4c4.3,1.3,9.5-2,12.2-5.6
					C-941.7-698.3-948.5-716.5-955.5-717.6z"/>
				<path class="st3" d="M-932.8-691.3c-4.5-0.7-9.3,5.8-11.2,10.3c-4,9.2-1.1,22.3,5.6,24.4c4.3,1.3,9.5-2,12.2-5.6
					C-918.9-672-925.8-690.2-932.8-691.3z"/>
				<path class="st3" d="M-930.5-747.2c-4.5-0.7-9.3,5.8-11.2,10.3c-4,9.2-1.1,22.3,5.6,24.4c4.3,1.3,9.5-2,12.2-5.6
					C-916.7-727.9-923.6-746.1-930.5-747.2z"/>
				<path class="st3" d="M-905.6-717.6c-4.5-0.7-9.3,5.8-11.2,10.3c-4,9.2-1.1,22.3,5.6,24.4c4.3,1.3,9.5-2,12.2-5.6
					C-891.8-698.3-898.6-716.5-905.6-717.6z"/>
				<path class="st3" d="M-898.3-670.4c-4.5-0.7-9.3,5.8-11.2,10.3c-4,9.2-1.1,22.3,5.6,24.4c4.3,1.3,9.5-2,12.2-5.6
					C-884.5-651.1-891.3-669.3-898.3-670.4z"/>
				<path class="st3" d="M-875.6-644.1c-4.5-0.7-9.3,5.8-11.2,10.3c-4,9.2-1.1,22.3,5.6,24.4c4.3,1.3,9.5-2,12.2-5.6
					C-861.8-624.9-868.6-643-875.6-644.1z"/>
				<path class="st3" d="M-873.3-700c-4.5-0.7-9.3,5.8-11.2,10.3c-4,9.2-1.1,22.3,5.6,24.4c4.3,1.3,9.5-2,12.2-5.6
					C-859.5-680.8-866.4-698.9-873.3-700z"/>
				<path class="st3" d="M-848.4-670.4c-4.5-0.7-9.3,5.8-11.2,10.3c-4,9.2-1.1,22.3,5.6,24.4c4.3,1.3,9.5-2,12.2-5.6
					C-834.6-651.1-841.5-669.3-848.4-670.4z"/>
				<path class="st3" d="M-820.6-699.2c-4.5-0.7-9.3,5.8-11.2,10.3c-4,9.2-1.1,22.3,5.6,24.4c4.3,1.3,9.5-2,12.2-5.6
					C-806.8-679.9-813.7-698.1-820.6-699.2z"/>
				<path class="st3" d="M-784.8-754.3c-4.5-0.7-9.3,5.8-11.2,10.3c-4,9.2-1.1,22.3,5.6,24.4c4.3,1.3,9.5-2,12.2-5.6
					C-771-735-777.8-753.2-784.8-754.3z"/>
				<path class="st3" d="M-791.5-716.7c-4.5-0.7-9.3,5.8-11.2,10.3c-4,9.2-1.1,22.3,5.6,24.4c4.3,1.3,9.5-2,12.2-5.6
					C-777.7-697.4-784.5-715.6-791.5-716.7z"/>
				<path class="st3" d="M-808.2-791.8c-4.5-0.7-9.3,5.8-11.2,10.3c-4,9.2-1.1,22.3,5.6,24.4c4.3,1.3,9.5-2,12.2-5.6
					C-794.3-772.5-801.2-790.7-808.2-791.8z"/>
				<path class="st3" d="M-870.5-745.5c-4.5-0.7-9.3,5.8-11.2,10.3c-4,9.2-1.1,22.3,5.6,24.4c4.3,1.3,9.5-2,12.2-5.6
					C-856.7-726.2-863.6-744.4-870.5-745.5z"/>
				<path class="st3" d="M-847.8-719.3c-4.5-0.7-9.3,5.8-11.2,10.3c-4,9.2-1.1,22.3,5.6,24.4c4.3,1.3,9.5-2,12.2-5.6
					C-834-700-840.9-718.2-847.8-719.3z"/>
				<path class="st3" d="M-845.6-775.2c-4.5-0.7-9.3,5.8-11.2,10.3c-4,9.2-1.1,22.3,5.6,24.4c4.3,1.3,9.5-2,12.2-5.6
					C-831.8-755.9-838.6-774.1-845.6-775.2z"/>
				<path class="st3" d="M-820.6-745.5c-4.5-0.7-9.3,5.8-11.2,10.3c-4,9.2-1.1,22.3,5.6,24.4c4.3,1.3,9.5-2,12.2-5.6
					C-806.8-726.2-813.7-744.4-820.6-745.5z"/>
				<path class="st3" d="M-860.9-838.1c-4.5-0.7-9.3,5.8-11.2,10.3c-4,9.2-1.1,22.3,5.6,24.4c4.3,1.3,9.5-2,12.2-5.6
					C-847.1-818.9-854-837-860.9-838.1z"/>
				<path class="st3" d="M-838.2-811.9c-4.5-0.7-9.3,5.8-11.2,10.3c-4,9.2-1.1,22.3,5.6,24.4c4.3,1.3,9.5-2,12.2-5.6
					C-824.4-792.6-831.2-810.8-838.2-811.9z"/>
				<path class="st3" d="M-835.9-867.8c-4.5-0.7-9.3,5.8-11.2,10.3c-4,9.2-1.1,22.3,5.6,24.4c4.3,1.3,9.5-2,12.2-5.6
					C-822.1-848.5-829-866.7-835.9-867.8z"/>
				<path class="st3" d="M-811-838.1c-4.5-0.7-9.3,5.8-11.2,10.3c-4,9.2-1.1,22.3,5.6,24.4c4.3,1.3,9.5-2,12.2-5.6
					C-797.2-818.9-804.1-837-811-838.1z"/>
			</g>
			<g>
				<path class="st3" d="M-1085.6-1033.9c-4.5-0.7-9.3,5.8-11.2,10.3c-4,9.2-1.1,22.3,5.6,24.4c4.3,1.3,9.5-2,12.2-5.6
					C-1071.7-1014.6-1078.6-1032.7-1085.6-1033.9z"/>
				<path class="st3" d="M-1062.9-1007.6c-4.5-0.7-9.3,5.8-11.2,10.3c-3.9,9.2-1.1,22.3,5.6,24.4c4.3,1.3,9.5-2,12.2-5.6
					C-1049-988.3-1055.9-1006.5-1062.9-1007.6z"/>
				<path class="st3" d="M-1060.6-1063.5c-4.5-0.7-9.3,5.8-11.2,10.3c-3.9,9.2-1.1,22.3,5.6,24.4c4.3,1.3,9.5-2.1,12.2-5.6
					C-1046.8-1044.2-1053.7-1062.4-1060.6-1063.5z"/>
				<path class="st3" d="M-1035.7-1033.9c-4.5-0.7-9.3,5.8-11.2,10.3c-4,9.2-1.1,22.3,5.6,24.4c4.3,1.3,9.5-2,12.2-5.6
					C-1021.8-1014.6-1028.7-1032.7-1035.7-1033.9z"/>
				<path class="st3" d="M-1117.8-958.7c-4.5-0.7-9.3,5.8-11.2,10.3c-4,9.2-1.1,22.3,5.6,24.4c4.3,1.3,9.5-2,12.2-5.6
					C-1104-939.4-1110.9-957.6-1117.8-958.7L-1117.8-958.7z"/>
				<path class="st3" d="M-1095.1-932.5c-4.5-0.7-9.3,5.8-11.2,10.3c-3.9,9.2-1.1,22.3,5.6,24.4c4.3,1.3,9.5-2,12.2-5.6
					C-1081.3-913.2-1088.1-931.4-1095.1-932.5L-1095.1-932.5z"/>
				<path class="st3" d="M-1092.8-988.4c-4.5-0.7-9.3,5.8-11.2,10.3c-3.9,9.2-1.1,22.3,5.6,24.4c4.3,1.3,9.5-2,12.2-5.6
					C-1079-969.1-1085.9-987.3-1092.8-988.4z"/>
				<path class="st3" d="M-1067.9-958.7c-4.5-0.7-9.3,5.8-11.2,10.3c-4,9.2-1.1,22.3,5.6,24.4c4.3,1.3,9.5-2,12.2-5.6
					C-1054.1-939.4-1061-957.6-1067.9-958.7L-1067.9-958.7z"/>
				<path class="st3" d="M-1060.6-911.6c-4.5-0.7-9.3,5.8-11.2,10.3c-3.9,9.2-1.1,22.3,5.6,24.4c4.3,1.3,9.5-2,12.2-5.6
					C-1046.8-892.3-1053.7-910.5-1060.6-911.6z"/>
				<path class="st3" d="M-1037.9-885.3c-4.5-0.7-9.3,5.8-11.2,10.3c-4,9.2-1.1,22.3,5.6,24.4c4.3,1.3,9.5-2,12.2-5.6
					C-1024.1-866-1031-884.2-1037.9-885.3z"/>
				<path class="st3" d="M-1035.7-941.2c-4.5-0.7-9.3,5.8-11.2,10.3c-4,9.2-1.1,22.3,5.6,24.4c4.3,1.3,9.5-2,12.2-5.6
					C-1021.8-921.9-1028.7-940.1-1035.7-941.2z"/>
				<path class="st3" d="M-1010.7-911.6c-4.5-0.7-9.3,5.8-11.2,10.3c-3.9,9.2-1.1,22.3,5.6,24.4c4.3,1.3,9.5-2,12.2-5.6
					C-996.9-892.3-1003.8-910.5-1010.7-911.6z"/>
				<path class="st3" d="M-983-940.4c-4.5-0.7-9.3,5.8-11.2,10.3c-4,9.2-1.1,22.3,5.6,24.4c4.3,1.3,9.5-2,12.2-5.6
					C-969.1-921.1-976-939.3-983-940.4L-983-940.4z"/>
				<path class="st3" d="M-947.1-995.5c-4.5-0.7-9.3,5.8-11.2,10.3c-3.9,9.2-1.1,22.3,5.6,24.4c4.3,1.3,9.5-2,12.2-5.6
					C-933.3-976.2-940.2-994.4-947.1-995.5z"/>
				<path class="st3" d="M-953.8-957.9c-4.5-0.7-9.3,5.8-11.2,10.3c-4,9.2-1.1,22.3,5.6,24.4c4.3,1.3,9.5-2,12.2-5.6
					C-940-938.6-946.9-956.8-953.8-957.9L-953.8-957.9z"/>
				<path class="st3" d="M-970.5-1033c-4.5-0.7-9.3,5.8-11.2,10.3c-3.9,9.2-1.1,22.3,5.6,24.4c4.3,1.3,9.5-2,12.2-5.6
					C-956.7-1013.7-963.5-1031.9-970.5-1033z"/>
				<path class="st3" d="M-1032.9-986.7c-4.5-0.7-9.3,5.8-11.2,10.3c-3.9,9.2-1.1,22.3,5.6,24.4c4.3,1.3,9.5-2,12.2-5.6
					C-1019-967.4-1025.9-985.6-1032.9-986.7z"/>
				<path class="st3" d="M-1010.1-960.4c-4.5-0.7-9.3,5.8-11.2,10.3c-4,9.2-1.1,22.3,5.6,24.4c4.3,1.3,9.5-2,12.2-5.6
					C-996.3-941.1-1003.2-959.3-1010.1-960.4z"/>
				<path class="st3" d="M-1007.9-1016.3c-4.5-0.7-9.3,5.8-11.2,10.3c-4,9.2-1.1,22.3,5.6,24.4c4.3,1.3,9.5-2,12.2-5.6
					C-994.1-997-1001-1015.2-1007.9-1016.3z"/>
				<path class="st3" d="M-983-986.7c-4.5-0.7-9.3,5.8-11.2,10.3c-4,9.2-1.1,22.3,5.6,24.4c4.3,1.3,9.5-2,12.2-5.6
					C-969.1-967.4-976-985.6-983-986.7z"/>
				<path class="st3" d="M-1023.2-1079.3c-4.5-0.7-9.3,5.8-11.2,10.3c-3.9,9.2-1.1,22.3,5.6,24.4c4.3,1.3,9.5-2,12.2-5.6
					C-1009.4-1060-1016.3-1078.2-1023.2-1079.3z"/>
				<path class="st3" d="M-1000.5-1053.1c-4.5-0.7-9.3,5.8-11.2,10.3c-4,9.2-1.1,22.3,5.6,24.4c4.3,1.3,9.5-2,12.2-5.6
					C-986.7-1033.8-993.6-1052-1000.5-1053.1z"/>
				<path class="st3" d="M-998.3-1109c-4.5-0.7-9.3,5.8-11.2,10.3c-4,9.2-1.1,22.3,5.6,24.4c4.3,1.3,9.5-2,12.2-5.6
					C-984.5-1089.7-991.3-1107.9-998.3-1109z"/>
				<path class="st3" d="M-973.3-1079.3c-4.5-0.7-9.3,5.8-11.2,10.3c-4,9.2-1.1,22.3,5.6,24.4c4.3,1.3,9.5-2,12.2-5.6
					C-959.5-1060-966.4-1078.2-973.3-1079.3z"/>
			</g>
			<g>
				<path class="st3" d="M-777.6-542.8c-4.5-0.7-9.3,5.8-11.2,10.3c-4,9.2-1.1,22.3,5.6,24.4c4.3,1.3,9.5-2,12.2-5.6
					C-763.8-523.5-770.7-541.7-777.6-542.8z"/>
				<path class="st3" d="M-754.9-516.5c-4.5-0.7-9.3,5.8-11.2,10.3c-4,9.2-1.1,22.3,5.6,24.4c4.3,1.3,9.5-2,12.2-5.6
					C-741.1-497.2-747.9-515.4-754.9-516.5z"/>
				<path class="st3" d="M-752.7-572.4c-4.5-0.7-9.3,5.8-11.2,10.3c-4,9.2-1.1,22.3,5.6,24.4c4.3,1.3,9.5-2,12.2-5.6
					C-738.8-553.1-745.7-571.3-752.7-572.4z"/>
				<path class="st3" d="M-727.7-542.8c-4.5-0.7-9.3,5.8-11.2,10.3c-4,9.2-1.1,22.3,5.6,24.4c4.3,1.3,9.5-2,12.2-5.6
					C-713.9-523.5-720.8-541.7-727.7-542.8z"/>
				<path class="st3" d="M-809.8-467.7c-4.5-0.7-9.3,5.8-11.2,10.3c-4,9.2-1.1,22.3,5.6,24.4c4.3,1.3,9.5-2,12.2-5.6
					C-796-448.4-802.9-466.5-809.8-467.7z"/>
				<path class="st3" d="M-787.1-441.4c-4.5-0.7-9.3,5.8-11.2,10.3c-4,9.2-1.1,22.3,5.6,24.4c4.3,1.3,9.5-2.1,12.2-5.6
					C-773.3-422.1-780.2-440.3-787.1-441.4z"/>
				<path class="st3" d="M-784.9-497.3c-4.5-0.7-9.3,5.8-11.2,10.3c-4,9.2-1.1,22.3,5.6,24.4c4.3,1.3,9.5-2,12.2-5.6
					C-771.1-478-777.9-496.2-784.9-497.3z"/>
				<path class="st3" d="M-759.9-467.7c-4.5-0.7-9.3,5.8-11.2,10.3c-4,9.2-1.1,22.3,5.6,24.4c4.3,1.3,9.5-2,12.2-5.6
					C-746.1-448.4-753-466.5-759.9-467.7z"/>
				<path class="st3" d="M-752.7-420.5c-4.5-0.7-9.3,5.8-11.2,10.3c-4,9.2-1.1,22.3,5.6,24.4c4.3,1.3,9.5-2.1,12.2-5.6
					C-738.8-401.2-745.7-419.4-752.7-420.5z"/>
				<path class="st3" d="M-727.7-450.1c-4.5-0.7-9.3,5.8-11.2,10.3c-4,9.2-1.1,22.3,5.6,24.4c4.3,1.3,9.5-2.1,12.2-5.6
					C-713.9-430.9-720.8-449-727.7-450.1z"/>
				<path class="st3" d="M-702.8-420.5c-4.5-0.7-9.3,5.8-11.2,10.3c-4,9.2-1.1,22.3,5.6,24.4c4.3,1.3,9.5-2.1,12.2-5.6
					C-688.9-401.2-695.8-419.4-702.8-420.5z"/>
				<path class="st3" d="M-675-449.3c-4.5-0.7-9.3,5.8-11.2,10.3c-4,9.2-1.1,22.3,5.6,24.4c4.3,1.3,9.5-2.1,12.2-5.6
					C-661.2-430-668.1-448.2-675-449.3z"/>
				<path class="st3" d="M-639.1-504.4c-4.5-0.7-9.3,5.8-11.2,10.3c-4,9.2-1.1,22.3,5.6,24.4c4.3,1.3,9.5-2,12.2-5.6
					C-625.3-485.1-632.2-503.3-639.1-504.4z"/>
				<path class="st3" d="M-645.8-466.8c-4.5-0.7-9.3,5.8-11.2,10.3c-4,9.2-1.1,22.3,5.6,24.4c4.3,1.3,9.5-2,12.2-5.6
					C-632-447.5-638.9-465.7-645.8-466.8z"/>
				<path class="st3" d="M-662.5-541.9c-4.5-0.7-9.3,5.8-11.2,10.3c-4,9.2-1.1,22.3,5.6,24.4c4.3,1.3,9.5-2,12.2-5.6
					C-648.7-522.6-655.6-540.8-662.5-541.9z"/>
				<path class="st3" d="M-724.9-495.6c-4.5-0.7-9.3,5.8-11.2,10.3c-4,9.2-1.1,22.3,5.6,24.4c4.3,1.3,9.5-2,12.2-5.6
					C-711.1-476.3-717.9-494.5-724.9-495.6z"/>
				<path class="st3" d="M-702.2-469.4c-4.5-0.7-9.3,5.8-11.2,10.3c-4,9.2-1.1,22.3,5.6,24.4c4.3,1.3,9.5-2,12.2-5.6
					C-688.4-450.1-695.2-468.2-702.2-469.4L-702.2-469.4z"/>
				<path class="st3" d="M-699.9-525.3c-4.5-0.7-9.3,5.8-11.2,10.3c-4,9.2-1.1,22.3,5.6,24.4c4.3,1.3,9.5-2,12.2-5.6
					C-686.1-506-693-524.1-699.9-525.3z"/>
				<path class="st3" d="M-675-495.6c-4.5-0.7-9.3,5.8-11.2,10.3c-4,9.2-1.1,22.3,5.6,24.4c4.3,1.3,9.5-2,12.2-5.6
					C-661.2-476.3-668.1-494.5-675-495.6z"/>
				<path class="st3" d="M-715.3-588.2c-4.5-0.7-9.3,5.8-11.2,10.3c-4,9.2-1.1,22.3,5.6,24.4c4.3,1.3,9.5-2,12.2-5.6
					C-701.4-569-708.3-587.1-715.3-588.2z"/>
				<path class="st3" d="M-692.5-562c-4.5-0.7-9.3,5.8-11.2,10.3c-4,9.2-1.1,22.3,5.6,24.4c4.3,1.3,9.5-2,12.2-5.6
					C-678.7-542.7-685.6-560.9-692.5-562z"/>
				<path class="st3" d="M-690.3-617.9c-4.5-0.7-9.3,5.8-11.2,10.3c-4,9.2-1.1,22.3,5.6,24.4c4.3,1.3,9.5-2,12.2-5.6
					C-676.5-598.6-683.4-616.8-690.3-617.9z"/>
				<path class="st3" d="M-665.4-588.2c-4.5-0.7-9.3,5.8-11.2,10.3c-4,9.2-1.1,22.3,5.6,24.4c4.3,1.3,9.5-2,12.2-5.6
					C-651.5-569-658.4-587.1-665.4-588.2z"/>
			</g>
			<g>
				<path class="st3" d="M-1107.9-549.8c-4.5-0.7-9.3,5.8-11.2,10.3c-3.9,9.2-1.1,22.3,5.6,24.4c4.3,1.3,9.5-2,12.2-5.6
					C-1094.1-530.5-1100.9-548.7-1107.9-549.8z"/>
				<path class="st3" d="M-1085.2-523.6c-4.5-0.7-9.3,5.8-11.2,10.3c-4,9.2-1.1,22.3,5.6,24.4c4.3,1.3,9.5-2,12.2-5.6
					C-1071.4-504.3-1078.2-522.5-1085.2-523.6z"/>
				<path class="st3" d="M-1082.9-579.5c-4.5-0.7-9.3,5.8-11.2,10.3c-4,9.2-1.1,22.3,5.6,24.4c4.3,1.3,9.5-2,12.2-5.6
					C-1069.1-560.2-1076-578.4-1082.9-579.5z"/>
				<path class="st3" d="M-1058-549.8c-4.5-0.7-9.3,5.8-11.2,10.3c-3.9,9.2-1.1,22.3,5.6,24.4c4.3,1.3,9.5-2,12.2-5.6
					C-1044.2-530.5-1051-548.7-1058-549.8z"/>
				<path class="st3" d="M-1140.1-474.7c-4.5-0.7-9.3,5.8-11.2,10.3c-3.9,9.2-1.1,22.3,5.6,24.4c4.3,1.3,9.5-2,12.2-5.6
					C-1126.3-455.4-1133.2-473.6-1140.1-474.7z"/>
				<path class="st3" d="M-1117.4-448.5c-4.5-0.7-9.3,5.8-11.2,10.3c-4,9.2-1.1,22.3,5.6,24.4c4.3,1.3,9.5-2.1,12.2-5.6
					C-1103.6-429.2-1110.5-447.4-1117.4-448.5L-1117.4-448.5z"/>
				<path class="st3" d="M-1115.2-504.4c-4.5-0.7-9.3,5.8-11.2,10.3c-4,9.2-1.1,22.3,5.6,24.4c4.3,1.3,9.5-2,12.2-5.6
					C-1101.4-485.1-1108.2-503.3-1115.2-504.4z"/>
				<path class="st3" d="M-1090.2-474.7c-4.5-0.7-9.3,5.8-11.2,10.3c-3.9,9.2-1.1,22.3,5.6,24.4c4.3,1.3,9.5-2,12.2-5.6
					C-1076.4-455.4-1083.3-473.6-1090.2-474.7z"/>
				<path class="st3" d="M-1082.9-427.5c-4.5-0.7-9.3,5.8-11.2,10.3c-4,9.2-1.1,22.3,5.6,24.4c4.3,1.3,9.5-2.1,12.2-5.6
					C-1069.1-408.3-1076-426.4-1082.9-427.5L-1082.9-427.5z"/>
				<path class="st3" d="M-1058-457.2c-4.5-0.7-9.3,5.8-11.2,10.3c-3.9,9.2-1.1,22.3,5.6,24.4c4.3,1.3,9.5-2,12.2-5.6
					C-1044.2-437.9-1051-456.1-1058-457.2z"/>
				<path class="st3" d="M-1033-427.5c-4.5-0.7-9.3,5.8-11.2,10.3c-4,9.2-1.1,22.3,5.6,24.4c4.3,1.3,9.5-2.1,12.2-5.6
					C-1019.2-408.3-1026.1-426.4-1033-427.5L-1033-427.5z"/>
				<path class="st3" d="M-1005.3-456.3c-4.5-0.7-9.3,5.8-11.2,10.3c-4,9.2-1.1,22.3,5.6,24.4c4.3,1.3,9.5-2,12.2-5.6
					C-991.5-437.1-998.3-455.2-1005.3-456.3z"/>
				<path class="st3" d="M-969.4-511.4c-4.5-0.7-9.3,5.8-11.2,10.3c-4,9.2-1.1,22.3,5.6,24.4c4.3,1.3,9.5-2,12.2-5.6
					C-955.6-492.2-962.5-510.3-969.4-511.4z"/>
				<path class="st3" d="M-976.1-473.9c-4.5-0.7-9.3,5.8-11.2,10.3c-4,9.2-1.1,22.3,5.6,24.4c4.3,1.3,9.5-2,12.2-5.6
					C-962.3-454.6-969.2-472.8-976.1-473.9z"/>
				<path class="st3" d="M-992.8-549c-4.5-0.7-9.3,5.8-11.2,10.3c-4,9.2-1.1,22.3,5.6,24.4c4.3,1.3,9.5-2,12.2-5.6
					C-979-529.7-985.9-547.9-992.8-549z"/>
				<path class="st3" d="M-1055.2-502.7c-4.5-0.7-9.3,5.8-11.2,10.3c-4,9.2-1.1,22.3,5.6,24.4c4.3,1.3,9.5-2,12.2-5.6
					C-1041.4-483.4-1048.2-501.6-1055.2-502.7z"/>
				<path class="st3" d="M-1032.5-476.4c-4.5-0.7-9.3,5.8-11.2,10.3c-3.9,9.2-1.1,22.3,5.6,24.4c4.3,1.3,9.5-2,12.2-5.6
					C-1018.6-457.1-1025.5-475.3-1032.5-476.4z"/>
				<path class="st3" d="M-1030.2-532.3c-4.5-0.7-9.3,5.8-11.2,10.3c-3.9,9.2-1.1,22.3,5.6,24.4c4.3,1.3,9.5-2,12.2-5.6
					C-1016.4-513-1023.3-531.2-1030.2-532.3z"/>
				<path class="st3" d="M-1005.3-502.7c-4.5-0.7-9.3,5.8-11.2,10.3c-4,9.2-1.1,22.3,5.6,24.4c4.3,1.3,9.5-2,12.2-5.6
					C-991.5-483.4-998.3-501.6-1005.3-502.7z"/>
				<path class="st3" d="M-1045.5-595.3c-4.5-0.7-9.3,5.8-11.2,10.3c-4,9.2-1.1,22.3,5.6,24.4c4.3,1.3,9.5-2,12.2-5.6
					C-1031.7-576-1038.6-594.2-1045.5-595.3z"/>
				<path class="st3" d="M-1022.8-569.1c-4.5-0.7-9.3,5.8-11.2,10.3c-3.9,9.2-1.1,22.3,5.6,24.4c4.3,1.3,9.5-2,12.2-5.6
					C-1009-549.8-1015.9-567.9-1022.8-569.1z"/>
				<path class="st3" d="M-1020.6-625c-4.5-0.7-9.3,5.8-11.2,10.3c-3.9,9.2-1.1,22.3,5.6,24.4c4.3,1.3,9.5-2,12.2-5.6
					C-1006.8-605.7-1013.7-623.8-1020.6-625z"/>
				<path class="st3" d="M-995.6-595.3c-4.5-0.7-9.3,5.8-11.2,10.3c-4,9.2-1.1,22.3,5.6,24.4c4.3,1.3,9.5-2,12.2-5.6
					C-981.8-576-988.7-594.2-995.6-595.3z"/>
			</g>
			<g>
				<path class="st3" d="M-726.3-1022.5c-4.5-0.7-9.3,5.8-11.2,10.3c-4,9.2-1.1,22.3,5.6,24.4c4.3,1.3,9.5-2,12.2-5.6
					C-712.5-1003.2-719.4-1021.4-726.3-1022.5z"/>
				<path class="st3" d="M-703.6-996.3c-4.5-0.7-9.3,5.8-11.2,10.3c-4,9.2-1.1,22.3,5.6,24.4c4.3,1.3,9.5-2,12.2-5.6
					C-689.8-977-696.7-995.2-703.6-996.3z"/>
				<path class="st3" d="M-701.4-1052.2c-4.5-0.7-9.3,5.8-11.2,10.3c-4,9.2-1.1,22.3,5.6,24.4c4.3,1.3,9.5-2,12.2-5.6
					C-687.6-1032.9-694.4-1051.1-701.4-1052.2z"/>
				<path class="st3" d="M-676.4-1022.5c-4.5-0.7-9.3,5.8-11.2,10.3c-4,9.2-1.1,22.3,5.6,24.4c4.3,1.3,9.5-2,12.2-5.6
					C-662.6-1003.2-669.5-1021.4-676.4-1022.5z"/>
				<path class="st3" d="M-758.6-947.4c-4.5-0.7-9.3,5.8-11.2,10.3c-4,9.2-1.1,22.3,5.6,24.4c4.3,1.3,9.5-2,12.2-5.6
					C-744.7-928.1-751.6-946.3-758.6-947.4L-758.6-947.4z"/>
				<path class="st3" d="M-735.8-921.2c-4.5-0.7-9.3,5.8-11.2,10.3c-4,9.2-1.1,22.3,5.6,24.4c4.3,1.3,9.5-2,12.2-5.6
					C-722-901.9-728.9-920-735.8-921.2z"/>
				<path class="st3" d="M-733.6-977.1c-4.5-0.7-9.3,5.8-11.2,10.3c-4,9.2-1.1,22.3,5.6,24.4c4.3,1.3,9.5-2,12.2-5.6
					C-719.8-957.8-726.7-976-733.6-977.1z"/>
				<path class="st3" d="M-708.7-947.4c-4.5-0.7-9.3,5.8-11.2,10.3c-4,9.2-1.1,22.3,5.6,24.4c4.3,1.3,9.5-2,12.2-5.6
					C-694.8-928.1-701.7-946.3-708.7-947.4L-708.7-947.4z"/>
				<path class="st3" d="M-701.4-900.2c-4.5-0.7-9.3,5.8-11.2,10.3c-4,9.2-1.1,22.3,5.6,24.4c4.3,1.3,9.5-2,12.2-5.6
					C-687.6-881-694.4-899.1-701.4-900.2z"/>
				<path class="st3" d="M-678.7-874c-4.5-0.7-9.3,5.8-11.2,10.3c-4,9.2-1.1,22.3,5.6,24.4c4.3,1.3,9.5-2,12.2-5.6
					C-664.8-854.7-671.7-872.9-678.7-874z"/>
				<path class="st3" d="M-676.4-929.9c-4.5-0.7-9.3,5.8-11.2,10.3c-4,9.2-1.1,22.3,5.6,24.4c4.3,1.3,9.5-2,12.2-5.6
					C-662.6-910.6-669.5-928.8-676.4-929.9z"/>
				<path class="st3" d="M-651.5-900.2c-4.5-0.7-9.3,5.8-11.2,10.3c-4,9.2-1.1,22.3,5.6,24.4c4.3,1.3,9.5-2,12.2-5.6
					C-637.7-881-644.5-899.1-651.5-900.2z"/>
				<path class="st3" d="M-623.7-929c-4.5-0.7-9.3,5.8-11.2,10.3c-4,9.2-1.1,22.3,5.6,24.4c4.3,1.3,9.5-2,12.2-5.6
					C-609.9-909.8-616.8-927.9-623.7-929z"/>
				<path class="st3" d="M-587.9-984.1c-4.5-0.7-9.3,5.8-11.2,10.3c-4,9.2-1.1,22.3,5.6,24.4c4.3,1.3,9.5-2,12.2-5.6
					C-574.1-964.9-580.9-983-587.9-984.1z"/>
				<path class="st3" d="M-594.6-946.6c-4.5-0.7-9.3,5.8-11.2,10.3c-4,9.2-1.1,22.3,5.6,24.4c4.3,1.3,9.5-2,12.2-5.6
					C-580.7-927.3-587.6-945.4-594.6-946.6L-594.6-946.6z"/>
				<path class="st3" d="M-611.2-1021.7c-4.5-0.7-9.3,5.8-11.2,10.3c-4,9.2-1.1,22.3,5.6,24.4c4.3,1.3,9.5-2,12.2-5.6
					C-597.4-1002.4-604.3-1020.6-611.2-1021.7z"/>
				<path class="st3" d="M-673.6-975.4c-4.5-0.7-9.3,5.8-11.2,10.3c-4,9.2-1.1,22.3,5.6,24.4c4.3,1.3,9.5-2,12.2-5.6
					C-659.8-956.1-666.7-974.2-673.6-975.4z"/>
				<path class="st3" d="M-650.9-949.1c-4.5-0.7-9.3,5.8-11.2,10.3c-4,9.3-1.1,22.3,5.6,24.4c4.3,1.3,9.5-2,12.2-5.6
					C-637.1-929.8-644-948-650.9-949.1L-650.9-949.1z"/>
				<path class="st3" d="M-648.7-1005c-4.5-0.7-9.3,5.8-11.2,10.3c-4,9.2-1.1,22.3,5.6,24.4c4.3,1.3,9.5-2,12.2-5.6
					C-634.8-985.7-641.7-1003.9-648.7-1005z"/>
				<path class="st3" d="M-623.7-975.4c-4.5-0.7-9.3,5.8-11.2,10.3c-4,9.2-1.1,22.3,5.6,24.4c4.3,1.3,9.5-2,12.2-5.6
					C-609.9-956.1-616.8-974.2-623.7-975.4z"/>
				<path class="st3" d="M-664-1068c-4.5-0.7-9.3,5.8-11.2,10.3c-4,9.2-1.1,22.3,5.6,24.4c4.3,1.3,9.5-2.1,12.2-5.6
					C-650.2-1048.7-657-1066.9-664-1068z"/>
				<path class="st3" d="M-641.3-1041.7c-4.5-0.7-9.3,5.8-11.2,10.3c-4,9.2-1.1,22.3,5.6,24.4c4.3,1.3,9.5-2,12.2-5.6
					C-627.5-1022.5-634.3-1040.6-641.3-1041.7z"/>
				<path class="st3" d="M-639-1097.6c-4.5-0.7-9.3,5.8-11.2,10.3c-4,9.2-1.1,22.3,5.6,24.4c4.3,1.3,9.5-2.1,12.2-5.6
					C-625.2-1078.4-632.1-1096.5-639-1097.6z"/>
				<path class="st3" d="M-614.1-1068c-4.5-0.7-9.3,5.8-11.2,10.3c-4,9.2-1.1,22.3,5.6,24.4c4.3,1.3,9.5-2.1,12.2-5.6
					C-600.3-1048.7-607.1-1066.9-614.1-1068z"/>
			</g>
			<g>
				<path class="st3" d="M-544.3-1265.4c-4.5-0.7-9.3,5.8-11.2,10.3c-4,9.2-1.1,22.3,5.6,24.4c4.3,1.3,9.5-2.1,12.2-5.6
					C-530.5-1246.1-537.3-1264.3-544.3-1265.4z"/>
				<path class="st3" d="M-521.6-1239.1c-4.5-0.7-9.3,5.8-11.2,10.3c-4,9.2-1.1,22.3,5.6,24.4c4.3,1.3,9.5-2.1,12.2-5.6
					C-507.8-1219.8-514.6-1238-521.6-1239.1z"/>
				<path class="st3" d="M-519.3-1295c-4.5-0.7-9.3,5.8-11.2,10.3c-4,9.2-1.1,22.3,5.6,24.4c4.3,1.3,9.5-2.1,12.2-5.6
					C-505.5-1275.7-512.4-1293.9-519.3-1295z"/>
				<path class="st3" d="M-494.4-1265.4c-4.5-0.7-9.3,5.8-11.2,10.3c-4,9.2-1.1,22.3,5.6,24.4c4.3,1.3,9.5-2.1,12.2-5.6
					C-480.6-1246.1-487.4-1264.3-494.4-1265.4z"/>
				<path class="st3" d="M-576.5-1190.3c-4.5-0.7-9.3,5.8-11.2,10.3c-4,9.2-1.1,22.3,5.6,24.4c4.3,1.3,9.5-2.1,12.2-5.6
					C-562.7-1171-569.6-1189.1-576.5-1190.3z"/>
				<path class="st3" d="M-553.8-1164c-4.5-0.7-9.3,5.8-11.2,10.3c-4,9.2-1.1,22.3,5.6,24.4c4.3,1.3,9.5-2.1,12.2-5.6
					C-540-1144.7-546.9-1162.9-553.8-1164z"/>
				<path class="st3" d="M-551.6-1219.9c-4.5-0.7-9.3,5.8-11.2,10.3c-4,9.2-1.1,22.3,5.6,24.4c4.3,1.3,9.5-2.1,12.2-5.6
					C-537.7-1200.6-544.6-1218.8-551.6-1219.9L-551.6-1219.9z"/>
				<path class="st3" d="M-526.6-1190.3c-4.5-0.7-9.3,5.8-11.2,10.3c-4,9.2-1.1,22.3,5.6,24.4c4.3,1.3,9.5-2.1,12.2-5.6
					C-512.8-1171-519.7-1189.1-526.6-1190.3z"/>
				<path class="st3" d="M-519.3-1143.1c-4.5-0.7-9.3,5.8-11.2,10.3c-4,9.2-1.1,22.3,5.6,24.4c4.3,1.3,9.5-2,12.2-5.6
					C-505.5-1123.8-512.4-1142-519.3-1143.1z"/>
				<path class="st3" d="M-496.6-1116.8c-4.5-0.7-9.3,5.8-11.2,10.3c-4,9.2-1.1,22.3,5.6,24.4c4.3,1.3,9.5-2,12.2-5.6
					C-482.8-1097.5-489.7-1115.7-496.6-1116.8z"/>
				<path class="st3" d="M-494.4-1172.7c-4.5-0.7-9.3,5.8-11.2,10.3c-4,9.2-1.1,22.3,5.6,24.4c4.3,1.3,9.5-2.1,12.2-5.6
					C-480.6-1153.4-487.4-1171.6-494.4-1172.7z"/>
				<path class="st3" d="M-491.6-1218.2c-4.5-0.7-9.3,5.8-11.2,10.3c-4,9.2-1.1,22.3,5.6,24.4c4.3,1.3,9.5-2,12.2-5.6
					C-477.8-1198.9-484.6-1217.1-491.6-1218.2z"/>
				<path class="st3" d="M-481.9-1310.8c-4.5-0.7-9.3,5.8-11.2,10.3c-4,9.2-1.1,22.3,5.6,24.4c4.3,1.3,9.5-2,12.2-5.6
					C-468.1-1291.6-475-1309.7-481.9-1310.8z"/>
			</g>
			<g>
				<path class="st3" d="M-697-1470.7c-4.5-0.7-9.3,5.8-11.2,10.3c-4,9.2-1.1,22.3,5.6,24.4c4.3,1.3,9.5-2,12.2-5.6
					C-683.1-1451.4-690-1469.6-697-1470.7L-697-1470.7z"/>
				<path class="st3" d="M-751.9-1421.8c-4.5-0.7-9.3,5.8-11.2,10.3c-4,9.2-1.1,22.3,5.6,24.4c4.3,1.3,9.5-2,12.2-5.6
					C-738.1-1402.5-745-1420.7-751.9-1421.8z"/>
				<path class="st3" d="M-729.2-1395.6c-4.5-0.7-9.3,5.8-11.2,10.3c-4,9.2-1.1,22.3,5.6,24.4c4.3,1.3,9.5-2.1,12.2-5.6
					C-715.4-1376.3-722.3-1394.5-729.2-1395.6z"/>
				<path class="st3" d="M-727-1451.5c-4.5-0.7-9.3,5.8-11.2,10.3c-4,9.2-1.1,22.3,5.6,24.4c4.3,1.3,9.5-2.1,12.2-5.6
					C-713.1-1432.2-720-1450.4-727-1451.5z"/>
				<path class="st3" d="M-702-1421.8c-4.5-0.7-9.3,5.8-11.2,10.3c-4,9.2-1.1,22.3,5.6,24.4c4.3,1.3,9.5-2,12.2-5.6
					C-688.2-1402.5-695.1-1420.7-702-1421.8z"/>
				<path class="st3" d="M-694.7-1374.7c-4.5-0.7-9.3,5.8-11.2,10.3c-4,9.2-1.1,22.3,5.6,24.4c4.3,1.3,9.5-2,12.2-5.6
					C-680.9-1355.4-687.8-1373.6-694.7-1374.7z"/>
				<path class="st3" d="M-672-1348.4c-4.5-0.7-9.3,5.8-11.2,10.3c-4,9.2-1.1,22.3,5.6,24.4c4.3,1.3,9.5-2.1,12.2-5.6
					C-658.2-1329.1-665.1-1347.3-672-1348.4z"/>
				<path class="st3" d="M-669.8-1404.3c-4.5-0.7-9.3,5.8-11.2,10.3c-4,9.2-1.1,22.3,5.6,24.4c4.3,1.3,9.5-2,12.2-5.6
					C-656-1385-662.8-1403.2-669.8-1404.3z"/>
				<path class="st3" d="M-644.8-1374.7c-4.5-0.7-9.3,5.8-11.2,10.3c-4,9.2-1.1,22.3,5.6,24.4c4.3,1.3,9.5-2,12.2-5.6
					C-631-1355.4-637.9-1373.6-644.8-1374.7z"/>
				<path class="st3" d="M-617.1-1403.5c-4.5-0.7-9.3,5.8-11.2,10.3c-4,9.2-1.1,22.3,5.6,24.4c4.3,1.3,9.5-2.1,12.2-5.6
					C-603.2-1384.2-610.1-1402.4-617.1-1403.5z"/>
				<path class="st3" d="M-581.2-1458.6c-4.5-0.7-9.3,5.8-11.2,10.3c-4,9.2-1.1,22.3,5.6,24.4c4.3,1.3,9.5-2,12.2-5.6
					C-567.4-1439.3-574.3-1457.5-581.2-1458.6z"/>
				<path class="st3" d="M-587.9-1421c-4.5-0.7-9.3,5.8-11.2,10.3c-4,9.2-1.1,22.3,5.6,24.4c4.3,1.3,9.5-2.1,12.2-5.6
					C-574.1-1401.7-581-1419.9-587.9-1421z"/>
				<path class="st3" d="M-667-1449.8c-4.5-0.7-9.3,5.8-11.2,10.3c-4,9.2-1.1,22.3,5.6,24.4c4.3,1.3,9.5-2.1,12.2-5.6
					C-653.1-1430.5-660-1448.7-667-1449.8z"/>
				<path class="st3" d="M-644.3-1423.5c-4.5-0.7-9.3,5.8-11.2,10.3c-4,9.2-1.1,22.3,5.6,24.4c4.3,1.3,9.5-2.1,12.2-5.6
					C-630.4-1404.2-637.3-1422.4-644.3-1423.5z"/>
				<path class="st3" d="M-617.1-1449.8c-4.5-0.7-9.3,5.8-11.2,10.3c-4,9.2-1.1,22.3,5.6,24.4c4.3,1.3,9.5-2.1,12.2-5.6
					C-603.2-1430.5-610.1-1448.7-617.1-1449.8z"/>
			</g>
			<g>
				<path class="st3" d="M-1198.6-1227.9c-4.5-0.7-9.3,5.8-11.2,10.3c-3.9,9.2-1.1,22.3,5.6,24.4c4.3,1.3,9.5-2.1,12.2-5.6
					C-1184.8-1208.6-1191.7-1226.7-1198.6-1227.9z"/>
				<path class="st3" d="M-1200.8-1079.3c-4.5-0.7-9.3,5.8-11.2,10.3c-3.9,9.2-1.1,22.3,5.6,24.4c4.3,1.3,9.5-2,12.2-5.6
					C-1187-1060-1193.9-1078.2-1200.8-1079.3z"/>
				<path class="st3" d="M-1198.6-1135.2c-4.5-0.7-9.3,5.8-11.2,10.3c-3.9,9.2-1.1,22.3,5.6,24.4c4.3,1.3,9.5-2,12.2-5.6
					C-1184.8-1115.9-1191.7-1134.1-1198.6-1135.2z"/>
				<path class="st3" d="M-1173.7-1105.6c-4.5-0.7-9.3,5.8-11.2,10.3c-4,9.2-1.1,22.3,5.6,24.4c4.3,1.3,9.5-2,12.2-5.6
					C-1159.8-1086.3-1166.7-1104.5-1173.7-1105.6z"/>
				<path class="st3" d="M-1145.9-1134.4c-4.5-0.7-9.3,5.8-11.2,10.3c-4,9.2-1.1,22.3,5.6,24.4c4.3,1.3,9.5-2.1,12.2-5.6
					C-1132.1-1115.1-1139-1133.3-1145.9-1134.4z"/>
				<path class="st3" d="M-1110.1-1189.5c-4.5-0.7-9.3,5.8-11.2,10.3c-4,9.2-1.1,22.3,5.6,24.4c4.3,1.3,9.5-2.1,12.2-5.6
					C-1096.2-1170.2-1103.1-1188.4-1110.1-1189.5L-1110.1-1189.5z"/>
				<path class="st3" d="M-1116.7-1151.9c-4.5-0.7-9.3,5.8-11.2,10.3c-3.9,9.2-1.1,22.3,5.6,24.4c4.3,1.3,9.5-2.1,12.2-5.6
					C-1102.9-1132.6-1109.8-1150.8-1116.7-1151.9z"/>
				<path class="st3" d="M-1133.4-1227c-4.5-0.7-9.3,5.8-11.2,10.3c-4,9.2-1.1,22.3,5.6,24.4c4.3,1.3,9.5-2.1,12.2-5.6
					C-1119.6-1207.7-1126.5-1225.9-1133.4-1227z"/>
				<path class="st3" d="M-1195.8-1180.7c-4.5-0.7-9.3,5.8-11.2,10.3c-4,9.2-1.1,22.3,5.6,24.4c4.3,1.3,9.5-2,12.2-5.6
					C-1182-1161.4-1188.9-1179.6-1195.8-1180.7z"/>
				<path class="st3" d="M-1173.1-1154.4c-4.5-0.7-9.3,5.8-11.2,10.3c-3.9,9.2-1.1,22.3,5.6,24.4c4.3,1.3,9.5-2,12.2-5.6
					C-1159.3-1135.1-1166.1-1153.3-1173.1-1154.4z"/>
				<path class="st3" d="M-1170.9-1210.3c-4.5-0.7-9.3,5.8-11.2,10.3c-3.9,9.2-1.1,22.3,5.6,24.4c4.3,1.3,9.5-2.1,12.2-5.6
					C-1157-1191-1163.9-1209.2-1170.9-1210.3L-1170.9-1210.3z"/>
				<path class="st3" d="M-1145.9-1180.7c-4.5-0.7-9.3,5.8-11.2,10.3c-4,9.2-1.1,22.3,5.6,24.4c4.3,1.3,9.5-2,12.2-5.6
					C-1132.1-1161.4-1139-1179.6-1145.9-1180.7z"/>
				<path class="st3" d="M-1186.2-1273.3c-4.5-0.7-9.3,5.8-11.2,10.3c-4,9.2-1.1,22.3,5.6,24.4c4.3,1.3,9.5-2,12.2-5.6
					C-1172.3-1254-1179.2-1272.2-1186.2-1273.3z"/>
				<path class="st3" d="M-1163.5-1247.1c-4.5-0.7-9.3,5.8-11.2,10.3c-3.9,9.2-1.1,22.3,5.6,24.4c4.3,1.3,9.5-2,12.2-5.6
					C-1149.6-1227.8-1156.5-1246-1163.5-1247.1z"/>
				<path class="st3" d="M-1161.2-1303c-4.5-0.7-9.3,5.8-11.2,10.3c-3.9,9.2-1.1,22.3,5.6,24.4c4.3,1.3,9.5-2.1,12.2-5.6
					C-1147.4-1283.7-1154.3-1301.9-1161.2-1303z"/>
				<path class="st3" d="M-1136.3-1273.3c-4.5-0.7-9.3,5.8-11.2,10.3c-4,9.2-1.1,22.3,5.6,24.4c4.3,1.3,9.5-2,12.2-5.6
					C-1122.5-1254-1129.3-1272.2-1136.3-1273.3z"/>
			</g>
			<g>
				<path class="st3" d="M-904.1-1229.5c-4.5-0.7-9.3,5.8-11.2,10.3c-4,9.2-1.1,22.3,5.6,24.4c4.3,1.3,9.5-2.1,12.2-5.6
					C-890.3-1210.2-897.2-1228.4-904.1-1229.5z"/>
				<path class="st3" d="M-881.4-1203.3c-4.5-0.7-9.3,5.8-11.2,10.3c-4,9.2-1.1,22.3,5.6,24.4c4.3,1.3,9.5-2,12.2-5.6
					C-867.6-1184-874.5-1202.2-881.4-1203.3L-881.4-1203.3z"/>
				<path class="st3" d="M-879.2-1259.2c-4.5-0.7-9.3,5.8-11.2,10.3c-4,9.2-1.1,22.3,5.6,24.4c4.3,1.3,9.5-2,12.2-5.6
					C-865.4-1239.9-872.3-1258.1-879.2-1259.2z"/>
				<path class="st3" d="M-854.2-1229.5c-4.5-0.7-9.3,5.8-11.2,10.3c-4,9.2-1.1,22.3,5.6,24.4c4.3,1.3,9.5-2.1,12.2-5.6
					C-840.4-1210.2-847.3-1228.4-854.2-1229.5z"/>
				<path class="st3" d="M-936.4-1154.4c-4.5-0.7-9.3,5.8-11.2,10.3c-4,9.2-1.1,22.3,5.6,24.4c4.3,1.3,9.5-2,12.2-5.6
					C-922.6-1135.1-929.4-1153.3-936.4-1154.4z"/>
				<path class="st3" d="M-913.7-1128.2c-4.5-0.7-9.3,5.8-11.2,10.3c-4,9.2-1.1,22.3,5.6,24.4c4.3,1.3,9.5-2,12.2-5.6
					C-899.8-1108.9-906.7-1127.1-913.7-1128.2z"/>
				<path class="st3" d="M-911.4-1184.1c-4.5-0.7-9.3,5.8-11.2,10.3c-4,9.2-1.1,22.3,5.6,24.4c4.3,1.3,9.5-2,12.2-5.6
					C-897.6-1164.8-904.5-1183-911.4-1184.1z"/>
				<path class="st3" d="M-886.5-1154.4c-4.5-0.7-9.3,5.8-11.2,10.3c-4,9.2-1.1,22.3,5.6,24.4c4.3,1.3,9.5-2,12.2-5.6
					C-872.7-1135.1-879.5-1153.3-886.5-1154.4z"/>
				<path class="st3" d="M-879.2-1107.2c-4.5-0.7-9.3,5.8-11.2,10.3c-4,9.2-1.1,22.3,5.6,24.4c4.3,1.3,9.5-2.1,12.2-5.6
					C-865.4-1088-872.3-1106.1-879.2-1107.2z"/>
				<path class="st3" d="M-856.5-1081c-4.5-0.7-9.3,5.8-11.2,10.3c-4,9.2-1.1,22.3,5.6,24.4c4.3,1.3,9.5-2.1,12.2-5.6
					C-842.7-1061.7-849.5-1079.9-856.5-1081z"/>
				<path class="st3" d="M-854.2-1136.9c-4.5-0.7-9.3,5.8-11.2,10.3c-4,9.2-1.1,22.3,5.6,24.4c4.3,1.3,9.5-2.1,12.2-5.6
					C-840.4-1117.6-847.3-1135.8-854.2-1136.9z"/>
				<path class="st3" d="M-829.3-1107.2c-4.5-0.7-9.3,5.8-11.2,10.3c-4,9.2-1.1,22.3,5.6,24.4c4.3,1.3,9.5-2.1,12.2-5.6
					C-815.5-1088-822.4-1106.1-829.3-1107.2z"/>
				<path class="st3" d="M-801.5-1136c-4.5-0.7-9.3,5.8-11.2,10.3c-4,9.2-1.1,22.3,5.6,24.4c4.3,1.3,9.5-2,12.2-5.6
					C-787.7-1116.8-794.6-1134.9-801.5-1136z"/>
				<path class="st3" d="M-765.7-1191.1c-4.5-0.7-9.3,5.8-11.2,10.3c-4,9.2-1.1,22.3,5.6,24.4c4.3,1.3,9.5-2.1,12.2-5.6
					C-751.9-1171.9-758.8-1190-765.7-1191.1z"/>
				<path class="st3" d="M-772.4-1153.6c-4.5-0.7-9.3,5.8-11.2,10.3c-4,9.2-1.1,22.3,5.6,24.4c4.3,1.3,9.5-2,12.2-5.6
					C-758.6-1134.3-765.4-1152.4-772.4-1153.6z"/>
				<path class="st3" d="M-789.1-1228.7c-4.5-0.7-9.3,5.8-11.2,10.3c-4,9.2-1.1,22.3,5.6,24.4c4.3,1.3,9.5-2.1,12.2-5.6
					C-775.2-1209.4-782.1-1227.6-789.1-1228.7z"/>
				<path class="st3" d="M-851.4-1182.4c-4.5-0.7-9.3,5.8-11.2,10.3c-4,9.2-1.1,22.3,5.6,24.4c4.3,1.3,9.5-2.1,12.2-5.6
					C-837.6-1163.1-844.5-1181.3-851.4-1182.4z"/>
				<path class="st3" d="M-828.7-1156.1c-4.5-0.7-9.3,5.8-11.2,10.3c-4,9.2-1.1,22.3,5.6,24.4c4.3,1.3,9.5-2.1,12.2-5.6
					C-814.9-1136.8-821.8-1155-828.7-1156.1z"/>
				<path class="st3" d="M-826.5-1212c-4.5-0.7-9.3,5.8-11.2,10.3c-4,9.2-1.1,22.3,5.6,24.4c4.3,1.3,9.5-2.1,12.2-5.6
					C-812.7-1192.7-819.5-1210.9-826.5-1212z"/>
				<path class="st3" d="M-801.5-1182.4c-4.5-0.7-9.3,5.8-11.2,10.3c-4,9.2-1.1,22.3,5.6,24.4c4.3,1.3,9.5-2.1,12.2-5.6
					C-787.7-1163.1-794.6-1181.3-801.5-1182.4z"/>
				<path class="st3" d="M-841.8-1275c-4.5-0.7-9.3,5.8-11.2,10.3c-4,9.2-1.1,22.3,5.6,24.4c4.3,1.3,9.5-2.1,12.2-5.6
					C-828-1255.7-834.9-1273.9-841.8-1275z"/>
				<path class="st3" d="M-819.1-1248.7c-4.5-0.7-9.3,5.8-11.2,10.3c-4,9.2-1.1,22.3,5.6,24.4c4.3,1.3,9.5-2.1,12.2-5.6
					C-805.3-1229.5-812.2-1247.6-819.1-1248.7z"/>
				<path class="st3" d="M-816.9-1304.6c-4.5-0.7-9.3,5.8-11.2,10.3c-4,9.2-1.1,22.3,5.6,24.4c4.3,1.3,9.5-2.1,12.2-5.6
					C-803-1285.4-809.9-1303.5-816.9-1304.6z"/>
				<path class="st3" d="M-791.9-1275c-4.5-0.7-9.3,5.8-11.2,10.3c-4,9.2-1.1,22.3,5.6,24.4c4.3,1.3,9.5-2.1,12.2-5.6
					C-778.1-1255.7-785-1273.9-791.9-1275z"/>
			</g>
			<g>
				<path class="st3" d="M-1066.5-1470.7c-4.5-0.7-9.3,5.8-11.2,10.3c-3.9,9.2-1.1,22.3,5.6,24.4c4.3,1.3,9.5-2,12.2-5.6
					C-1052.6-1451.4-1059.5-1469.6-1066.5-1470.7z"/>
				<path class="st3" d="M-1043.8-1444.5c-4.5-0.7-9.3,5.8-11.2,10.3c-3.9,9.2-1.1,22.3,5.6,24.4c4.3,1.3,9.5-2,12.2-5.6
					C-1029.9-1425.2-1036.8-1443.3-1043.8-1444.5z"/>
				<path class="st3" d="M-1016.6-1470.7c-4.5-0.7-9.3,5.8-11.2,10.3c-3.9,9.2-1.1,22.3,5.6,24.4c4.3,1.3,9.5-2,12.2-5.6
					C-1002.8-1451.4-1009.6-1469.6-1016.6-1470.7z"/>
				<path class="st3" d="M-1098.7-1395.6c-4.5-0.7-9.3,5.8-11.2,10.3c-3.9,9.2-1.1,22.3,5.6,24.4c4.3,1.3,9.5-2.1,12.2-5.6
					C-1084.9-1376.3-1091.8-1394.5-1098.7-1395.6z"/>
				<path class="st3" d="M-1076-1369.3c-4.5-0.7-9.3,5.8-11.2,10.3c-3.9,9.2-1.1,22.3,5.6,24.4c4.3,1.3,9.5-2,12.2-5.6
					C-1062.2-1350-1069.1-1368.2-1076-1369.3z"/>
				<path class="st3" d="M-1073.8-1425.2c-4.5-0.7-9.3,5.8-11.2,10.3c-3.9,9.2-1.1,22.3,5.6,24.4c4.3,1.3,9.5-2.1,12.2-5.6
					C-1059.9-1405.9-1066.8-1424.1-1073.8-1425.2z"/>
				<path class="st3" d="M-1048.8-1395.6c-4.5-0.7-9.3,5.8-11.2,10.3c-4,9.2-1.1,22.3,5.6,24.4c4.3,1.3,9.5-2.1,12.2-5.6
					C-1035-1376.3-1041.9-1394.5-1048.8-1395.6z"/>
				<path class="st3" d="M-1041.5-1348.4c-4.5-0.7-9.3,5.8-11.2,10.3c-3.9,9.2-1.1,22.3,5.6,24.4c4.3,1.3,9.5-2.1,12.2-5.6
					C-1027.7-1329.1-1034.6-1347.3-1041.5-1348.4z"/>
				<path class="st3" d="M-1018.8-1322.2c-4.5-0.7-9.3,5.8-11.2,10.3c-4,9.2-1.1,22.3,5.6,24.4c4.3,1.3,9.5-2.1,12.2-5.6
					C-1005-1302.9-1011.9-1321.1-1018.8-1322.2z"/>
				<path class="st3" d="M-1016.6-1378.1c-4.5-0.7-9.3,5.8-11.2,10.3c-3.9,9.2-1.1,22.3,5.6,24.4c4.3,1.3,9.5-2,12.2-5.6
					C-1002.8-1358.8-1009.6-1377-1016.6-1378.1z"/>
				<path class="st3" d="M-991.6-1348.4c-4.5-0.7-9.3,5.8-11.2,10.3c-4,9.2-1.1,22.3,5.6,24.4c4.3,1.3,9.5-2.1,12.2-5.6
					C-977.8-1329.1-984.7-1347.3-991.6-1348.4z"/>
				<path class="st3" d="M-963.9-1377.2c-4.5-0.7-9.3,5.8-11.2,10.3c-3.9,9.2-1.1,22.3,5.6,24.4c4.3,1.3,9.5-2.1,12.2-5.6
					C-950-1357.9-956.9-1376.1-963.9-1377.2z"/>
				<path class="st3" d="M-928-1432.3c-4.5-0.7-9.3,5.8-11.2,10.3c-4,9.2-1.1,22.3,5.6,24.4c4.3,1.3,9.5-2,12.2-5.6
					C-914.2-1413-921.1-1431.2-928-1432.3z"/>
				<path class="st3" d="M-934.7-1394.7c-4.5-0.7-9.3,5.8-11.2,10.3c-4,9.2-1.1,22.3,5.6,24.4c4.3,1.3,9.5-2.1,12.2-5.6
					C-920.9-1375.4-927.8-1393.6-934.7-1394.7z"/>
				<path class="st3" d="M-951.4-1469.8c-4.5-0.7-9.3,5.8-11.2,10.3c-4,9.2-1.1,22.3,5.6,24.4c4.3,1.3,9.5-2.1,12.2-5.6
					C-937.6-1450.6-944.4-1468.7-951.4-1469.8z"/>
				<path class="st3" d="M-1013.8-1423.5c-4.5-0.7-9.3,5.8-11.3,10.3c-3.9,9.2-1.1,22.3,5.6,24.4c4.3,1.3,9.5-2.1,12.2-5.6
					C-999.9-1404.2-1006.8-1422.4-1013.8-1423.5z"/>
				<path class="st3" d="M-991-1397.3c-4.5-0.7-9.3,5.8-11.2,10.3c-3.9,9.2-1.1,22.3,5.6,24.4c4.3,1.3,9.5-2.1,12.2-5.6
					C-977.2-1378-984.1-1396.2-991-1397.3z"/>
				<path class="st3" d="M-988.8-1453.2c-4.5-0.7-9.3,5.8-11.2,10.3c-4,9.2-1.1,22.3,5.6,24.4c4.3,1.3,9.5-2,12.2-5.6
					C-975-1433.9-981.9-1452.1-988.8-1453.2z"/>
				<path class="st3" d="M-963.9-1423.5c-4.5-0.7-9.3,5.8-11.2,10.3c-3.9,9.2-1.1,22.3,5.6,24.4c4.3,1.3,9.5-2.1,12.2-5.6
					C-950-1404.2-956.9-1422.4-963.9-1423.5z"/>
			</g>
			<g>
				<path class="st3" d="M-604.7-782.2c-4.5-0.7-9.3,5.8-11.2,10.3c-4,9.2-1.1,22.3,5.6,24.4c4.3,1.3,9.5-2,12.2-5.6
					C-590.9-763-597.7-781.1-604.7-782.2z"/>
				<path class="st3" d="M-582-756c-4.5-0.7-9.3,5.8-11.2,10.3c-4,9.2-1.1,22.3,5.6,24.4c4.3,1.3,9.5-2,12.2-5.6
					C-568.1-736.7-575-754.9-582-756z"/>
				<path class="st3" d="M-579.7-811.9c-4.5-0.7-9.3,5.8-11.2,10.3c-4,9.2-1.1,22.3,5.6,24.4c4.3,1.3,9.5-2,12.2-5.6
					C-565.9-792.6-572.8-810.8-579.7-811.9z"/>
				<path class="st3" d="M-554.8-782.2c-4.5-0.7-9.3,5.8-11.2,10.3c-4,9.2-1.1,22.3,5.6,24.4c4.3,1.3,9.5-2,12.2-5.6
					C-541-763-547.8-781.1-554.8-782.2z"/>
				<path class="st3" d="M-636.9-707.1c-4.5-0.7-9.3,5.8-11.2,10.3c-4,9.2-1.1,22.3,5.6,24.4c4.3,1.3,9.5-2,12.2-5.6
					C-623.1-687.8-630-706-636.9-707.1z"/>
				<path class="st3" d="M-614.2-680.9c-4.5-0.7-9.3,5.8-11.2,10.3c-4,9.2-1.1,22.3,5.6,24.4c4.3,1.3,9.5-2,12.2-5.6
					C-600.4-661.6-607.3-679.8-614.2-680.9z"/>
				<path class="st3" d="M-612-736.8c-4.5-0.7-9.3,5.8-11.2,10.3c-4,9.2-1.1,22.3,5.6,24.4c4.3,1.3,9.5-2,12.2-5.6
					C-598.1-717.5-605-735.7-612-736.8z"/>
				<path class="st3" d="M-587-707.1c-4.5-0.7-9.3,5.8-11.2,10.3c-4,9.2-1.1,22.3,5.6,24.4c4.3,1.3,9.5-2,12.2-5.6
					C-573.2-687.8-580.1-706-587-707.1z"/>
				<path class="st3" d="M-579.7-660c-4.5-0.7-9.3,5.8-11.2,10.3c-4,9.2-1.1,22.3,5.6,24.4c4.3,1.3,9.5-2,12.2-5.6
					C-565.9-640.7-572.8-658.8-579.7-660z"/>
				<path class="st3" d="M-557-633.7c-4.5-0.7-9.3,5.8-11.2,10.3c-4,9.2-1.1,22.3,5.6,24.4c4.3,1.3,9.5-2,12.2-5.6
					C-543.2-614.4-550.1-632.6-557-633.7z"/>
				<path class="st3" d="M-554.8-689.6c-4.5-0.7-9.3,5.8-11.2,10.3c-4,9.2-1.1,22.3,5.6,24.4c4.3,1.3,9.5-2,12.2-5.6
					C-541-670.3-547.8-688.5-554.8-689.6z"/>
				<path class="st3" d="M-529.8-660c-4.5-0.7-9.3,5.8-11.2,10.3c-4,9.2-1.1,22.3,5.6,24.4c4.3,1.3,9.5-2,12.2-5.6
					C-516-640.7-522.9-658.8-529.8-660z"/>
				<path class="st3" d="M-502.1-688.8c-4.5-0.7-9.3,5.8-11.2,10.3c-4,9.2-1.1,22.3,5.6,24.4c4.3,1.3,9.5-2,12.2-5.6
					C-488.2-669.5-495.1-687.6-502.1-688.8z"/>
				<path class="st3" d="M-489.6-781.4c-4.5-0.7-9.3,5.8-11.2,10.3c-4,9.2-1.1,22.3,5.6,24.4c4.3,1.3,9.5-2,12.2-5.6
					C-475.8-762.1-482.7-780.3-489.6-781.4z"/>
				<path class="st3" d="M-552-735.1c-4.5-0.7-9.3,5.8-11.2,10.3c-4,9.2-1.1,22.3,5.6,24.4c4.3,1.3,9.5-2,12.2-5.6
					C-538.1-715.8-545-734-552-735.1z"/>
				<path class="st3" d="M-529.3-708.8c-4.5-0.7-9.3,5.8-11.2,10.3c-4,9.2-1.1,22.3,5.6,24.4c4.3,1.3,9.5-2,12.2-5.6
					C-515.4-689.5-522.3-707.7-529.3-708.8z"/>
				<path class="st3" d="M-527-764.7c-4.5-0.7-9.3,5.8-11.2,10.3c-4,9.2-1.1,22.3,5.6,24.4c4.3,1.3,9.5-2,12.2-5.6
					C-513.2-745.4-520.1-763.6-527-764.7z"/>
				<path class="st3" d="M-502.1-735.1c-4.5-0.7-9.3,5.8-11.2,10.3c-4,9.2-1.1,22.3,5.6,24.4c4.3,1.3,9.5-2,12.2-5.6
					C-488.2-715.8-495.1-734-502.1-735.1z"/>
				<path class="st3" d="M-542.3-827.7c-4.5-0.7-9.3,5.8-11.2,10.3c-4,9.2-1.1,22.3,5.6,24.4c4.3,1.3,9.5-2,12.2-5.6
					C-528.5-808.4-535.4-826.6-542.3-827.7z"/>
				<path class="st3" d="M-519.6-801.5c-4.5-0.7-9.3,5.8-11.2,10.3c-4,9.2-1.1,22.3,5.6,24.4c4.3,1.3,9.5-2,12.2-5.6
					C-505.8-782.2-512.7-800.4-519.6-801.5z"/>
				<path class="st3" d="M-517.4-857.4c-4.5-0.7-9.3,5.8-11.2,10.3c-4,9.2-1.1,22.3,5.6,24.4c4.3,1.3,9.5-2,12.2-5.6
					C-503.6-838.1-510.4-856.3-517.4-857.4z"/>
				<path class="st3" d="M-492.4-827.7c-4.5-0.7-9.3,5.8-11.2,10.3c-4,9.2-1.1,22.3,5.6,24.4c4.3,1.3,9.5-2,12.2-5.6
					C-478.6-808.4-485.5-826.6-492.4-827.7z"/>
			</g>
		</g>
	</g>
</g>
<g>
	<rect x="-250.1" y="-1396" class="st2" width="647.3" height="491.2"/>
	<g>
		<path class="st3" d="M76.8-1219c-50,0-92.3,32.6-106.9,77.7h213.8C169.1-1186.4,126.8-1219,76.8-1219z"/>
	</g>
	<g>
		<path id="SVGID_x5F_00000130626880773153954590000015571752073715567533_x5F_" style="fill:none;" d="M204.9-1057l-259.2-97
			c26.8-71.6,106.5-107.9,178.1-81.1C195.3-1208.3,231.6-1128.6,204.9-1057z"/>
		<text>		<textPath  xlink:href="#SVGID_x5F_00000130626880773153954590000015571752073715567533_x5F_" startOffset="55.5176%">
<tspan  class="st5" style="font-family:'ClarendonLTStd'; font-size:46.8737px;">LAWN CARE</tspan>		</textPath>
</text>
	</g>
	<g>
		<path class="st4" d="M-38.3-1103.6h0.2c3.2-4.2,7.5-7.3,13.6-7.3c6.9,0,11.1,4.3,11.1,10.9v18.5c0,2.3,0.9,3.1,3.1,3.1H-6v5.2
			h-22.8v-5.2h3c2.2,0,3.1-0.9,3.1-3.1v-17.9c0-4-2.7-5.5-6.9-5.5c-4.1,0-8.7,4.3-8.7,11.2v12.2c0,2.3,0.9,3.1,3.1,3.1h3v5.2h-23
			v-5.2h4.5c2.2,0,3.1-0.9,3.1-3.1v-35.2c0-2.3-0.9-3.1-3.1-3.1h-4.5v-5.2h16.8V-1103.6z"/>
		<path class="st4" d="M-2.5-1073.2v-5.2h3.6c2.2,0,3.1-0.9,3.1-3.1v-20c0-2.3-0.9-3.1-3.1-3.1h-3.6v-5.2h15.9v28.3
			c0,2.3,0.9,3.1,3.1,3.1h3.8v5.2H-2.5z M7.8-1125.9c3,0,5.6,2.5,5.6,5.6s-2.6,5.6-5.6,5.6s-5.6-2.5-5.6-5.6S4.8-1125.9,7.8-1125.9z
			"/>
		<path class="st4" d="M23.3-1073.2v-5.2h3.8c2.2,0,3.1-0.9,3.1-3.1v-35.2c0-2.3-0.9-3.1-3.1-3.1h-3.8v-5.2h16.2v43.5
			c0,2.3,0.9,3.1,3.1,3.1h3.7v5.2H23.3z"/>
		<path class="st4" d="M49.3-1073.2v-5.2h3.8c2.2,0,3.1-0.9,3.1-3.1v-35.2c0-2.3-0.9-3.1-3.1-3.1h-3.8v-5.2h16.2v43.5
			c0,2.3,0.9,3.1,3.1,3.1h3.7v5.2H49.3z"/>
		<path class="st4" d="M98.9-1104.6v-4.9c8-0.5,10-7.6,10.7-14.8h4.8v14.5h10.3v5.2h-10.1v23c0,1.6,0.9,2.6,3,2.6
			c2.4,0,3.4-1.3,3.4-4.5v-6.9h5.2v6.6c0,8.2-4.5,11.8-10.7,11.8c-5.9,0-10-2.4-10-8.7v-23.9H98.9z"/>
		<path class="st4" d="M149.4-1110.9c11.7,0,20.1,7,20.1,19.4c0,12.4-8.4,19.4-20.1,19.4c-11.7,0-20.1-7-20.1-19.4
			C129.3-1103.9,137.7-1110.9,149.4-1110.9z M149.4-1077.2c6.3,0,9.6-4.9,9.6-14.3c0-9.4-3.3-14.3-9.6-14.3c-6.3,0-9.6,4.9-9.6,14.3
			C139.8-1082.1,143-1077.2,149.4-1077.2z"/>
		<path class="st4" d="M186.5-1103.3h0.2c3.1-5.3,7.1-7.6,12.3-7.6c10.9,0,15.5,9.8,15.5,19.4c0,9.6-4.6,19.4-15.5,19.4
			c-6.2,0-10.5-3.8-12.1-6.7h-0.2v13.5c0,2.3,0.7,3.4,3.1,3.4h4.9v5.2h-24.7v-5.2h4.3c2.4,0,3.1-1.1,3.1-3.4v-35.9
			c0-2.3-0.7-3.4-3.1-3.4h-4.1v-5.2h16.4V-1103.3z M186.8-1091.5c0,9,3.9,13.4,9.1,13.4c4.5,0,8-4.6,8-13.4c0-10-3.7-13.4-8-13.4
			C190.7-1104.8,186.8-1100.5,186.8-1091.5z"/>
	</g>
</g>
<g>
	<rect x="-260.5" y="-895.9" class="st2" width="647.3" height="455.2"/>
	<g>
		<path class="st5" d="M-101.7-673.7h0.1c2.5-3.3,5.8-5.7,10.6-5.7c5.3,0,8.6,3.3,8.6,8.5v14.4c0,1.8,0.7,2.4,2.4,2.4h3.4v4h-17.7
			v-4h2.3c1.7,0,2.4-0.7,2.4-2.4v-13.9c0-3.1-2.1-4.3-5.3-4.3c-3.2,0-6.8,3.3-6.8,8.7v9.5c0,1.8,0.7,2.4,2.4,2.4h2.4v4h-17.9v-4h3.5
			c1.7,0,2.4-0.7,2.4-2.4v-27.4c0-1.8-0.7-2.4-2.4-2.4h-3.5v-4h13.1V-673.7z"/>
		<path class="st5" d="M-73.9-650.1v-4h2.8c1.7,0,2.4-0.7,2.4-2.4v-15.5c0-1.8-0.7-2.4-2.4-2.4h-2.8v-4h12.4v22
			c0,1.8,0.7,2.4,2.4,2.4h3v4H-73.9z M-65.9-691.1c2.4,0,4.4,1.9,4.4,4.4s-2,4.4-4.4,4.4s-4.4-1.9-4.4-4.4S-68.2-691.1-65.9-691.1z"
			/>
		<path class="st5" d="M-53.8-650.1v-4h3c1.7,0,2.4-0.7,2.4-2.4v-27.4c0-1.8-0.7-2.4-2.4-2.4h-3v-4h12.6v33.8c0,1.8,0.7,2.4,2.4,2.4
			h2.9v4H-53.8z"/>
		<path class="st5" d="M-33.6-650.1v-4h3c1.7,0,2.4-0.7,2.4-2.4v-27.4c0-1.8-0.7-2.4-2.4-2.4h-3v-4H-21v33.8c0,1.8,0.7,2.4,2.4,2.4
			h2.9v4H-33.6z"/>
		<path class="st5" d="M5-674.5v-3.8c6.2-0.4,7.8-5.9,8.3-11.5h3.8v11.3h8v4h-7.8v17.9c0,1.2,0.7,2,2.3,2c1.9,0,2.6-1,2.6-3.5v-5.4
			h4v5.1c0,6.4-3.5,9.2-8.3,9.2c-4.6,0-7.8-1.9-7.8-6.7v-18.6H5z"/>
		<path class="st5" d="M44.3-679.4c9.1,0,15.6,5.5,15.6,15.1s-6.5,15.1-15.6,15.1c-9.1,0-15.6-5.5-15.6-15.1S35.1-679.4,44.3-679.4z
			 M44.3-653.2c4.9,0,7.5-3.8,7.5-11.1s-2.6-11.1-7.5-11.1c-4.9,0-7.5,3.8-7.5,11.1S39.3-653.2,44.3-653.2z"/>
		<path class="st5" d="M73.2-673.5h0.1c2.4-4.1,5.5-5.9,9.5-5.9c8.4,0,12,7.7,12,15.1s-3.6,15.1-12,15.1c-4.8,0-8.1-3-9.4-5.2h-0.2
			v10.5c0,1.8,0.5,2.7,2.4,2.7h3.8v4H60.2v-4h3.3c1.9,0,2.4-0.9,2.4-2.7v-27.9c0-1.8-0.5-2.7-2.4-2.7h-3.2v-4h12.8V-673.5z
			 M73.3-664.3c0,7,3,10.4,7.1,10.4c3.5,0,6.3-3.6,6.3-10.4c0-7.8-2.9-10.4-6.3-10.4C76.4-674.7,73.3-671.3,73.3-664.3z"/>
	</g>
</g>
<g>
	<path class="st2" d="M960.1-1098.3c-5.1,0-9,4.3-9,13.1c0,8.8,3.8,13.1,9,13.1c4.4,0,7.9-4.5,7.9-13.1
		C968-1095,964.3-1098.3,960.1-1098.3z"/>
	<path class="st2" d="M517.1-1365v491.2h647.3V-1365H517.1z M840.8-1254.1c33.7,0,62.3,22,72.2,52.5h-72.2h-72.2
		C778.4-1232.1,807-1254.1,840.8-1254.1z M784.5-1112.5c0,3.1-2.5,5.5-5.5,5.5s-5.5-2.5-5.5-5.5c0-3.1,2.5-5.5,5.5-5.5
		C782-1118,784.5-1115.6,784.5-1112.5z M765.4-1066.2l-22.4,0v-5.1h2.9c2.1,0,3.1-0.8,3.1-3.1l0-17.6c0-3.9-2.7-5.4-6.8-5.4
		c-4,0-8.6,4.2-8.6,11l0,12c0,2.2,0.9,3.1,3.1,3.1h3l0,5.1h-22.6l0-5.1h4.4c2.1,0,3.1-0.8,3.1-3.1l0-34.6c0-2.2-0.9-3.1-3.1-3.1
		h-4.4v-5.1h16.5l0,21h0.2c3.1-4.1,7.4-7.2,13.3-7.2c6.8,0,10.9,4.2,10.9,10.7l0,18.2c0,2.2,0.9,3.1,3.1,3.1h4.3V-1066.2z
		 M914.3-1066.1c-0.9,0-1.8-0.1-2.7-0.1h-28.6c-0.6,0.1-1.3,0.1-2,0.1c-0.8,0-1.6-0.1-2.3-0.1H768.6c0.1-0.3,0.2-0.6,0.3-0.9l0-4.2
		h1.6c1.4-3.5,3.1-6.9,5-10.2l0-12.5c0-2.2-0.9-3.1-3.1-3.1h-3.5v-5.1h15.6l0,8.4c4.8-5.3,10.4-9.9,16.5-13.7v-1.5
		c0-2.2-0.9-3.1-3.1-3.1h-3.8v-5.1l15.9,0v4.9c3.1-1.4,6.3-2.6,9.7-3.5v-1.3h5.3c5.1-1.1,10.3-1.6,15.7-1.6c12,0,23.3,2.8,33.4,7.7
		c0.6-2,1-4.2,1.2-6.4h4.8v9.6c2.3,1.4,4.6,3,6.8,4.6h3.3v2.7c2.2,1.9,4.4,4,6.4,6.1c3.1-6.5,9.6-10,17.8-10
		c11.5,0,19.7,6.9,19.7,19.1S925.9-1066.1,914.3-1066.1z M963.1-1066.1c-6.1,0-10.3-3.8-11.9-6.6h-0.2l0,13.3c0,2.3,0.7,3.4,3.1,3.4
		h4.8v5.1l-24.3,0v-5.1h4.2c2.4,0,3.1-1.1,3.1-3.4l0-35.3c0-2.3-0.7-3.4-3.1-3.4h-4l0-5.1l16.1,0v6.3h0.2c3.1-5.2,7-7.4,12-7.4
		c10.7,0,15.2,9.7,15.2,19.1S973.7-1066.1,963.1-1066.1z"/>
	<path class="st2" d="M914.3-1071.1c6.2,0,9.4-4.8,9.4-14c0-9.2-3.2-14-9.4-14c-6.2,0-9.4,4.8-9.4,14c0,0.7,0,1.3,0.1,1.9
		c2.3,3.7,4.3,7.5,6,11.6C912-1071.4,913.1-1071.1,914.3-1071.1z"/>
	<path class="st3" d="M911-1071.7c-1.7-4-3.7-7.9-6-11.6C905.3-1077.1,907.3-1073.2,911-1071.7z"/>
	<path class="st3" d="M886.8-1103.1c-2.2-1.7-4.4-3.2-6.8-4.6l0,4.6H886.8z"/>
	<path class="st3" d="M775.5-1074.4l0-7.1c-1.9,3.2-3.6,6.6-5,10.2h2C774.6-1071.3,775.5-1072.1,775.5-1074.4z"/>
	<path class="st3" d="M871.2-1074.6l0-23.5h-6.4v-4.8c5.4-0.4,8-3.7,9.3-8.1c-10.1-4.9-21.4-7.7-33.4-7.7c-5.4,0-10.6,0.6-15.7,1.6
		h10.5l0,42.7c0,2.2,0.9,3.1,3.1,3.1h3.6v5.1l-22.6,0v-5.1h3.8c2.1,0,3.1-0.8,3.1-3.1l0-34.6c0-2.2-0.9-3.1-3.1-3.1h-3.8l0-3.7
		c-3.3,1-6.5,2.1-9.7,3.5l0,37.9c0,2.2,0.9,3.1,3.1,3.1h3.6v5.1l-22.6,0l0-5.1h3.8c2.1,0,3.1-0.8,3.1-3.1l0-33.1
		c-6.1,3.8-11.7,8.4-16.5,13.7l0,19.4c0,2.2,0.9,3.1,3.1,3.1l3.8,0v5.1h-22.5v-0.9c-0.1,0.3-0.2,0.6-0.3,0.9h110.2
		C874.3-1066.8,871.2-1069.3,871.2-1074.6z"/>
	<path class="st3" d="M894.6-1085.2c0-3.5,0.7-6.5,1.9-9.1c-2-2.2-4.1-4.2-6.4-6.1v2.4h-9.9l0,22.6c0,1.5,0.8,2.5,2.9,2.5
		c2.4,0,3.3-1.3,3.3-4.4v-6.8h5.1v6.4c0,7.1-3.5,10.7-8.5,11.4h28.6C901.6-1067.2,894.6-1074,894.6-1085.2z"/>
	<path class="st5" d="M758.1-1074.4l0-18.2c0-6.5-4.1-10.7-10.9-10.7c-6,0-10.2,3.1-13.3,7.2h-0.2l0-21h-16.5v5.1h4.4
		c2.1,0,3.1,0.8,3.1,3.1l0,34.6c0,2.2-0.9,3.1-3.1,3.1h-4.4l0,5.1h22.6l0-5.1h-3c-2.1,0-3.1-0.8-3.1-3.1l0-12c0-6.8,4.6-11,8.6-11
		c4.1,0,6.8,1.5,6.8,5.4l0,17.6c0,2.2-0.9,3.1-3.1,3.1H743v5.1l22.4,0v-5.1h-4.3C759-1071.3,758.1-1072.1,758.1-1074.4z"/>
	<path class="st4" d="M773.5-1112.5c0,3.1,2.5,5.5,5.5,5.5s5.5-2.5,5.5-5.5s-2.5-5.5-5.5-5.5C776-1118,773.5-1115.6,773.5-1112.5z"
		/>
	<path class="st5" d="M784.5-1102.1h-15.6v5.1h3.5c2.1,0,3.1,0.8,3.1,3.1l0,12.5c2.6-4.4,5.6-8.5,9.1-12.3L784.5-1102.1z"/>
	<path class="st4" d="M768.9-1071.3l0,4.2c0.5-1.4,1-2.8,1.6-4.2H768.9z"/>
	<path class="st4" d="M791.4-1066.2v-5.1l-3.8,0c-2.1,0-3.1-0.8-3.1-3.1l0-19.4c-3.4,3.8-6.4,7.9-9.1,12.3l0,7.1
		c0,2.2-0.9,3.1-3.1,3.1h-2c-0.6,1.4-1.1,2.8-1.6,4.2v0.9H791.4z"/>
	<path class="st4" d="M810.1-1117.1l-15.9,0v5.1h3.8c2.1,0,3.1,0.8,3.1,3.1v1.5c2.9-1.8,5.9-3.4,9.1-4.8V-1117.1z"/>
	<path class="st5" d="M798-1071.3h-3.8l0,5.1l22.6,0v-5.1h-3.6c-2.1,0-3.1-0.8-3.1-3.1l0-37.9c-3.1,1.4-6.2,3-9.1,4.8l0,33.1
		C801-1072.1,800.1-1071.3,798-1071.3z"/>
	<path class="st4" d="M819.7-1117.1v1.3c1.8-0.5,3.5-0.9,5.3-1.3H819.7z"/>
	<path class="st5" d="M823.5-1112c2.1,0,3.1,0.8,3.1,3.1l0,34.6c0,2.2-0.9,3.1-3.1,3.1h-3.8v5.1l22.6,0v-5.1h-3.6
		c-2.1,0-3.1-0.8-3.1-3.1l0-42.7h-10.5c-1.8,0.4-3.6,0.8-5.3,1.3l0,3.7H823.5z"/>
	<path class="st4" d="M890.2-1103.1h-3.3c1.1,0.9,2.3,1.8,3.3,2.7V-1103.1z"/>
	<path class="st4" d="M881.1-1066.1c0.7,0,1.4-0.1,2-0.1h-4.3C879.5-1066.1,880.3-1066.1,881.1-1066.1z"/>
	<path class="st4" d="M880.1-1117.4h-4.8c-0.2,2.2-0.6,4.4-1.2,6.4c2,1,4,2.1,5.9,3.2V-1117.4z"/>
	<path class="st5" d="M891.6-1077.7v-6.4h-5.1v6.8c0,3.1-0.9,4.4-3.3,4.4c-2.1,0-2.9-1-2.9-2.5l0-22.6h9.9v-2.4
		c-1.1-0.9-2.2-1.8-3.3-2.7h-6.8l0-4.6c-1.9-1.2-3.9-2.2-5.9-3.2c-1.3,4.4-4,7.7-9.3,8.1v4.8h6.4l0,23.5c0,5.3,3,7.8,7.5,8.4h4.3
		C888.1-1067,891.6-1070.5,891.6-1077.7z"/>
	<path class="st5" d="M914.3-1104.3c-8.2,0-14.7,3.5-17.8,10c3.1,3.4,5.9,7.1,8.4,11c0-0.6-0.1-1.2-0.1-1.9c0-9.2,3.2-14,9.4-14
		c6.2,0,9.4,4.8,9.4,14c0,9.2-3.2,14-9.4,14c-1.3,0-2.4-0.2-3.4-0.6c0.7,1.8,1.4,3.6,2,5.5h-1.3c0.9,0.1,1.8,0.1,2.7,0.1
		c11.5,0,19.7-6.9,19.7-19.1S925.9-1104.3,914.3-1104.3z"/>
	<path class="st4" d="M911-1071.7c-3.6-1.4-5.7-5.3-6-11.6c-2.5-3.9-5.3-7.6-8.4-11c-1.2,2.6-1.9,5.6-1.9,9.1c0,11.2,7,18,17,19h1.3
		C912.4-1068.1,911.7-1069.9,911-1071.7z"/>
	<path class="st5" d="M963.1-1104.3c-5.1,0-9,2.2-12,7.4h-0.2v-6.3l-16.1,0l0,5.1h4c2.4,0,3.1,1.1,3.1,3.4l0,35.3
		c0,2.3-0.7,3.4-3.1,3.4h-4.2v5.1l24.3,0v-5.1H954c-2.4,0-3.1-1.1-3.1-3.4l0-13.3h0.2c1.6,2.8,5.8,6.6,11.9,6.6
		c10.7,0,15.2-9.7,15.2-19.1S973.7-1104.3,963.1-1104.3z M960.1-1072.1c-5.1,0-9-4.3-9-13.1c0-8.8,3.8-13.1,9-13.1
		c4.2,0,7.9,3.3,7.9,13.1C968-1076.6,964.4-1072.1,960.1-1072.1z"/>
</g>
<path class="st3" d="M913-1201.6c-9.9-30.5-38.5-52.5-72.2-52.5v52.5H913z"/>
<g>
	<path class="st6" d="M760.6-1045.2v-1.7h1.4c0.6,0,1.1-0.2,1.1-1v-9.6c0-0.7-0.3-1-1.2-1h-1.3v-1.7h8.2v1.7h-1.3
		c-1,0-1.3,0.2-1.3,1v10.6h3.7c2.3,0,2.9-1.3,3.1-4.8h1.7v6.4H760.6z"/>
	<path class="st6" d="M775.5-1045.2v-1.7c1.2,0,2-0.2,2.4-1.2l4.3-12h3.1l4.5,12c0.4,1.1,1.2,1.2,2.4,1.2v1.7h-7.8v-1.7h1.8
		c0.5,0,0.7-0.1,0.7-0.3c0-0.2,0-0.4-0.1-0.5l-0.7-2.2h-5.1l-0.7,2.2c0,0.1-0.1,0.3-0.1,0.5c0,0.3,0.3,0.4,0.7,0.4h1.7v1.7H775.5z
		 M785.3-1051.6l-2-5.4h0l-1.8,5.4H785.3z"/>
	<path class="st6" d="M812.5-1058.4c-1.1,0-1.6,0.2-1.9,1.3l-3.5,12h-2.9l-2.4-7.7h0l-2.6,7.7h-3l-3.7-12.5
		c-0.1-0.4-0.4-0.7-1.6-0.7v-1.7h6.5v1.7h-0.9c-0.5,0-0.7,0.3-0.7,0.6c0,0.2,0.1,0.5,0.2,0.8l2.2,8.1h0l2.6-7.6l-0.4-1.1
		c-0.2-0.7-0.6-0.8-1.1-0.8h-0.7v-1.7h6.7v1.7h-1c-0.5,0-0.8,0.2-0.8,0.4c0,0.2,0.1,0.4,0.2,0.8l2.4,8.1h0l2.2-7.9
		c0.1-0.2,0.1-0.5,0.1-0.7c0-0.4-0.3-0.6-1.1-0.6h-1v-1.7h6.2V-1058.4z"/>
	<path class="st6" d="M818.2-1057.2L818.2-1057.2l0,9.5c0,0.5,0.3,0.9,0.9,0.9h1.7v1.7h-7.4v-1.7h1.6c0.7,0,0.9-0.4,0.9-0.9v-9.8
		c0-0.6-0.2-0.8-0.9-0.8h-1.6v-1.7h6.6l6.5,10.7h0v-8c0-0.7-0.4-1.1-1.2-1.1h-1.4v-1.7h7.3v1.7h-1.3c-0.8,0-1.1,0.3-1.1,0.8v12.4
		h-3.3L818.2-1057.2z"/>
	<path class="st6" d="M850.9-1060.3h1.6v6.1h-1.7c-0.3-2.4-1.5-4.4-4.2-4.4c-3.3,0-4.1,3-4.1,5.9c0,2.9,0.9,6,4.1,6
		c2.6,0,3.8-1.8,4-4.2h1.9c-0.3,3.9-2.5,6.1-6.4,6.1c-4.7,0-7.2-3.3-7.2-8.1c0-4.2,2.8-7.7,7.4-7.7c1.5,0,3.1,0.7,4.1,1.6
		L850.9-1060.3z"/>
	<path class="st6" d="M853.8-1045.2v-1.7c1.2,0,2-0.2,2.4-1.2l4.3-12h3.1l4.5,12c0.4,1.1,1.2,1.2,2.4,1.2v1.7h-7.8v-1.7h1.8
		c0.5,0,0.7-0.1,0.7-0.3c0-0.2,0-0.4-0.1-0.5l-0.7-2.2h-5.1l-0.7,2.2c0,0.1-0.1,0.3-0.1,0.5c0,0.3,0.3,0.4,0.7,0.4h1.7v1.7H853.8z
		 M863.6-1051.6l-2-5.4h0l-1.8,5.4H863.6z"/>
	<path class="st6" d="M871.4-1045.2v-1.7h1.6c0.7,0,0.9-0.2,0.9-0.8v-9.9c0-0.6-0.2-0.8-0.9-0.8h-1.6v-1.7h9.8
		c3.3,0,4.8,1.3,4.8,3.7c0,2.3-2,3.4-4.2,3.6v0c2.4,0.3,2.9,1.3,2.9,3.1c0,2.4,0.5,2.7,0.9,2.7c0.5,0,0.8-0.5,0.8-1.8v-0.7h1.5v0.7
		c0,2.9-1.2,3.9-3.1,3.9c-2.2,0-2.9-1.2-2.9-3.1c0-3.6-0.8-4.4-3.4-4.4H877v4.5c0,0.6,0.2,0.8,0.9,0.8h1.6v1.7H871.4z M877-1053.8
		h2.6c2.4,0,3.1-0.8,3.1-2.4c0-1.4-0.9-2.2-2.9-2.2H877V-1053.8z"/>
	<path class="st6" d="M888.7-1045.2v-1.7h1.3c0.8,0,1.2-0.2,1.2-1.6v-8.7c0-1-0.3-1.3-1.4-1.3h-1v-1.7h14.8v5.9h-1.7
		c-0.3-3.1-0.6-4.3-3.6-4.3h-3.9v4.7h1.2c1.3,0,2-0.7,2-2.5v-0.3h1.7v7.5h-1.7v-0.5c0-1.8-0.6-2.5-2-2.5h-1.2v5.2h4.5
		c2.1,0,2.9-1.3,3.1-4.6h1.7v6.3H888.7z"/>
</g>
<g>
	<path class="st3" d="M-10-775.8c-50,0-92.3,32.6-106.9,77.7H96.9C82.3-743.2,40-775.8-10-775.8z"/>
</g>
<g>
	<g>
		<g>
			<path class="st3" d="M768-741.4c-71.1,0-128.7,57.6-128.7,128.7h257.3C896.7-683.8,839.1-741.4,768-741.4z"/>
		</g>
		<g>
			<path class="st4" d="M648.6-643.6h0.2c3.3-4.3,7.6-7.5,13.8-7.5c7,0,11.3,4.4,11.3,11.1v18.8c0,2.3,1,3.2,3.2,3.2h4.5v5.2h-23.2
				v-5.2h3c2.2,0,3.2-0.9,3.2-3.2v-18.2c0-4.1-2.8-5.6-7-5.6c-4.1,0-8.9,4.4-8.9,11.4v12.4c0,2.3,1,3.2,3.2,3.2h3.1v5.2h-23.4v-5.2
				h4.5c2.2,0,3.2-0.9,3.2-3.2V-657c0-2.3-1-3.2-3.2-3.2h-4.5v-5.2h17.1V-643.6z"/>
			<path class="st4" d="M685.1-612.7v-5.2h3.7c2.2,0,3.2-0.9,3.2-3.2v-20.3c0-2.3-1-3.2-3.2-3.2h-3.7v-5.2h16.2v28.8
				c0,2.3,1,3.2,3.2,3.2h3.9v5.2H685.1z M695.6-666.4c3.1,0,5.7,2.5,5.7,5.7c0,3.2-2.6,5.7-5.7,5.7c-3.1,0-5.7-2.5-5.7-5.7
				C689.9-663.8,692.5-666.4,695.6-666.4z"/>
			<path class="st4" d="M711.3-612.7v-5.2h3.9c2.2,0,3.2-0.9,3.2-3.2V-657c0-2.3-1-3.2-3.2-3.2h-3.9v-5.2h16.5v44.3
				c0,2.3,1,3.2,3.2,3.2h3.7v5.2H711.3z"/>
			<path class="st4" d="M737.8-612.7v-5.2h3.9c2.2,0,3.2-0.9,3.2-3.2V-657c0-2.3-1-3.2-3.2-3.2h-3.9v-5.2h16.5v44.3
				c0,2.3,1,3.2,3.2,3.2h3.7v5.2H737.8z"/>
			<path class="st4" d="M788.4-644.7v-5c8.1-0.6,10.2-7.7,10.9-15h4.9v14.8h10.5v5.2h-10.3v23.4c0,1.6,0.9,2.6,3,2.6
				c2.5,0,3.4-1.4,3.4-4.5v-7.1h5.2v6.7c0,8.3-4.6,12-10.9,12c-6,0-10.2-2.5-10.2-8.8v-24.3H788.4z"/>
			<path class="st4" d="M839.7-651.1c11.9,0,20.4,7.2,20.4,19.8c0,12.6-8.5,19.8-20.4,19.8c-11.9,0-20.4-7.2-20.4-19.8
				C819.3-643.9,827.8-651.1,839.7-651.1z M839.7-616.8c6.4,0,9.8-5,9.8-14.5s-3.3-14.5-9.8-14.5c-6.4,0-9.8,5-9.8,14.5
				S833.3-616.8,839.7-616.8z"/>
			<path class="st4" d="M877.6-643.4h0.2c3.2-5.4,7.2-7.7,12.5-7.7c11,0,15.7,10,15.7,19.8c0,9.8-4.7,19.8-15.7,19.8
				c-6.3,0-10.7-3.9-12.3-6.8h-0.2v13.8c0,2.4,0.7,3.5,3.2,3.5h5v5.2h-25.2v-5.2h4.4c2.5,0,3.2-1.1,3.2-3.5v-36.6
				c0-2.4-0.7-3.5-3.2-3.5h-4.1v-5.2h16.7V-643.4z M877.8-631.3c0,9.1,4,13.6,9.3,13.6c4.5,0,8.2-4.7,8.2-13.6
				c0-10.2-3.8-13.6-8.2-13.6C881.8-644.9,877.8-640.4,877.8-631.3z"/>
		</g>
	</g>
	<g>
		<path class="st4" d="M691.2-585.2v-1.8h1.5c0.7,0,1.1-0.2,1.1-1.1v-10.3c0-0.7-0.3-1-1.3-1h-1.4v-1.8h8.8v1.8h-1.3
			c-1.1,0-1.4,0.2-1.4,1.1v11.3h3.9c2.5,0,3.1-1.4,3.3-5.1h1.8v6.8H691.2z"/>
		<path class="st4" d="M707.1-585.2v-1.8c1.3,0,2.1-0.2,2.5-1.3l4.6-12.8h3.4l4.8,12.8c0.4,1.1,1.2,1.3,2.5,1.3v1.8h-8.4v-1.8h1.9
			c0.6,0,0.7-0.1,0.7-0.4c0-0.2,0-0.4-0.1-0.6l-0.8-2.4h-5.4l-0.8,2.4c0,0.1-0.1,0.3-0.1,0.5c0,0.3,0.3,0.4,0.8,0.4h1.9v1.8H707.1z
			 M717.6-592.1l-2.1-5.8h0l-1.9,5.8H717.6z"/>
		<path class="st4" d="M746.7-599.4c-1.2,0-1.7,0.2-2,1.3l-3.8,12.8h-3.1l-2.5-8.3h0l-2.8,8.3h-3.2l-3.9-13.4
			c-0.1-0.5-0.4-0.7-1.7-0.7v-1.8h6.9v1.8h-1c-0.5,0-0.7,0.3-0.7,0.6c0,0.2,0.1,0.5,0.2,0.9l2.3,8.6h0l2.8-8.1l-0.4-1.1
			c-0.2-0.7-0.7-0.9-1.2-0.9h-0.8v-1.8h7.2v1.8h-1.1c-0.5,0-0.9,0.2-0.9,0.5c0,0.2,0.1,0.4,0.2,0.8l2.6,8.7h0l2.4-8.5
			c0.1-0.2,0.1-0.5,0.1-0.8c0-0.4-0.3-0.7-1.1-0.7h-1.1v-1.8h6.6V-599.4z"/>
		<path class="st4" d="M752.8-598.1L752.8-598.1l0,10.2c0,0.6,0.4,1,1,1h1.8v1.8h-7.9v-1.8h1.7c0.7,0,1-0.4,1-1v-10.5
			c0-0.6-0.2-0.9-1-0.9h-1.7v-1.8h7.1l7,11.4h0v-8.5c0-0.7-0.4-1.1-1.2-1.1H759v-1.8h7.8v1.8h-1.4c-0.9,0-1.2,0.4-1.2,0.8v13.3h-3.6
			L752.8-598.1z"/>
		<path class="st4" d="M787.8-601.4h1.7v6.6h-1.8c-0.3-2.6-1.7-4.8-4.5-4.8c-3.5,0-4.4,3.2-4.4,6.4c0,3.1,1,6.4,4.4,6.4
			c2.7,0,4.1-1.9,4.3-4.5h2.1c-0.3,4.2-2.7,6.5-6.9,6.5c-5,0-7.7-3.6-7.7-8.7c0-4.5,3-8.2,8-8.2c1.6,0,3.3,0.7,4.4,1.8L787.8-601.4z
			"/>
		<path class="st4" d="M790.9-585.2v-1.8c1.3,0,2.1-0.2,2.5-1.3l4.6-12.8h3.4l4.8,12.8c0.4,1.1,1.2,1.3,2.5,1.3v1.8h-8.4v-1.8h1.9
			c0.6,0,0.7-0.1,0.7-0.4c0-0.2,0-0.4-0.1-0.6l-0.8-2.4h-5.4l-0.8,2.4c0,0.1-0.1,0.3-0.1,0.5c0,0.3,0.3,0.4,0.8,0.4h1.9v1.8H790.9z
			 M801.4-592.1l-2.1-5.8h0l-1.9,5.8H801.4z"/>
		<path class="st4" d="M809.7-585.2v-1.8h1.7c0.7,0,1-0.2,1-0.9v-10.6c0-0.6-0.2-0.9-1-0.9h-1.7v-1.8h10.4c3.5,0,5.1,1.4,5.1,4
			c0,2.5-2.1,3.7-4.5,3.9v0c2.5,0.3,3.1,1.4,3.1,3.3c0,2.5,0.6,2.9,1,2.9c0.6,0,0.8-0.5,0.8-1.9v-0.7h1.6v0.7c0,3.1-1.3,4.2-3.3,4.2
			c-2.4,0-3.1-1.3-3.1-3.3c0-3.8-0.9-4.7-3.7-4.7h-1.4v4.8c0,0.6,0.2,0.9,1,0.9h1.8v1.8H809.7z M815.8-594.5h2.8
			c2.6,0,3.3-0.8,3.3-2.6c0-1.5-1-2.3-3.1-2.3h-3.1V-594.5z"/>
		<path class="st4" d="M828.2-585.2v-1.8h1.3c0.8,0,1.3-0.2,1.3-1.7v-9.3c0-1-0.3-1.3-1.5-1.3h-1.1v-1.8h15.8v6.3h-1.8
			c-0.4-3.3-0.6-4.6-3.9-4.6h-4.2v5h1.3c1.4,0,2.1-0.7,2.1-2.7v-0.3h1.8v8h-1.8v-0.6c0-1.9-0.6-2.7-2.1-2.7h-1.3v5.6h4.8
			c2.2,0,3.1-1.4,3.3-4.9h1.8v6.7H828.2z"/>
	</g>
</g>
<g>
	<g>
		<rect x="-17.7" y="-21.7" class="st2" width="625.4" height="397.1"/>
		<g>
			<path class="st3" d="M296.2,19.3C159,19.3,47.7,130.5,47.7,267.7h496.8C544.6,130.5,433.3,19.3,296.2,19.3z"/>
		</g>
		<g>
			<path class="st4" d="M65.7,208H66c6.3-8.3,14.7-14.4,26.7-14.4c13.5,0,21.8,8.4,21.8,21.5v36.4c0,4.4,1.8,6.1,6.1,6.1h8.6v10.1
				H84.4v-10.1h5.8c4.3,0,6.1-1.7,6.1-6.1v-35.1c0-7.8-5.4-10.7-13.5-10.7c-8,0-17.2,8.4-17.2,21.9v23.9c0,4.4,1.8,6.1,6.1,6.1h6
				v10.1H32.7v-10.1h8.7c4.3,0,6.1-1.7,6.1-6.1v-69.2c0-4.4-1.8-6.1-6.1-6.1h-8.7V166h33V208z"/>
			<path class="st4" d="M136.1,267.7v-10.1h7.1c4.3,0,6.1-1.7,6.1-6.1v-39.3c0-4.4-1.8-6.1-6.1-6.1h-7.1v-10.1h31.3v55.5
				c0,4.4,1.8,6.1,6.1,6.1h7.5v10.1H136.1z M156.4,164.1c6,0,11,4.9,11,11s-5.1,11-11,11c-6,0-11-4.9-11-11S150.4,164.1,156.4,164.1
				z"/>
			<path class="st4" d="M186.8,267.7v-10.1h7.5c4.3,0,6.1-1.7,6.1-6.1v-69.2c0-4.4-1.8-6.1-6.1-6.1h-7.5V166h31.8v85.5
				c0,4.4,1.8,6.1,6.1,6.1h7.2v10.1H186.8z"/>
			<path class="st4" d="M237.9,267.7v-10.1h7.5c4.3,0,6.1-1.7,6.1-6.1v-69.2c0-4.4-1.8-6.1-6.1-6.1h-7.5V166h31.8v85.5
				c0,4.4,1.8,6.1,6.1,6.1h7.2v10.1H237.9z"/>
			<path class="st4" d="M335.5,206v-9.7c15.7-1.1,19.6-14.9,21-29h9.5v28.5h20.3V206h-19.8v45.3c0,3.1,1.7,5.1,5.8,5.1
				c4.8,0,6.6-2.6,6.6-8.7V234H389v12.9c0,16.1-8.9,23.2-21,23.2c-11.5,0-19.6-4.8-19.6-17v-47H335.5z"/>
			<path class="st4" d="M434.6,193.6c23,0,39.4,13.8,39.4,38.2S457.6,270,434.6,270c-23,0-39.4-13.8-39.4-38.2
				S411.6,193.6,434.6,193.6z M434.6,259.9c12.4,0,18.9-9.7,18.9-28.1s-6.4-28.1-18.9-28.1c-12.4,0-18.9,9.7-18.9,28.1
				S422.2,259.9,434.6,259.9z"/>
			<path class="st4" d="M507.6,208.5h0.3c6.1-10.4,14-14.9,24.1-14.9c21.3,0,30.4,19.3,30.4,38.2S553.4,270,532,270
				c-12.1,0-20.6-7.5-23.8-13.2h-0.5v26.5c0,4.6,1.4,6.8,6.1,6.8h9.7v10.1H475v-10.1h8.4c4.8,0,6.1-2.1,6.1-6.8v-70.6
				c0-4.6-1.4-6.8-6.1-6.8h-8v-10.1h32.2V208.5z M508.1,231.8c0,17.6,7.7,26.2,18,26.2c8.7,0,15.8-9.1,15.8-26.2
				c0-19.6-7.4-26.2-15.8-26.2C515.8,205.6,508.1,214.2,508.1,231.8z"/>
		</g>
	</g>
	<g>
		<path class="st4" d="M147.8,320.8v-3.4h3c1.3,0,2.2-0.5,2.2-2v-19.8c0-1.4-0.6-2-2.5-2h-2.7v-3.4h17v3.4h-2.6
			c-2,0-2.7,0.5-2.7,2.1v21.8h7.6c4.8,0,5.9-2.6,6.3-9.8h3.4v13.2H147.8z"/>
		<path class="st4" d="M178.6,320.8v-3.4c2.5,0,4.1-0.3,4.9-2.5l8.8-24.8h6.5l9.3,24.8c0.8,2.2,2.4,2.5,4.9,2.5v3.4h-16.1v-3.4h3.7
			c1.1,0,1.4-0.2,1.4-0.7c0-0.4-0.1-0.8-0.2-1.1l-1.5-4.6h-10.5l-1.5,4.6c-0.1,0.3-0.2,0.6-0.2,1c0,0.6,0.6,0.8,1.5,0.8h3.6v3.4
			H178.6z M198.9,307.5l-4-11.2h-0.1l-3.7,11.2H198.9z"/>
		<path class="st4" d="M255.1,293.5c-2.4,0-3.3,0.4-3.9,2.6l-7.3,24.7h-6.1l-4.9-15.9h-0.1l-5.4,15.9h-6.2l-7.6-25.9
			c-0.3-0.9-0.8-1.4-3.3-1.4v-3.4h13.4v3.4h-1.9c-1,0-1.4,0.6-1.4,1.2c0,0.5,0.2,1,0.4,1.7l4.5,16.7h0.1l5.4-15.7l-0.8-2.2
			c-0.5-1.3-1.3-1.7-2.3-1.7h-1.5v-3.4H240v3.4h-2c-1,0-1.7,0.3-1.7,0.9c0,0.3,0.1,0.8,0.4,1.6l5,16.7h0.1l4.6-16.4
			c0.1-0.4,0.3-1,0.3-1.5c0-0.8-0.6-1.3-2.2-1.3h-2v-3.4h12.7V293.5z"/>
		<path class="st4" d="M266.8,295.9L266.8,295.9l-0.1,19.6c0,1.1,0.7,1.9,1.9,1.9h3.5v3.4h-15.3v-3.4h3.2c1.4,0,1.9-0.7,1.9-1.9
			v-20.3c0-1.2-0.5-1.7-1.9-1.7h-3.2v-3.4h13.7l13.5,22.1h0.1v-16.5c0-1.4-0.7-2.2-2.4-2.2h-2.8v-3.4h15.1v3.4h-2.7
			c-1.7,0-2.3,0.7-2.3,1.6v25.7h-6.9L266.8,295.9z"/>
		<path class="st4" d="M334.4,289.6h3.3v12.7h-3.4c-0.6-5.1-3.2-9.2-8.8-9.2c-6.8,0-8.5,6.2-8.5,12.3c0,6,1.9,12.3,8.5,12.3
			c5.3,0,7.8-3.7,8.3-8.6h4c-0.6,8.1-5.2,12.6-13.3,12.6c-9.7,0-14.8-6.9-14.8-16.7c0-8.7,5.7-15.8,15.4-15.8c3,0,6.4,1.4,8.4,3.4
			L334.4,289.6z"/>
		<path class="st4" d="M340.4,320.8v-3.4c2.5,0,4.1-0.3,4.9-2.5l8.8-24.8h6.5l9.3,24.8c0.8,2.2,2.4,2.5,4.9,2.5v3.4h-16.1v-3.4h3.7
			c1.1,0,1.4-0.2,1.4-0.7c0-0.4-0.1-0.8-0.2-1.1l-1.5-4.6h-10.5l-1.5,4.6c-0.1,0.3-0.2,0.6-0.2,1c0,0.6,0.6,0.8,1.5,0.8h3.6v3.4
			H340.4z M360.6,307.5l-4-11.2h-0.1l-3.7,11.2H360.6z"/>
		<path class="st4" d="M376.7,320.8v-3.4h3.2c1.4,0,1.9-0.5,1.9-1.7v-20.5c0-1.2-0.5-1.7-1.9-1.7h-3.2v-3.4h20.2
			c6.7,0,9.9,2.6,9.9,7.7c0,4.8-4,7.1-8.7,7.5v0.1c4.9,0.6,6,2.7,6,6.3c0,4.9,1.1,5.7,1.9,5.7c1.1,0,1.6-1,1.6-3.7v-1.4h3.1v1.4
			c0,5.9-2.5,8.1-6.4,8.1c-4.6,0-6-2.5-6-6.3c0-7.4-1.7-9-7.1-9h-2.7v9.3c0,1.2,0.5,1.7,1.9,1.7h3.4v3.4H376.7z M388.4,302.9h5.5
			c5,0,6.4-1.6,6.4-5.1c0-2.9-1.9-4.5-6-4.5h-5.9V302.9z"/>
		<path class="st4" d="M412.5,320.8v-3.4h2.6c1.6,0,2.5-0.5,2.5-3.2v-18c0-2-0.6-2.6-3-2.6h-2.1v-3.4H443v12.2h-3.4
			c-0.7-6.3-1.3-8.8-7.5-8.8H424v9.6h2.5c2.8,0,4-1.4,4-5.1v-0.6h3.4v15.5h-3.4v-1.1c0-3.8-1.3-5.2-4-5.2H424v10.8h9.3
			c4.3,0,5.9-2.6,6.3-9.5h3.4v13H412.5z"/>
	</g>
</g>
</svg>
