<?xml version="1.0" encoding="UTF-8"?><svg id="Layer_1" xmlns="http://www.w3.org/2000/svg" xmlns:xlink="http://www.w3.org/1999/xlink" viewBox="0 0 507.95 530.38"><defs><style>.cls-1{clip-path:url(#clippath);}.cls-2{fill:none;}.cls-2,.cls-3,.cls-4{stroke-width:0px;}.cls-5{mask:url(#mask);}.cls-3{fill:#21431e;}.cls-4{fill:#c50;}</style><clipPath id="clippath"><rect class="cls-2" x="-554.46" y="-104.34" width="524.48" height="745.15"/></clipPath><mask id="mask" x="-618.34" y="-299.48" width="679.49" height="1102.1" maskUnits="userSpaceOnUse"/></defs><g class="cls-1"><g class="cls-5"><path class="cls-3" d="m-40.29,347.37c1.99,3.41,19.06.46,30.95-10.03,6.78-5.97,18.59-20.33,13.1-32.3-2.8-6.11-9.72-10.73-16.67-10.74-10.04,0-18.15,9.61-20.48,17.91-2.59,9.18,2.69,13.86-1.19,24.14-2.66,7.04-6.77,9.19-5.7,11.02h0Z"/><path class="cls-3" d="m-139.28,352.29c-12.4,6.91-2.93,68.37,33.99,111.73,21.04,24.72,71.87,68.07,115.28,49.18,22.18-9.65,39.25-34.16,39.73-59.1.7-36.03-33.35-65.75-63.02-74.7-32.82-9.9-50.04,8.72-86.75-5.88-25.14-10-32.6-24.91-39.23-21.21h0Z"/><path class="cls-3" d="m17.42,44.14c13.46-4.52,15.44-66.66-12.88-116.06-16.14-28.15-58.14-80.1-104.28-69.49-23.57,5.42-44.86,26.39-49.91,50.81-7.31,35.29,20.7,70.75,48.21,84.99,30.45,15.76,50.79.6,84.19,21.69C5.63,30.53,10.23,46.56,17.42,44.14Z"/><path class="cls-3" d="m-143.02,103.82c-11.05,8.91,8.69,67.87,52.42,104.37,24.93,20.8,82.36,54.95,121.95,28.98,20.22-13.26,32.9-40.31,29.14-64.97-5.41-35.63-44.01-59.17-74.76-62.98-34.03-4.21-47.84,17.05-86.5,8.86-26.46-5.6-36.35-19.04-42.26-14.28h0Z"/></g></g><circle class="cls-4" cx="252.39" cy="263.26" r="246.52"/></svg>