<?xml version="1.0" encoding="UTF-8"?><svg id="Layer_1" xmlns="http://www.w3.org/2000/svg" viewBox="0 0 59.72 65.83"><defs><style>.cls-1{fill:#fff;stroke-width:0px;}</style></defs><path class="cls-1" d="m58.99,34.2c-.98-.98-2.56-.98-3.54,0l-23.09,23.09V2.5c0-1.38-1.12-2.5-2.5-2.5s-2.5,1.12-2.5,2.5v54.8L4.27,34.2c-.98-.98-2.56-.98-3.53,0-.98.98-.98,2.56,0,3.53l27.36,27.36s.05.04.07.06c.1.09.19.18.3.25.05.03.1.06.16.09.09.05.18.1.27.14.06.03.13.04.2.06.09.03.18.06.27.08.16.03.33.05.49.05h0s.04,0,.06,0c.15,0,.29-.01.44-.04.13-.03.25-.07.37-.11.03-.01.07-.02.1-.03.14-.06.27-.13.4-.21,0,0,.02-.01.03-.02.14-.09.27-.2.39-.32l27.35-27.35c.98-.98.98-2.56,0-3.54Z"/></svg>